<svg width="96" height="96" viewBox="0 0 96 96" fill="none" xmlns="http://www.w3.org/2000/svg">
<path d="M77.7858 63.1421H17.8487M54.121 30.3685C54.8441 29.2208 55.2624 27.8619 55.2624 26.4052C55.2624 22.2934 51.9291 18.9601 47.8173 18.9601C43.7055 18.9601 40.3722 22.2934 40.3722 26.4052C40.3722 27.8618 40.7905 29.2208 41.5135 30.3684M54.121 30.3685C52.803 32.4604 50.4725 33.8503 47.8173 33.8503C45.1621 33.8503 42.8315 32.4604 41.5135 30.3684M54.121 30.3685L61.7338 36.3337C63.3682 37.6143 65.6655 37.6143 67.2999 36.3337L74.6846 30.5472M41.5135 30.3684L33.9006 36.3337C32.2662 37.6143 29.9689 37.6143 28.3345 36.3337L20.9498 30.5473M20.9498 30.5473C21.7441 29.3631 22.2075 27.9382 22.2075 26.4052C22.2075 22.2934 18.8742 18.9601 14.7624 18.9601C10.6505 18.9601 7.31723 22.2934 7.31723 26.4052C7.31723 30.517 10.6505 33.8503 14.7624 33.8503C14.8429 33.8503 14.9232 33.8491 15.0032 33.8465M20.9498 30.5473C19.6555 32.477 17.4823 33.7677 15.0032 33.8465M15.0032 33.8465L17.8487 63.1421M74.6846 30.5472C73.8903 29.3631 73.427 27.9382 73.427 26.4052C73.427 22.2934 76.7603 18.9601 80.8721 18.9601C84.9839 18.9601 88.3172 22.2934 88.3172 26.4052C88.3172 30.517 84.9839 33.8503 80.8721 33.8503C80.7915 33.8503 80.7112 33.8491 80.6312 33.8465M74.6846 30.5472C75.979 32.477 78.1522 33.7677 80.6312 33.8465M80.6312 33.8465L77.2512 68.6461C76.8334 72.9467 73.2187 76.2274 68.8978 76.2274H26.7367C22.4158 76.2274 18.801 72.9468 18.3833 68.6461L17.8487 63.1421" stroke="#234de7" stroke-width="6.17143"/>
</svg>
