<svg width="24" height="24" viewBox="0 0 24 24" fill="none" xmlns="http://www.w3.org/2000/svg">
<path d="M20.25 12C20.25 10.5518 19.8688 9.12916 19.1447 7.875C18.4206 6.62084 17.3792 5.57938 16.125 4.85529C14.8708 4.1312 13.4482 3.75 12 3.75C10.5518 3.75 9.12916 4.1312 7.875 4.85529C6.62084 5.57938 5.57938 6.62084 4.85529 7.875C4.1312 9.12916 3.75 10.5518 3.75 12C3.75 13.4482 4.1312 14.8708 4.85529 16.125C5.57938 17.3792 6.62084 18.4206 7.875 19.1447L9.04279 19.6477M9.125 16.25V19.25C9.125 19.3913 9.09568 19.5258 9.04279 19.6477M5.125 20.25H8.125C8.53595 20.25 8.88901 20.0021 9.04279 19.6477" stroke="#212325" stroke-width="1.5" stroke-linecap="round" stroke-linejoin="round"/>
<path d="M14.5 11.75C14.5 12.9926 13.4926 14 12.25 14C11.0074 14 10 12.9926 10 11.75C10 10.5074 11.0074 9.5 12.25 9.5C13.4926 9.5 14.5 10.5074 14.5 11.75Z" stroke="#212325" stroke-width="1.5"/>
</svg>
