<svg width="24" height="24" viewBox="0 0 24 24" fill="none" xmlns="http://www.w3.org/2000/svg">
<path d="M7 8.25C8.51878 8.25 9.75 7.01878 9.75 5.5C9.75 3.98122 8.51878 2.75 7 2.75C5.48122 2.75 4.25 3.98122 4.25 5.5C4.25 7.01878 5.48122 8.25 7 8.25ZM7 8.25V12M7 15.75C5.48122 15.75 4.25 16.9812 4.25 18.5C4.25 20.0188 5.48122 21.25 7 21.25C8.51878 21.25 9.75 20.0188 9.75 18.5C9.75 16.9812 8.51878 15.75 7 15.75ZM7 15.75V12M17 8.25C18.5188 8.25 19.75 7.01878 19.75 5.5C19.75 3.98122 18.5188 2.75 17 2.75C15.4812 2.75 14.25 3.98122 14.25 5.5C14.25 7.01878 15.4812 8.25 17 8.25ZM17 8.25V9C17 10.6569 15.6569 12 14 12H7" stroke="#212325" stroke-width="1.5" stroke-linecap="round" stroke-linejoin="round"/>
</svg>
