<svg width="24" height="24" viewBox="0 0 24 24" fill="none" xmlns="http://www.w3.org/2000/svg">
<path d="M7.5 9.08074C7.5 7.29644 8.94646 5.84998 10.7308 5.84998H13.2692C15.0535 5.84998 16.5 7.29644 16.5 9.08074V15.35C16.5 17.8353 14.4853 19.85 12 19.85V19.85C9.51472 19.85 7.5 17.8353 7.5 15.35V9.08074Z" stroke="#212325" stroke-width="1.5" stroke-linecap="round" stroke-linejoin="round"/>
<path d="M16.5 12.85H21.25" stroke="#212325" stroke-width="1.5" stroke-linecap="round" stroke-linejoin="round"/>
<path d="M2.75 12.85H7.5" stroke="#212325" stroke-width="1.5" stroke-linecap="round" stroke-linejoin="round"/>
<path d="M9.75 3.15002V3.60002C9.75 4.84267 10.7574 5.85002 12 5.85002V5.85002C13.2426 5.85002 14.25 4.84266 14.25 3.60002V3.15002" stroke="#212325" stroke-width="1.5" stroke-linecap="round" stroke-linejoin="round"/>
<path d="M16.5 16.6H17.7525C19.1332 16.6 20.2525 17.7193 20.2525 19.1V20.85" stroke="#212325" stroke-width="1.5" stroke-linecap="round" stroke-linejoin="round"/>
<path d="M7.5 16.6H6.2475C4.86679 16.6 3.7475 17.7193 3.7475 19.1V20.85" stroke="#212325" stroke-width="1.5" stroke-linecap="round" stroke-linejoin="round"/>
<path d="M16.5 9.09998H17.7525C19.1332 9.09998 20.2525 7.98069 20.2525 6.59998V4.84998" stroke="#212325" stroke-width="1.5" stroke-linecap="round" stroke-linejoin="round"/>
<path d="M7.5 9.09998H6.2475C4.86679 9.09998 3.7475 7.98069 3.7475 6.59998V4.84998" stroke="#212325" stroke-width="1.5" stroke-linecap="round" stroke-linejoin="round"/>
</svg>
