<svg width="24" height="24" viewBox="0 0 24 24" fill="none" xmlns="http://www.w3.org/2000/svg">
<path d="M12.0846 3.875V6.29206M12.0846 20.375V17.9579M16.4669 16.2534C15.6504 17.0699 14.61 17.626 13.4775 17.8513C13.0167 17.9429 12.5491 17.9782 12.0846 17.9579M16.4669 7.99658C15.6504 7.18006 14.61 6.624 13.4775 6.39872C13.0167 6.30707 12.5491 6.27184 12.0846 6.29206M12.0846 17.9579C11.4074 17.9285 10.737 17.7811 10.1042 17.519C9.03734 17.0771 8.1255 16.3288 7.48396 15.3687C6.84242 14.4085 6.5 13.2797 6.5 12.125C6.5 10.9703 6.84242 9.84146 7.48396 8.88133C8.1255 7.9212 9.03734 7.17286 10.1042 6.73097C10.737 6.46885 11.4074 6.32153 12.0846 6.29206" stroke="#212325" stroke-width="1.5" stroke-linecap="round" stroke-linejoin="round"/>
</svg>
