<svg width="24" height="24" viewBox="0 0 24 24" fill="none" xmlns="http://www.w3.org/2000/svg">
<circle cx="1.25" cy="1.25" r="1.25" transform="matrix(-1 0 0 1 16.6539 6.03357)" fill="#212325"/>
<circle cx="1.25" cy="1.25" r="1.25" transform="matrix(-1 0 0 1 12.1562 5.22107)" fill="#212325"/>
<circle cx="1.25" cy="1.25" r="1.25" transform="matrix(-1 0 0 1 8.6539 7.93982)" fill="#212325"/>
<circle cx="1.25" cy="1.25" r="1.25" transform="matrix(-1 0 0 1 7.68515 12.1562)" fill="#212325"/>
<circle cx="1.25" cy="1.25" r="1.25" transform="matrix(-1 0 0 1 9.9039 15.9478)" fill="#212325"/>
<path d="M21.25 12C21.25 6.89137 17.1086 2.75 12 2.75C6.89137 2.75 2.75 6.89137 2.75 12C2.75 17.1086 6.89137 21.25 12 21.25C13.3178 21.25 14.2243 19.97 14.329 18.6564L14.4464 17.1835C14.5637 15.7128 15.7329 14.5456 17.2038 14.4309L18.855 14.3022C20.1343 14.2025 21.25 13.2833 21.25 12Z" stroke="#212325" stroke-width="1.5" stroke-linejoin="round"/>
</svg>
