<svg width="24" height="24" viewBox="0 0 24 24" fill="none" xmlns="http://www.w3.org/2000/svg">
<path d="M12 20.25H16.25C18.4591 20.25 20.25 18.4591 20.25 16.25V13.75M12 20.25H7.75C5.54086 20.25 3.75 18.4591 3.75 16.25V12M12 20.25V15C12 13.3431 10.6569 12 9 12H3.75M3.75 12V7.75C3.75 5.54086 5.54086 3.75 7.75 3.75H10.25" stroke="#212325" stroke-width="1.5" stroke-linecap="round" stroke-linejoin="round"/>
<path d="M13.75 3.75H19.25C19.5261 3.75 19.7761 3.86193 19.9571 4.04289M20.25 10.25V4.75C20.25 4.47386 20.1381 4.22386 19.9571 4.04289M13.75 10.25L19.25 4.75L19.9571 4.04289" stroke="#212325" stroke-width="1.5" stroke-linecap="round" stroke-linejoin="round"/>
</svg>
