<svg width="24" height="24" viewBox="0 0 24 24" fill="none" xmlns="http://www.w3.org/2000/svg">
<path d="M5.83334 5.83333C5.83334 4.13045 7.2138 2.75 8.91668 2.75H12V8.91667H8.91668C7.2138 8.91667 5.83334 7.53621 5.83334 5.83333V5.83333Z" stroke="#212325" stroke-width="1.5" stroke-linecap="round" stroke-linejoin="round"/>
<path d="M18.1667 5.83333C18.1667 4.13045 16.7862 2.75 15.0833 2.75H12V8.91667H15.0833C16.7862 8.91667 18.1667 7.53621 18.1667 5.83333V5.83333Z" stroke="#212325" stroke-width="1.5" stroke-linecap="round" stroke-linejoin="round"/>
<rect width="6.16667" height="6.16667" rx="3.08333" transform="matrix(-1 0 0 1 18.1667 8.91669)" stroke="#212325" stroke-width="1.5" stroke-linecap="round" stroke-linejoin="round"/>
<path d="M5.83334 12C5.83334 10.2971 7.2138 8.91669 8.91668 8.91669H12V15.0834H8.91668C7.2138 15.0834 5.83334 13.7029 5.83334 12V12Z" stroke="#212325" stroke-width="1.5" stroke-linecap="round" stroke-linejoin="round"/>
<path d="M5.83334 18.1666C5.83334 16.4638 7.2138 15.0833 8.91668 15.0833H12V18.1666C12 19.8695 10.6196 21.25 8.91668 21.25V21.25C7.2138 21.25 5.83334 19.8695 5.83334 18.1666V18.1666Z" stroke="#212325" stroke-width="1.5" stroke-linecap="round" stroke-linejoin="round"/>
</svg>
