<svg width="24" height="24" viewBox="0 0 24 24" fill="none" xmlns="http://www.w3.org/2000/svg">
<path d="M6.51221 7.71057H17.4881" stroke="#212325" stroke-width="1.5" stroke-linecap="round" stroke-linejoin="round"/>
<path d="M8.75818 11.4899H11.9968H15.2353V17.0838V19.6C15.2353 20.6493 14.3847 21.5 13.3353 21.5H10.6582C9.60884 21.5 8.75818 20.6493 8.75818 19.6V11.4899Z" stroke="#212325" stroke-width="1.5" stroke-linecap="round" stroke-linejoin="round"/>
<path d="M5.80556 7.98997L8.75795 11.4899H15.2351L18.1937 7.99019C18.3463 7.80968 18.43 7.58096 18.43 7.34459L18.43 4.84999C18.43 3.82827 17.6017 3 16.58 3H7.41987C6.39812 3 5.56984 3.8283 5.56987 4.85004L5.56993 7.34521C5.56993 7.5812 5.6534 7.80959 5.80556 7.98997Z" stroke="#212325" stroke-width="1.5" stroke-linecap="round" stroke-linejoin="round"/>
<path d="M11.9967 15.0287L11.9967 16.7952" stroke="#212325" stroke-width="1.5" stroke-linecap="round" stroke-linejoin="round"/>
</svg>
