<svg width="24" height="24" viewBox="0 0 24 24" fill="none" xmlns="http://www.w3.org/2000/svg">
<path d="M12 13.8255C13.9366 13.8255 15.5065 12.2556 15.5065 10.319C15.5065 8.38241 13.9366 6.8125 12 6.8125C10.0634 6.8125 8.49351 8.38241 8.49351 10.319C8.49351 12.2556 10.0634 13.8255 12 13.8255ZM12 13.8255C13.5913 13.8255 15.1174 14.4576 16.2426 15.5829C17.1906 16.5308 17.7886 17.7634 17.9535 19.0797M12 13.8255C10.4087 13.8255 8.88258 14.4576 7.75736 15.5829C6.80938 16.5308 6.21137 17.7634 6.04651 19.0797M6.04651 19.0797C7.65536 20.434 9.73239 21.25 12 21.25C14.2676 21.25 16.3446 20.434 17.9535 19.0797M6.04651 19.0797C4.03081 17.3829 2.75 14.841 2.75 12C2.75 6.89137 6.89137 2.75 12 2.75C17.1086 2.75 21.25 6.89137 21.25 12C21.25 14.841 19.9692 17.3829 17.9535 19.0797" stroke="#212325" stroke-width="1.5" stroke-linecap="round" stroke-linejoin="round"/>
</svg>
