<svg width="24" height="24" viewBox="0 0 24 24" fill="none" xmlns="http://www.w3.org/2000/svg">
<path d="M9.30116 9.70884C9.30116 9.26502 9.41062 8.82804 9.61984 8.43662C9.82905 8.0452 10.1316 7.71142 10.5006 7.46485C10.8696 7.21827 11.2938 7.06651 11.7355 7.02301C12.1772 6.9795 12.6228 7.0456 13.0328 7.21545C13.4428 7.38529 13.8047 7.65364 14.0862 7.99672C14.3678 8.3398 14.5604 8.74703 14.647 9.18233C14.7336 9.61762 14.7115 10.0676 14.5826 10.4923C14.4897 10.7985 14.3434 11.0848 14.1514 11.3383C14.1492 11.3412 14.1481 11.3426 14.0658 11.4321C14.0241 11.4774 13.8789 11.6163 13.8318 11.6559C13.7388 11.7341 13.6937 11.7652 13.6036 11.8274L12.6254 12.5019C12.1344 12.8405 11.8412 13.3988 11.8412 13.9952" stroke="#212325" stroke-width="1.5" stroke-linecap="round" stroke-linejoin="round"/>
<circle cx="11.8281" cy="16.74" r="1" fill="#212325"/>
<circle cx="12" cy="12" r="9.25" stroke="#212325" stroke-width="1.5" stroke-linecap="round" stroke-linejoin="round"/>
</svg>
