<svg width="24" height="24" viewBox="0 0 24 24" fill="none" xmlns="http://www.w3.org/2000/svg">
<path d="M9.93712 10.4529L9.9263 10.5828C9.9263 13.9335 7.88944 15.6977 5.29633 16.6406M9.93712 10.4529C9.93712 12.1616 8.55256 13.5469 6.84386 13.5469C5.13517 13.5469 3.75 12.1617 3.75 10.453C3.75 8.7443 5.13517 7.35913 6.84386 7.35913C8.55256 7.35913 9.93712 8.74422 9.93712 10.4529Z" stroke="#212325" stroke-width="1.5" stroke-linecap="round" stroke-linejoin="round"/>
<path d="M20.25 10.4529L20.2392 10.5828C20.2392 13.9335 18.2023 15.6977 15.6092 16.6406M20.25 10.4529C20.25 12.1616 18.8654 13.5469 17.1567 13.5469C15.4481 13.5469 14.0629 12.1617 14.0629 10.453C14.0629 8.7443 15.4481 7.35913 17.1567 7.35913C18.8654 7.35913 20.25 8.74422 20.25 10.4529Z" stroke="#212325" stroke-width="1.5" stroke-linecap="round" stroke-linejoin="round"/>
</svg>
