<svg xmlns="http://www.w3.org/2000/svg" width="24" height="24" fill="none" viewBox="0 0 24 24"><path stroke="currentColor" stroke-linecap="round" stroke-linejoin="round" stroke-width="1.5" d="M10.63 7.66v5.94m-2.97-2.97h5.94"/><rect width="14" height="14" x="3.63" y="3.63" stroke="currentColor" stroke-linecap="round" stroke-linejoin="round" stroke-width="1.5" rx="3"/><path fill="currentColor" d="M20.971 7.928c.227.444.321.924.366 1.47.043.531.043 1.187.043 2v.466c0 1.511 0 2.692-.077 3.64-.08.963-.242 1.752-.604 2.463a6.25 6.25 0 0 1-2.732 2.732c-.711.362-1.5.525-2.463.604-.948.077-2.129.077-3.64.077h-.466c-.813 0-1.469 0-2-.043-.546-.045-1.026-.14-1.47-.366A3.75 3.75 0 0 1 6.63 19.88h5.2c1.553 0 2.672 0 3.551-.072.871-.072 1.44-.209 1.906-.446a4.75 4.75 0 0 0 2.075-2.075c.237-.465.374-1.035.446-1.906.071-.88.072-1.998.072-3.551v-5.2c.456.342.83.785 1.091 1.298"/></svg>