<svg xmlns="http://www.w3.org/2000/svg" width="24" height="24" fill="none" viewBox="0 0 24 24"><path stroke="currentColor" stroke-linecap="round" stroke-linejoin="round" stroke-width="1.5" d="M10.238 4.512a1.762 1.762 0 1 1 3.524 0V8.9l6.733 3.535a1 1 0 0 1 .535.885v.431a.6.6 0 0 1-.712.59l-6.556-1.24v4.107a.6.6 0 0 0 .317.53l1.862.996a1.5 1.5 0 0 1 .792 1.322v.447a.6.6 0 0 1-.73.586L12 20.204l-4.003.885a.6.6 0 0 1-.73-.586v-.447a1.5 1.5 0 0 1 .792-1.322l1.862-.997a.6.6 0 0 0 .317-.529v-4.106L3.682 14.34a.6.6 0 0 1-.712-.59v-.43a1 1 0 0 1 .535-.886L10.238 8.9z"/></svg>