<svg xmlns="http://www.w3.org/2000/svg" width="24" height="24" fill="none" viewBox="0 0 24 24"><path stroke="currentColor" stroke-linecap="round" stroke-linejoin="round" stroke-width="1.3" d="M17.284 17.724h1.967c.543 0 .983.44.983.983v1.967"/><path fill="currentColor" fill-rule="evenodd" d="m6.901 7.111 1.976.2a.57.57 0 0 0 .558-.34c.268-.573.924-1.59 2.209-1.59.258 0 .478.041.665.108 1.04.373 1.02 1.77 1.02 2.874 0 0-2.415-.058-3.992.476-.465.157-.934.333-1.36.578-1.223.705-1.77 2.276-1.969 3.022-.071.27-.098.549-.08.828.08 1.178.558 3.184 2.968 3.599 2.247.386 3.749-.64 4.43-1.267.23-.213.612-.22.817.018l.88 1.017a.59.59 0 0 0 .825.066l1.676-1.402a.59.59 0 0 0 .101-.796l-.267-.374c-.215-.3-.422-.613-.517-.97-.099-.372-.09-.763-.09-1.148V6.704c0-2.372-2.295-3.681-3.94-3.85l-.592-.057a6 6 0 0 0-.972-.034 6 6 0 0 0-1.162.196c-1.537.399-3.348 1.765-3.597 3.664-.033.25.162.463.413.488m6.428 4.576v-1.432s-1.905-.047-2.664.363c-.312.168-.574.491-.775.813a2.54 2.54 0 0 0-.291 1.94c.066.275.158.54.282.695.259.323.876.439 1.166.476q.156.022.311.003c.157-.022.413-.08.67-.23.39-.229.695-.595.903-.995.118-.226.208-.471.273-.676a3.2 3.2 0 0 0 .125-.957" clip-rule="evenodd"/><path stroke="currentColor" stroke-linecap="round" stroke-width="1.5" d="M4.5 18.707c1.933 1.619 4.584 2.548 7.375 2.548 1.853 0 3.643-.41 5.203-1.158a11 11 0 0 0 .573-.295"/></svg>