<svg xmlns="http://www.w3.org/2000/svg" width="24" height="24" fill="none" viewBox="0 0 24 24"><path stroke="currentColor" stroke-width="1.5" d="M20.405 12.01c.257-1.048.376-2.158.338-3.309l-.048-1.437c-.81-2.856-1.102-3.15-3.959-3.96l-1.437-.047a12.2 12.2 0 0 0-3.31.338m8.416 8.415a11.39 11.39 0 0 1-7.11 8q-.626.233-1.285.395m8.395-8.395L11.99 3.595m0 0a11.4 11.4 0 0 0-8.395 8.395m8.415 8.415q-.694.17-1.42.258-.923.11-1.889.08l-1.437-.048c-2.856-.81-3.15-1.102-3.96-3.959l-.047-1.437c-.038-1.151.081-2.26.338-3.31m8.415 8.416L3.595 11.99"/><path stroke="currentColor" stroke-linecap="round" stroke-width="1.5" d="m9.577 14.424 4.847-4.847M9.2 11.97l2.83 2.83m-.06-5.6 2.83 2.83"/></svg>