<svg xmlns="http://www.w3.org/2000/svg" width="24" height="24" fill="none" viewBox="0 0 24 24"><path stroke="currentColor" stroke-linecap="round" stroke-linejoin="round" stroke-width="1.5" d="M16.764 9.907a9.3 9.3 0 0 1 1.777 1.46 9.8 9.8 0 0 1 2.005 3.158c.343.873.564 1.791.655 2.727.054.55-.399.998-.951.998H3.75c-.552 0-1.005-.449-.951-.998.091-.936.312-1.854.655-2.727a9.8 9.8 0 0 1 2.005-3.157 9.3 9.3 0 0 1 1.777-1.461m9.528 0a9 9 0 0 0-1.224-.65 8.85 8.85 0 0 0-3.54-.74 8.85 8.85 0 0 0-3.54.74 9 9 0 0 0-1.224.65m9.528 0L18.49 6.75M7.236 9.907 5.51 6.75"/><circle cx="8.75" cy="14.063" r="1.25" fill="currentColor"/><circle cx="15.25" cy="14.063" r="1.25" fill="currentColor"/></svg>