<svg xmlns="http://www.w3.org/2000/svg" width="24" height="24" fill="none" viewBox="0 0 24 24"><path fill="currentColor" d="M10.904 13.794h2.024l-1.012-1.755z"/><path stroke="currentColor" stroke-linejoin="round" stroke-width="1.5" d="m8.843 17.367-1.58 2.74A1.784 1.784 0 1 1 4.17 18.32l.55-.953m4.122 0H4.72m4.122 0h6.146m-10.268 0h-.466a1.786 1.786 0 0 1 0-3.573h2.527l3.073-5.327-1.03-1.787a1.784 1.784 0 1 1 3.092-1.786 1.784 1.784 0 1 1 3.09 1.786l-1.03 1.786m-1.049 5.328h-2.024l1.012-1.755m1.012 1.755 2.061 3.573m-2.06-3.573-1.013-1.755m3.073 5.328 1.58 2.74a1.784 1.784 0 1 0 3.092-1.787l-.55-.953h.634a1.786 1.786 0 0 0 0-3.573H17.05l-3.073-5.328m0 0-2.06 3.573"/></svg>