<svg xmlns="http://www.w3.org/2000/svg" width="24" height="24" fill="none" viewBox="0 0 24 24"><path stroke="currentColor" stroke-linecap="round" stroke-linejoin="round" stroke-width="1.5" d="M10.25 12.25h2m-8.5-4h16.5m0 2v-1.7c0-1.68 0-2.52-.327-3.162a3 3 0 0 0-1.311-1.311c-.642-.327-1.482-.327-3.162-.327h-6.9c-1.68 0-2.52 0-3.162.327a3 3 0 0 0-1.311 1.311C3.75 6.03 3.75 6.87 3.75 8.55v6.9c0 1.68 0 2.52.327 3.162a3 3 0 0 0 1.311 1.311c.642.327 1.482.327 3.162.327h1.7"/><path fill="currentColor" fill-rule="evenodd" d="M17.5 23a5.5 5.5 0 1 0 0-11 5.5 5.5 0 0 0 0 11m0-8.993a.5.5 0 0 1 .5.5V17h2.493a.5.5 0 1 1 0 1H18v2.493a.5.5 0 1 1-1 0V18h-2.493a.5.5 0 1 1 0-1H17v-2.493a.5.5 0 0 1 .5-.5" clip-rule="evenodd"/></svg>