<svg width="24" height="24" viewBox="0 0 24 24" fill="none" xmlns="http://www.w3.org/2000/svg">
<path d="M3.75 12C3.75 10.5518 4.1312 9.12916 4.85529 7.875C5.57938 6.62084 6.62084 5.57938 7.875 4.85529C9.12916 4.1312 10.5518 3.75 12 3.75C13.4482 3.75 14.8708 4.1312 16.125 4.85529C17.3792 5.57938 18.4206 6.62084 19.1447 7.875C19.8688 9.12916 20.25 10.5518 20.25 12C20.25 13.4482 19.8688 14.8708 19.1447 16.125C18.4206 17.3792 17.3792 18.4206 16.125 19.1447L14.9261 19.5663M14.875 16.25V19.25C14.875 19.3605 14.8929 19.4669 14.9261 19.5663M18.875 20.25H15.875C15.4333 20.25 15.0584 19.9636 14.9261 19.5663" stroke="currentColor" stroke-width="1.5" stroke-linecap="round" stroke-linejoin="round"/>
<path d="M14.5 11.75C14.5 12.9926 13.4926 14 12.25 14C11.0074 14 10 12.9926 10 11.75C10 10.5074 11.0074 9.5 12.25 9.5C13.4926 9.5 14.5 10.5074 14.5 11.75Z" stroke="currentColor" stroke-width="1.5"/>
</svg>
