<svg width="24" height="24" viewBox="0 0 24 24" fill="none" xmlns="http://www.w3.org/2000/svg">
<path d="M19.7189 14.3853C19.2249 16.2289 18.1069 17.8442 16.5554 18.956C15.004 20.0678 13.115 20.6072 11.2104 20.4823C9.30583 20.3575 7.50344 19.5761 6.11036 18.2714C4.71728 16.9666 3.81971 15.2192 3.57058 13.3268C3.32145 11.4345 3.73617 9.5143 4.74408 7.89344C5.752 6.27258 7.29074 5.05135 9.09813 4.43783C10.9055 3.8243 12.8697 3.85644 14.6561 4.52878C16.4424 5.20111 17.9404 6.47203 18.8947 8.125L19.3153 9.03253M19.8948 4.375V8.125C19.8948 8.52706 19.6575 8.8737 19.3153 9.03253M15.1448 9.125H18.8948C19.045 9.125 19.1875 9.09188 19.3153 9.03253" stroke="currentColor" stroke-width="1.5" stroke-linecap="round" stroke-linejoin="round"/>
</svg>
