<svg width="24" height="24" viewBox="0 0 24 24" fill="none" xmlns="http://www.w3.org/2000/svg">
<path d="M4.28111 14.3853C4.77512 16.2289 5.8931 17.8442 7.44456 18.956C8.99603 20.0678 10.885 20.6072 12.7896 20.4823C14.6942 20.3575 16.4966 19.5761 17.8896 18.2714C19.2827 16.9666 20.1803 15.2192 20.4294 13.3268C20.6786 11.4345 20.2638 9.5143 19.2559 7.89344C18.248 6.27258 16.7093 5.05135 14.9019 4.43783C13.0945 3.8243 11.1303 3.85644 9.34394 4.52878C7.55759 5.20111 6.05963 6.47203 5.10529 8.125L4.62823 9.00412M4.10522 4.375V8.125C4.10522 8.50456 4.31669 8.83473 4.62823 9.00412M8.85522 9.125H5.10522C4.9325 9.125 4.77 9.08121 4.62823 9.00412" stroke="currentColor" stroke-width="1.5" stroke-linecap="round" stroke-linejoin="round"/>
</svg>
