<svg xmlns="http://www.w3.org/2000/svg" width="24" height="24" fill="none" viewBox="0 0 24 24"><path stroke="currentColor" stroke-linecap="round" stroke-linejoin="round" stroke-width="1.5" d="M12 9.005V2.75M9 5.324l2.273-2.273c.201-.2.464-.301.727-.301m3 2.574-2.273-2.273c-.2-.2-.464-.301-.727-.301M14.995 12h6.255m-2.574-3 2.273 2.273c.2.201.301.464.301.727m-2.574 3 2.273-2.273c.2-.2.301-.464.301-.727M12 14.995v6.255m-3-2.574 2.273 2.273c.201.2.464.301.727.301m3-2.574-2.273 2.273c-.2.2-.464.301-.727.301M9.005 12H2.75m2.574-3-2.273 2.273c-.2.201-.301.464-.301.727m2.574 3-2.273-2.273c-.2-.2-.301-.464-.301-.727"/></svg>