<svg xmlns="http://www.w3.org/2000/svg" width="24" height="24" fill="none" viewBox="0 0 24 24"><path fill="currentColor" fill-rule="evenodd" d="M3 14.95v-1.68h.633c.168.163.33.33.486.462.307.261.696.54 1.204.706a3.5 3.5 0 0 0 2.168 0c.507-.165.896-.445 1.203-.706.28-.236.583-.54.895-.852l1.185-1.186c-1.322 3.12 2.099 6.198 5.084 4.475a3.574 3.574 0 0 0 1.308-4.882 2 2 0 0 0-.118-.179l-1.744-2.313a1.75 1.75 0 0 0-1.764-.657 1.75 1.75 0 0 0-.511-1.173l-.739-.716V4.75h4.41c1.68 0 2.52 0 3.162.327a3 3 0 0 1 1.311 1.311c.327.642.327 1.482.327 3.162v5.4c0 1.68 0 2.52-.327 3.162a3 3 0 0 1-1.311 1.311c-.642.327-1.482.327-3.162.327H7.8c-1.68 0-2.52 0-3.162-.327a3 3 0 0 1-1.311-1.311C3 17.47 3 16.63 3 14.95" clip-rule="evenodd"/></svg>