<svg xmlns="http://www.w3.org/2000/svg" width="24" height="24" fill="none" viewBox="0 0 24 24"><path stroke="currentColor" stroke-linecap="round" stroke-linejoin="round" stroke-width="1.5" d="M13.04 4.75h3.66c1.68 0 2.52 0 3.162.327a3 3 0 0 1 1.311 1.311c.327.642.327 1.482.327 3.162v5.4c0 1.68 0 2.52-.327 3.162a3 3 0 0 1-1.311 1.311c-.642.327-1.482.327-3.162.327H7.8c-1.68 0-2.52 0-3.162-.327a3 3 0 0 1-1.311-1.311C3 17.47 3 16.63 3 14.95v-.93"/><path stroke="currentColor" stroke-linecap="round" stroke-linejoin="round" stroke-width="1.5" d="m6.407 2.818 5.384 5.385M6.407 2.818 3.01 6.214c-.696.696-1.044 1.044-1.174 1.446-.057.176-.086.36-.086.543m4.657-5.385L5.589 2m6.202 6.203-3.396 3.396c-.696.696-1.044 1.044-1.445 1.174a1.76 1.76 0 0 1-1.086 0c-.401-.13-.75-.478-1.445-1.174L3.01 10.191c-.696-.696-1.044-1.044-1.174-1.445a1.8 1.8 0 0 1-.086-.543m10.042 0H1.75m10.672 4.094 1.485-2.448 1.744 2.313a1.824 1.824 0 0 1-.668 2.491c-1.546.893-3.322-.74-2.562-2.356"/></svg>