<svg xmlns="http://www.w3.org/2000/svg" width="24" height="24" fill="none" viewBox="0 0 24 24"><path stroke="currentColor" stroke-linecap="round" stroke-linejoin="round" stroke-width="1.5" d="M2.75 10.25a2 2 0 0 1 2-2h4.167v13H4.75a2 2 0 0 1-2-2zm15.75 2h-3.417v9h4.167a2 2 0 0 0 2-2V13.5m-6.167-3v10.75H8.917V4.75a2 2 0 0 1 2-2H12"/><path fill="currentColor" d="M15.4 1.418a.64.64 0 0 1 1.2 0l.167.45a4 4 0 0 0 2.366 2.365l.449.166a.64.64 0 0 1 0 1.202l-.45.166a4 4 0 0 0-2.365 2.366l-.166.449a.64.64 0 0 1-1.202 0l-.166-.45a4 4 0 0 0-2.366-2.365l-.449-.166a.64.64 0 0 1 0-1.202l.45-.166a4 4 0 0 0 2.365-2.366zm4.725 5.843a.4.4 0 0 1 .75 0l.104.281a2.5 2.5 0 0 0 1.479 1.479l.28.103a.4.4 0 0 1 0 .752l-.28.103a2.5 2.5 0 0 0-1.479 1.479l-.104.28a.4.4 0 0 1-.75 0l-.104-.28a2.5 2.5 0 0 0-1.479-1.479l-.28-.103a.4.4 0 0 1 0-.752l.28-.103a2.5 2.5 0 0 0 1.479-1.479z"/></svg>