<svg xmlns="http://www.w3.org/2000/svg" width="24" height="24" fill="none" viewBox="0 0 24 24"><circle cx="12" cy="12" r="9.25" stroke="currentColor" stroke-linecap="round" stroke-linejoin="round" stroke-width="1.5"/><path stroke="currentColor" stroke-linecap="round" stroke-linejoin="round" stroke-width="1.5" d="M18.54 18.54s-1.852-4.79-5.415-8.227-8.823-3.445-8.823-3.445"/><path stroke="currentColor" stroke-linecap="round" stroke-linejoin="round" stroke-width="1.5" d="M13.912 13.912c2.241-2.242 4.86-3.613 7.113-3.927a9.24 9.24 0 0 1-2.484 8.555 9.24 9.24 0 0 1-8.557 2.486c.315-2.254 1.686-4.873 3.928-7.114M5.46 5.459a9.24 9.24 0 0 1 8.554-2.485c-.314 2.253-1.685 4.872-3.926 7.114S5.227 13.7 2.973 14.015A9.24 9.24 0 0 1 5.46 5.459"/></svg>