<svg xmlns="http://www.w3.org/2000/svg" width="24" height="24" fill="none" viewBox="0 0 24 24"><path stroke="currentColor" stroke-linecap="round" stroke-linejoin="round" stroke-width="1.5" d="M17.135 4.027c1.969 1.137 3.369 3.074 3.89 5.386a9.4 9.4 0 0 1 .005 4.066c-.361 1.67-2.311 2.182-3.791 1.328l-9.492-5.48c-1.48-.855-2.012-2.8-.746-3.948a9.4 9.4 0 0 1 3.523-2.03c2.263-.703 4.641-.46 6.61.678m0 0c-1.368-.79-4.554 2.17-7.118 6.61m7.118-6.61c1.367.789.397 5.028-2.167 9.469m-2.475-1.43-3.61 6.254m7.027 2.725a9.306 9.306 0 0 0-13.159 0"/></svg>