<svg xmlns="http://www.w3.org/2000/svg" width="24" height="24" fill="none" viewBox="0 0 24 24"><path stroke="currentColor" stroke-linecap="round" stroke-width="1.5" d="M10 21.25h4"/><path stroke="currentColor" stroke-linecap="round" stroke-linejoin="round" stroke-width="1.5" d="M17.188 18.25H4.826a1 1 0 0 1-.848-1.53l1.089-1.74a3 3 0 0 0 .457-1.59V9.226c0-.788.14-1.543.398-2.242M7.62 4.458l.06-.055a6.477 6.477 0 0 1 10.798 4.825v4.161a3 3 0 0 0 .457 1.592l1.088 1.74q.068.106.104.219"/><path stroke="currentColor" stroke-linecap="round" stroke-linejoin="round" stroke-width="1.5" d="m20.719 21.782-3.531-3.531L5.922 6.985 2.218 3.282"/></svg>