<svg xmlns="http://www.w3.org/2000/svg" width="24" height="24" fill="none" viewBox="0 0 24 24"><path stroke="currentColor" stroke-linecap="round" stroke-linejoin="round" stroke-width="1.5" d="m2.753 4.514.434 5.853a3.354 3.354 0 0 0 3.345 3.106h.702l-.51.291a5.94 5.94 0 0 0-2.447 2.677 2.655 2.655 0 0 0 .74 3.17l.972.787c1.226.994 3 1.236 4.085.089.92-.974 1.32-1.914 1.405-2.128q.018-.046.032-.093l.295-.924c.111-.347.176-.707.194-1.07.018.363.083.723.194 1.07l.295.924q.014.047.032.093c.084.214.486 1.154 1.405 2.128 1.084 1.147 2.859.906 4.085-.088l.971-.788a2.655 2.655 0 0 0 .741-3.17 5.94 5.94 0 0 0-2.447-2.676l-.51-.292h.702a3.354 3.354 0 0 0 3.345-3.106l.434-5.853c.101-1.363-1.373-2.25-2.5-1.477-1.726 1.18-3.77 2.698-4.565 3.754-1.41 1.872-2.117 3.559-2.182 3.719-.065-.16-.772-1.847-2.182-3.72-.795-1.055-2.84-2.573-4.564-3.754-1.128-.772-2.602.115-2.5 1.478"/></svg>