<svg xmlns="http://www.w3.org/2000/svg" width="24" height="24" fill="none" viewBox="0 0 24 24"><path stroke="currentColor" stroke-linecap="round" stroke-linejoin="round" stroke-width="1.5" d="M17.75 4H6.25a3.5 3.5 0 0 0-3.5 3.5v9a3.5 3.5 0 0 0 3.5 3.5h11.5a3.5 3.5 0 0 0 3.5-3.5v-9a3.5 3.5 0 0 0-3.5-3.5"/><path fill="currentColor" d="M17.1 6.95H6.9a1.2 1.2 0 0 0-1.2 1.2v.483a1.2 1.2 0 0 0 1.2 1.2h10.2a1.2 1.2 0 0 0 1.2-1.2V8.15a1.2 1.2 0 0 0-1.2-1.2m0 5.64h-2.9a1.2 1.2 0 0 0-1.2 1.2v2.06a1.2 1.2 0 0 0 1.2 1.2h2.9a1.2 1.2 0 0 0 1.2-1.2v-2.06a1.2 1.2 0 0 0-1.2-1.2m-8.1 0H6.9a1.2 1.2 0 0 0-1.2 1.2v2.06a1.2 1.2 0 0 0 1.2 1.2H9a1.2 1.2 0 0 0 1.2-1.2v-2.06a1.2 1.2 0 0 0-1.2-1.2"/></svg>