<svg xmlns="http://www.w3.org/2000/svg" width="24" height="24" fill="none" viewBox="0 0 24 24"><path stroke="currentColor" stroke-linejoin="round" stroke-width="1.5" d="M4.421 8.45v11.884c0 .763.88 1.19 1.48.718l4.883-3.843a.914.914 0 0 1 1.13 0l4.884 3.843a.914.914 0 0 0 1.48-.718V8.45a3.2 3.2 0 0 0-3.2-3.2H7.621a3.2 3.2 0 0 0-3.2 3.2Z"/><path fill="currentColor" fill-rule="evenodd" d="M7.421 3a1.5 1.5 0 0 1 1.5-1.5h7.357a5.75 5.75 0 0 1 5.75 5.75v8.584a1.5 1.5 0 0 1-1.5 1.5V7.25A4.25 4.25 0 0 0 16.278 3z" clip-rule="evenodd"/></svg>