<svg xmlns="http://www.w3.org/2000/svg" width="24" height="24" fill="none" viewBox="0 0 24 24"><path fill="currentColor" fill-rule="evenodd" d="M17.5 12a5.5 5.5 0 1 0 0-11 5.5 5.5 0 0 0 0 11m0-8.993a.5.5 0 0 1 .5.5V6h2.493a.5.5 0 1 1 0 1H18v2.493a.5.5 0 0 1-1 0V7h-2.493a.5.5 0 1 1 0-1H17V3.507a.5.5 0 0 1 .5-.5" clip-rule="evenodd"/><path stroke="currentColor" stroke-linecap="round" stroke-linejoin="round" stroke-width="1.5" d="M19.25 13.5v6.613a.644.644 0 0 1-.983.54l-5.702-3.48a1.09 1.09 0 0 0-1.13 0l-5.702 3.48a.644.644 0 0 1-.983-.54V6.25a3 3 0 0 1 3-3h3.31"/></svg>