<svg xmlns="http://www.w3.org/2000/svg" width="24" height="24" fill="none" viewBox="0 0 24 24"><path stroke="currentColor" stroke-linecap="round" stroke-linejoin="round" stroke-width="1.5" d="M4.5 16.25V5.75a3 3 0 0 1 3-3h11a1 1 0 0 1 1 1v12.5H7.375M4.5 16.245v2.38"/><path stroke="currentColor" stroke-linecap="round" stroke-linejoin="round" stroke-width="1.5" d="M18.5 21.25H7a2.5 2.5 0 0 1 0-5h12.5v4a1 1 0 0 1-1 1m-9.842-8 1.193-2.872m0 0h4.298m-4.298 0 1.83-4.4c.126-.304.513-.304.639 0l1.829 4.4m0 0 1.193 2.872"/></svg>