<svg width="24" height="24" viewBox="0 0 24 24" fill="none" xmlns="http://www.w3.org/2000/svg">
<path d="M4.42102 8.44961V20.3341C4.42102 21.0973 5.30091 21.5245 5.90061 21.0525L10.7841 17.2087C11.1158 16.9476 11.5832 16.9476 11.9149 17.2087L16.7984 21.0525C17.3981 21.5245 18.278 21.0973 18.278 20.3341V8.44961C18.278 6.68251 16.8455 5.25 15.0784 5.25H7.62063C5.85353 5.25 4.42102 6.68251 4.42102 8.44961Z" stroke="currentColor" stroke-width="1.5" stroke-linejoin="round"/>
<path fill-rule="evenodd" clip-rule="evenodd" d="M7.42102 3C7.42102 2.17157 8.09259 1.5 8.92102 1.5H16.278C19.4536 1.5 22.028 4.07436 22.028 7.25V15.8341C22.028 16.6626 21.3564 17.3341 20.528 17.3341V7.25C20.528 4.90279 18.6252 3 16.278 3H7.42102Z" fill="currentColor"/>
</svg>
