<svg xmlns="http://www.w3.org/2000/svg" width="24" height="24" fill="none" viewBox="0 0 24 24"><path fill="currentColor" fill-rule="evenodd" d="M17.5 12a5.5 5.5 0 1 0 0-11 5.5 5.5 0 0 0 0 11m0-8.993a.5.5 0 0 1 .5.5V6h2.493a.5.5 0 1 1 0 1H18v2.493a.5.5 0 0 1-1 0V7h-2.493a.5.5 0 1 1 0-1H17V3.507a.5.5 0 0 1 .5-.5" clip-rule="evenodd"/><path stroke="currentColor" stroke-linecap="round" stroke-linejoin="round" stroke-width="1.5" d="M10.25 3.25H7.921a3.5 3.5 0 0 0-3.5 3.5v13a1 1 0 0 0 1.619.786l5.342-4.205a1 1 0 0 1 1.236 0l5.342 4.205a1 1 0 0 0 1.619-.786v-6"/></svg>