<svg xmlns="http://www.w3.org/2000/svg" width="24" height="24" fill="none" viewBox="0 0 24 24"><path stroke="currentColor" stroke-linejoin="round" stroke-width="1.5" d="m12 12 8.073-4.625M12 12v9.25M12 12 7.963 9.688m12.11-2.313a3.17 3.17 0 0 0-1.165-1.156L16.25 4.696m3.823 2.679c.275.472.427 1.015.427 1.58v6.09a3.15 3.15 0 0 1-1.592 2.736l-5.316 3.046A3.2 3.2 0 0 1 12 21.25M3.926 7.375a3.14 3.14 0 0 0-.426 1.58v6.09c0 1.13.607 2.172 1.592 2.736l5.316 3.046A3.2 3.2 0 0 0 12 21.25M3.926 7.375a3.17 3.17 0 0 1 1.166-1.156l5.316-3.046a3.2 3.2 0 0 1 3.184 0l2.658 1.523M3.926 7.375l4.037 2.313m0 0 8.287-4.992"/></svg>