<svg xmlns="http://www.w3.org/2000/svg" width="24" height="24" fill="none" viewBox="0 0 24 24"><path stroke="currentColor" stroke-linejoin="round" stroke-width="1.5" d="m7.687 9.687 2.66 1.426A3.5 3.5 0 0 0 12 11.53M7.687 9.687 3.884 7.65m3.803 2.038 8.496-4.555.128-.07M3.884 7.648a3.5 3.5 0 0 0-.51 1.82v5.061a3.5 3.5 0 0 0 1.845 3.085l5.127 2.748A3.5 3.5 0 0 0 12 20.78M3.884 7.649a3.5 3.5 0 0 1 1.335-1.264l5.127-2.748a3.5 3.5 0 0 1 3.308 0L16.31 5.06M12 11.53a3.5 3.5 0 0 0 1.654-.416l6.462-3.464M12 11.529v9.25m0 0a3.5 3.5 0 0 0 1.654-.416l5.127-2.748a3.5 3.5 0 0 0 1.846-3.085V9.47a3.5 3.5 0 0 0-.511-1.821m0 0a3.5 3.5 0 0 0-1.335-1.264l-2.47-1.324"/></svg>