<svg width="24" height="24" viewBox="0 0 24 24" fill="none" xmlns="http://www.w3.org/2000/svg">
<path d="M8 20.25C6.89543 20.25 6 19.3546 6 18.25V15.9069C6 14.846 5.57857 13.8286 4.82843 13.0784L3.75 12L4.82843 10.9216C5.57857 10.1714 6 9.15401 6 8.09315V5.75C6 4.64543 6.89543 3.75 8 3.75" stroke="currentColor" stroke-width="1.5" stroke-linecap="round" stroke-linejoin="round"/>
<path d="M16 20.25C17.1046 20.25 18 19.3546 18 18.25V15.9069C18 14.846 18.4214 13.8286 19.1716 13.0784L20.25 12L19.1716 10.9216C18.4214 10.1714 18 9.15401 18 8.09315V5.75C18 4.64543 17.1046 3.75 16 3.75" stroke="currentColor" stroke-width="1.5" stroke-linecap="round" stroke-linejoin="round"/>
</svg>
