<svg xmlns="http://www.w3.org/2000/svg" width="24" height="24" fill="none" viewBox="0 0 24 24"><path fill="currentColor" d="M5 15.75h.75a.75.75 0 0 0-.396-.662zm0-7.501.353.662a.75.75 0 0 0 .397-.662zM8.5 2.75v.75a2.75 2.75 0 0 1 2.75 2.75h1.5A4.25 4.25 0 0 0 8.5 2zm3.5 3.5h-.75v11.5h1.5V6.25zm0 11.5h-.75A2.75 2.75 0 0 1 8.5 20.5V22a4.25 4.25 0 0 0 4.25-4.25zm-3.5 3.5v-.75a2.75 2.75 0 0 1-2.75-2.75h-1.5A4.25 4.25 0 0 0 8.5 22zM5 17.75h.75v-2h-1.5v2zm0-2 .354-.662A3.5 3.5 0 0 1 3.5 12H2a5 5 0 0 0 2.646 4.412zM2.75 12h.75a3.5 3.5 0 0 1 1.853-3.09L5 8.25l-.353-.661A5 5 0 0 0 2 12zM5 8.249h.75V6.25h-1.5v1.999zM5 6.25h.75A2.75 2.75 0 0 1 8.5 3.5V2a4.25 4.25 0 0 0-4.25 4.25z"/><path stroke="currentColor" stroke-linecap="round" stroke-linejoin="round" stroke-width="1.5" d="M8.952 15.775a4.25 4.25 0 1 1-1.736-8.02M12 15a4 4 0 0 0-4-4m4 4a4 4 0 0 1 4-4"/><path fill="currentColor" d="M19 15.75h-.75a.75.75 0 0 1 .396-.662zm0-7.501-.353.662a.75.75 0 0 1-.397-.662zM15.5 2.75v.75a2.75 2.75 0 0 0-2.75 2.75h-1.5A4.25 4.25 0 0 1 15.5 2zM12 6.25h.75v11.5h-1.5V6.25zm0 11.5h.75a2.75 2.75 0 0 0 2.75 2.75V22a4.25 4.25 0 0 1-4.25-4.25zm3.5 3.5v-.75a2.75 2.75 0 0 0 2.75-2.75h1.5A4.25 4.25 0 0 1 15.5 22zm3.5-3.5h-.75v-2h1.5v2zm0-2-.354-.662A3.5 3.5 0 0 0 20.5 12H22a5 5 0 0 1-2.646 4.412zM21.25 12h-.75a3.5 3.5 0 0 0-1.853-3.09L19 8.25l.353-.661A5 5 0 0 1 22 12zM19 8.249h-.75V6.25h1.5v1.999zm0-1.999h-.75A2.75 2.75 0 0 0 15.5 3.5V2a4.25 4.25 0 0 1 4.25 4.25z"/><path stroke="currentColor" stroke-linecap="round" stroke-linejoin="round" stroke-width="1.5" d="M15.048 15.775a4.25 4.25 0 1 0 1.736-8.02"/></svg>