<svg xmlns="http://www.w3.org/2000/svg" width="24" height="24" fill="none" viewBox="0 0 24 24"><path stroke="currentColor" stroke-linecap="round" stroke-linejoin="round" stroke-width="1.5" d="M8.25 5.5a2.75 2.75 0 1 1-5.5 0 2.75 2.75 0 0 1 5.5 0m13 13a2.75 2.75 0 1 1-5.5 0 2.75 2.75 0 0 1 5.5 0"/><path stroke="currentColor" stroke-linecap="round" stroke-linejoin="round" stroke-width="1.5" d="M5.5 8.25v7.25a3 3 0 0 0 3 3h3.75"/><path stroke="currentColor" stroke-linecap="round" stroke-linejoin="round" stroke-width="1.5" d="m10.75 16 1.793 1.793a1 1 0 0 1 0 1.414L10.75 21m7.75-5.25V8.5a3 3 0 0 0-3-3h-3.75"/><path stroke="currentColor" stroke-linecap="round" stroke-linejoin="round" stroke-width="1.5" d="m13.25 8-1.793-1.793a1 1 0 0 1 0-1.414L13.25 3"/></svg>