<svg width="24" height="24" viewBox="0 0 24 24" fill="none" xmlns="http://www.w3.org/2000/svg">
<path d="M8.25 5.5C8.25 7.01878 7.01878 8.25 5.5 8.25C3.98122 8.25 2.75 7.01878 2.75 5.5C2.75 3.98122 3.98122 2.75 5.5 2.75C7.01878 2.75 8.25 3.98122 8.25 5.5Z" stroke="#212325" stroke-width="1.5" stroke-linecap="round" stroke-linejoin="round"/>
<path d="M21.25 18.5C21.25 20.0188 20.0188 21.25 18.5 21.25C16.9812 21.25 15.75 20.0188 15.75 18.5C15.75 16.9812 16.9812 15.75 18.5 15.75C20.0188 15.75 21.25 16.9812 21.25 18.5Z" stroke="#212325" stroke-width="1.5" stroke-linecap="round" stroke-linejoin="round"/>
<path d="M5.5 8.25V15.5C5.5 17.1569 6.84315 18.5 8.5 18.5H12.25" stroke="#212325" stroke-width="1.5" stroke-linecap="round" stroke-linejoin="round"/>
<path d="M10.75 16L12.5429 17.7929C12.9334 18.1834 12.9334 18.8166 12.5429 19.2071L10.75 21" stroke="#212325" stroke-width="1.5" stroke-linecap="round" stroke-linejoin="round"/>
<path d="M18.5 15.75L18.5 8.5C18.5 6.84315 17.1569 5.5 15.5 5.5L11.75 5.5" stroke="#212325" stroke-width="1.5" stroke-linecap="round" stroke-linejoin="round"/>
<path d="M13.25 8L11.4571 6.20711C11.0666 5.81658 11.0666 5.18342 11.4571 4.79289L13.25 3" stroke="#212325" stroke-width="1.5" stroke-linecap="round" stroke-linejoin="round"/>
</svg>
