<svg width="24" height="24" viewBox="0 0 24 24" fill="none" xmlns="http://www.w3.org/2000/svg">
<path d="M7 8.25C8.51878 8.25 9.75 7.01878 9.75 5.5C9.75 3.98122 8.51878 2.75 7 2.75C5.48122 2.75 4.25 3.98122 4.25 5.5C4.25 7.01878 5.48122 8.25 7 8.25ZM7 8.25V15.75M7 8.25L7.32132 8.81614C8.77286 11.3736 11.3358 13.1062 14.25 13.5V13.5M7 15.75C5.48122 15.75 4.25 16.9812 4.25 18.5C4.25 20.0188 5.48122 21.25 7 21.25C8.51878 21.25 9.75 20.0188 9.75 18.5C9.75 16.9812 8.51878 15.75 7 15.75ZM14.25 13.5C14.25 15.0188 15.4812 16.25 17 16.25C18.5188 16.25 19.75 15.0188 19.75 13.5C19.75 11.9812 18.5188 10.75 17 10.75C15.4812 10.75 14.25 11.9812 14.25 13.5Z" stroke="#212325" stroke-width="1.5" stroke-linecap="round" stroke-linejoin="round"/>
</svg>
