<svg xmlns="http://www.w3.org/2000/svg" width="24" height="24" fill="none" viewBox="0 0 24 24"><path stroke="currentColor" stroke-linecap="round" stroke-linejoin="round" stroke-width="1.5" d="M3.75 9.894a2.5 2.5 0 0 1 2.5-2.5h11.5a2.5 2.5 0 0 1 2.5 2.5V17.5a2.5 2.5 0 0 1-2.5 2.5H6.25a2.5 2.5 0 0 1-2.5-2.5z"/><path stroke="currentColor" stroke-linecap="round" stroke-linejoin="round" stroke-width="1.5" d="M17.75 7.394H6.25a2.5 2.5 0 0 0-2.5 2.5v.303a3 3 0 0 0 3 3h10.5a3 3 0 0 0 3-3v-.303a2.5 2.5 0 0 0-2.5-2.5M8.603 5.5a1.5 1.5 0 0 1 1.5-1.5h3.794a1.5 1.5 0 0 1 1.5 1.5v1.894H8.603z"/></svg>