<svg width="24" height="24" viewBox="0 0 24 24" fill="none" xmlns="http://www.w3.org/2000/svg">
<path d="M3.75 9.89392C3.75 8.51321 4.86929 7.39392 6.25 7.39392H17.75C19.1307 7.39392 20.25 8.51321 20.25 9.89392V13.1973V17.5C20.25 18.8807 19.1307 20 17.75 20H6.25C4.86929 20 3.75 18.8807 3.75 17.5V13.1973V9.89392Z" stroke="currentColor" stroke-width="1.5" stroke-linecap="round" stroke-linejoin="round"/>
<path d="M17.75 7.39392H6.25C4.86929 7.39392 3.75 8.51321 3.75 9.89392V10.1973C3.75 11.8542 5.09315 13.1973 6.75 13.1973H17.25C18.9069 13.1973 20.25 11.8542 20.25 10.1973V9.89392C20.25 8.51321 19.1307 7.39392 17.75 7.39392Z" stroke="currentColor" stroke-width="1.5" stroke-linecap="round" stroke-linejoin="round"/>
<path d="M8.60291 5.5C8.60291 4.67157 9.27448 4 10.1029 4H13.897C14.7254 4 15.397 4.67157 15.397 5.5V7.39394H8.60291V5.5Z" stroke="currentColor" stroke-width="1.5" stroke-linecap="round" stroke-linejoin="round"/>
</svg>
