<svg xmlns="http://www.w3.org/2000/svg" width="24" height="24" fill="none" viewBox="0 0 24 24"><path stroke="currentColor" stroke-linecap="round" stroke-linejoin="round" stroke-width="1.5" d="M16.5 10.438V9.08a3.23 3.23 0 0 0-3.23-3.231h-2.54A3.23 3.23 0 0 0 7.5 9.08v6.27a4.5 4.5 0 0 0 3.23 4.319M2.75 12.85H7.5"/><path stroke="currentColor" stroke-linecap="round" stroke-linejoin="round" stroke-width="1.5" d="M9.75 3.15v.45A2.25 2.25 0 0 0 12 5.85v0a2.25 2.25 0 0 0 2.25-2.25v-.45M7.5 16.6H6.247a2.5 2.5 0 0 0-2.5 2.5v1.75M16.5 9.1h1.253a2.5 2.5 0 0 0 2.5-2.5V4.85M7.5 9.1H6.247a2.5 2.5 0 0 1-2.5-2.5V4.85"/><path fill="currentColor" d="M17.5 12a5.5 5.5 0 1 1 0 11 5.5 5.5 0 0 1 0-11m0 2a.5.5 0 0 0-.501.501v2.498h-2.498a.501.501 0 1 0 0 1.002h2.498v2.498a.501.501 0 0 0 1.002 0v-2.498h2.498l.1-.01a.502.502 0 0 0 0-.982l-.1-.01h-2.498v-2.498a.5.5 0 0 0-.501-.5"/></svg>