<svg xmlns="http://www.w3.org/2000/svg" width="24" height="24" fill="none" viewBox="0 0 24 24"><path stroke="currentColor" stroke-linecap="round" stroke-linejoin="round" stroke-width="1.5" d="M12 19.85a4.5 4.5 0 0 1-4.5-4.5V9.08a3.23 3.23 0 0 1 3.23-3.23h2.54a3.23 3.23 0 0 1 3.23 3.23v1.326M2.75 12.85H7.5m2.25-9.7v.45A2.25 2.25 0 0 0 12 5.85v0a2.25 2.25 0 0 0 2.25-2.25v-.45M7.5 16.6H6.247a2.5 2.5 0 0 0-2.5 2.5v1.75M16.5 9.1h1.253a2.5 2.5 0 0 0 2.5-2.5V4.85M7.5 9.1H6.247a2.5 2.5 0 0 1-2.5-2.5V4.85"/><path stroke="currentColor" stroke-linejoin="round" stroke-width="1.5" d="M14.496 13.978c0-.89.982-1.428 1.731-.95l4.505 2.872a1.126 1.126 0 0 1 0 1.9l-4.505 2.872a1.126 1.126 0 0 1-1.731-.95z"/></svg>