<svg xmlns="http://www.w3.org/2000/svg" width="24" height="24" fill="none" viewBox="0 0 24 24"><path stroke="currentColor" stroke-linecap="round" stroke-linejoin="round" stroke-width="1.5" d="M7.5 9.08a3.23 3.23 0 0 1 3.23-3.23h2.54a3.23 3.23 0 0 1 3.23 3.23v6.27a4.5 4.5 0 0 1-4.5 4.5v0a4.5 4.5 0 0 1-4.5-4.5zm9 3.77h4.75m-18.5 0H7.5m2.25-9.7v.45A2.25 2.25 0 0 0 12 5.85v0a2.25 2.25 0 0 0 2.25-2.25v-.45M16.5 16.6h1.253a2.5 2.5 0 0 1 2.5 2.5v1.75M7.5 16.6H6.247a2.5 2.5 0 0 0-2.5 2.5v1.75M16.5 9.1h1.253a2.5 2.5 0 0 0 2.5-2.5V4.85M7.5 9.1H6.247a2.5 2.5 0 0 1-2.5-2.5V4.85"/></svg>