<svg xmlns="http://www.w3.org/2000/svg" width="24" height="24" fill="none" viewBox="0 0 24 24"><path stroke="currentColor" stroke-linecap="round" stroke-linejoin="round" stroke-width="1.5" d="M14.75 5a1.5 1.5 0 0 0-1.5-1.5H9.288a1 1 0 0 0-1 1v1H4.75a2 2 0 0 0-2 2v11a2 2 0 0 0 2 2h10zm0 3.5h4.5a2 2 0 0 1 2 2v8a2 2 0 0 1-2 2h-4.5zm0 4h2.5m-2.5 4h2.5"/><circle cx="6.75" cy="9.5" r="1" fill="currentColor"/><circle cx="6.75" cy="13" r="1" fill="currentColor"/><circle cx="6.75" cy="16.5" r="1" fill="currentColor"/><circle cx="10.75" cy="9.5" r="1" fill="currentColor"/><circle cx="10.75" cy="13" r="1" fill="currentColor"/><circle cx="10.75" cy="16.5" r="1" fill="currentColor"/></svg>