<svg width="24" height="24" viewBox="0 0 24 24" fill="none" xmlns="http://www.w3.org/2000/svg">
<path d="M14.75 5C14.75 4.17157 14.0784 3.5 13.25 3.5H9.28846C8.73618 3.5 8.28846 3.94772 8.28846 4.5V5.5H4.75C3.64543 5.5 2.75 6.39543 2.75 7.5V18.5C2.75 19.6046 3.64543 20.5 4.75 20.5H14.75V5Z" stroke="currentColor" stroke-width="1.5" stroke-linecap="round" stroke-linejoin="round"/>
<path d="M14.75 8.5H19.25C20.3546 8.5 21.25 9.39543 21.25 10.5V18.5C21.25 19.6046 20.3546 20.5 19.25 20.5H14.75V8.5Z" stroke="currentColor" stroke-width="1.5" stroke-linecap="round" stroke-linejoin="round"/>
<path d="M14.75 12.5H17.25" stroke="currentColor" stroke-width="1.5" stroke-linecap="round" stroke-linejoin="round"/>
<path d="M14.75 16.5H17.25" stroke="currentColor" stroke-width="1.5" stroke-linecap="round" stroke-linejoin="round"/>
<circle cx="6.75" cy="9.5" r="1" fill="currentColor"/>
<circle cx="6.75" cy="13" r="1" fill="currentColor"/>
<circle cx="6.75" cy="16.5" r="1" fill="currentColor"/>
<circle cx="10.75" cy="9.5" r="1" fill="currentColor"/>
<circle cx="10.75" cy="13" r="1" fill="currentColor"/>
<circle cx="10.75" cy="16.5" r="1" fill="currentColor"/>
</svg>
