<svg xmlns="http://www.w3.org/2000/svg" width="24" height="24" fill="none" viewBox="0 0 24 24"><path stroke="currentColor" stroke-linecap="round" stroke-linejoin="round" stroke-width="1.5" d="M19.16 2.75v1.049c0 1.187 0 1.78-.231 2.233a2.12 2.12 0 0 1-.926.927c-.454.23-1.047.23-2.234.23h-.423M4.84 2.75v1.049c0 1.187 0 1.78.231 2.233.203.4.528.724.926.927.454.23 1.047.23 2.234.23h.423m0 0L6.319 11.47c-.367.673-.55 1.01-.61 1.362a2.1 2.1 0 0 0 .054.935c.1.344.32.657.762 1.283l2.704 3.83c.934 1.323 1.4 1.983 1.98 2.217a2.12 2.12 0 0 0 1.582 0c.58-.234 1.047-.894 1.98-2.216l2.704-3.83c.442-.627.662-.94.761-1.284a2.1 2.1 0 0 0 .055-.935c-.06-.352-.243-.689-.61-1.362l-2.335-4.28m-6.692 0h6.692M12 13.325v7.522"/><circle cx="12" cy="13.325" r="1.673" fill="currentColor"/></svg>