<svg xmlns="http://www.w3.org/2000/svg" width="24" height="24" fill="none" viewBox="0 0 24 24"><path stroke="currentColor" stroke-linecap="round" stroke-linejoin="round" stroke-width="1.5" d="M7.583 3.336a2 2 0 0 1 1.414-.586h6.006a2 2 0 0 1 1.414.586l4.247 4.247a2 2 0 0 1 .586 1.414v6.006a2 2 0 0 1-.586 1.414l-4.247 4.247a2 2 0 0 1-1.414.586H8.997a2 2 0 0 1-1.414-.586l-4.247-4.247a2 2 0 0 1-.586-1.414V8.997a2 2 0 0 1 .586-1.414z"/><path stroke="currentColor" stroke-linecap="round" stroke-width="1.5" d="m8.75 8.75 6.5 6.5m0-6.5-6.5 6.5"/></svg>