<svg xmlns="http://www.w3.org/2000/svg" width="24" height="24" fill="none" viewBox="0 0 24 24"><path stroke="currentColor" stroke-linecap="round" stroke-linejoin="round" stroke-width="1.5" d="M9.02 7.53 7.53 9.02A5.269 5.269 0 0 0 14 17.243M9.02 7.53q.294-.295.62-.533m-.62.532.62-.532m0 0q.177-.128.36-.24m0 11.106V6.757m0 0a5.28 5.28 0 0 1 4.288-.54 5.268 5.268 0 0 1 2.183 8.764l-1.49 1.49a5.3 5.3 0 0 1-.981.772m0-11.106v11.106"/><path stroke="currentColor" stroke-linecap="round" stroke-linejoin="round" stroke-width="1.5" d="M16.47 7.53a3.16 3.16 0 0 1 0-4.471 1.053 1.053 0 0 1 1.486-.005l2.99 2.99a1.053 1.053 0 0 1-.005 1.486 3.16 3.16 0 0 1-4.47 0M7.53 16.47a3.16 3.16 0 0 0-4.471 0 1.053 1.053 0 0 0-.005 1.486l2.99 2.99a1.053 1.053 0 0 0 1.486-.005 3.16 3.16 0 0 0 0-4.47"/></svg>