<svg width="24" height="24" viewBox="0 0 24 24" fill="none" xmlns="http://www.w3.org/2000/svg">
<path d="M12 21.25C17.1086 21.25 21.25 17.1086 21.25 12C21.25 6.89137 17.1086 2.75 12 2.75C6.89137 2.75 2.75 6.89137 2.75 12C2.75 13.4618 3.08908 14.8444 3.69287 16.0734C3.80054 16.2926 3.83661 16.5414 3.7817 16.7793L2.96587 20.3146C2.86616 20.7466 3.25337 21.1338 3.68542 21.0341L7.2207 20.2183C7.45864 20.1634 7.70745 20.1995 7.92662 20.3071C9.15564 20.9109 10.5382 21.25 12 21.25Z" stroke="currentColor" stroke-width="1.5" stroke-linecap="round" stroke-linejoin="round"/>
<path d="M7.96964 9.88571H16.0304" stroke="currentColor" stroke-width="1.5" stroke-linecap="round" stroke-linejoin="round"/>
<path d="M7.96964 14.1143H13.7179" stroke="currentColor" stroke-width="1.5" stroke-linecap="round" stroke-linejoin="round"/>
</svg>
