<svg xmlns="http://www.w3.org/2000/svg" width="24" height="24" fill="none" viewBox="0 0 24 24"><path stroke="currentColor" stroke-linecap="round" stroke-linejoin="round" stroke-width="1.5" d="M7.072 4.069a2.17 2.17 0 0 1 2.804-1.162l1.315.529c.52.208 1.099.208 1.618 0l1.315-.529a2.17 2.17 0 0 1 2.804 1.162l.556 1.303c.22.515.63.925 1.144 1.144l1.303.556a2.17 2.17 0 0 1 1.162 2.804l-.529 1.315a2.17 2.17 0 0 0 0 1.618l.529 1.315a2.17 2.17 0 0 1-1.162 2.804l-1.303.556a2.17 2.17 0 0 0-1.144 1.144l-.556 1.303a2.17 2.17 0 0 1-2.804 1.162l-1.315-.529a2.17 2.17 0 0 0-1.618 0l-1.315.529a2.17 2.17 0 0 1-2.804-1.162l-.556-1.303a2.17 2.17 0 0 0-1.144-1.144l-1.303-.556a2.17 2.17 0 0 1-1.162-2.804l.529-1.315a2.17 2.17 0 0 0 0-1.618l-.529-1.315A2.17 2.17 0 0 1 4.07 7.072l1.303-.556a2.17 2.17 0 0 0 1.144-1.144z"/><path stroke="currentColor" stroke-linecap="round" stroke-linejoin="round" stroke-width="1.5" d="m15.899 9.5-5 5-2.797-2.793"/></svg>