<svg xmlns="http://www.w3.org/2000/svg" width="24" height="24" fill="none" viewBox="0 0 24 24"><path stroke="currentColor" stroke-linecap="round" stroke-linejoin="round" stroke-width="1.5" d="M21.25 10.392c-.366-1.539-1.713-3.411-2.791-4.489a9.53 9.53 0 0 0-4.816-2.594c-1.21-.25-2.404.314-3.251 1.214l-6.727 7.139a3.4 3.4 0 0 0-.623.936m18.208-2.206v3.475m0-3.475-5.326.645m-12.882 1.56a3.4 3.4 0 0 0-.292 1.37v4.541a2.242 2.242 0 0 0 2.512 2.225l1.672-.202m-3.892-7.933 7.048-.854m1.7 8.199a2.803 2.803 0 1 0-4.856.588m4.856-.588-4.856.588m4.856-.588 5.15-.624m0 0 2.337-.284a2.24 2.24 0 0 0 1.973-2.224v-2.944m-4.31 5.452a5 5 0 0 1-.096-.547c-.303-2.473 1.175-4.69 3.303-4.95a3.4 3.4 0 0 1 1.103.045m-5.326-2.83q.014-.165-.007-.33c-.163-1.331-1.976-2.204-3.244-2.049S9.857 10.1 10.02 11.432q.02.16.07.312m5.834-.707c-.098 1.208-1.496 2.301-2.66 2.444s-2.792-.584-3.174-1.737"/></svg>