<svg width="24" height="24" viewBox="0 0 24 24" fill="none" xmlns="http://www.w3.org/2000/svg">
<path d="M8.67021 19.6702C10.2533 18.0871 10.2533 15.5204 8.67021 13.9373C7.08711 12.3542 4.52041 12.3542 2.93732 13.9373C1.35423 15.5204 1.35423 18.0871 2.93732 19.6702C4.52041 21.2533 7.08711 21.2533 8.67021 19.6702ZM8.67021 19.6702L11.25 22.25" stroke="currentColor" stroke-width="1.5" stroke-linecap="round" stroke-linejoin="round"/>
<path d="M3.87122 10.25V8.13182C3.87122 6.24801 3.87122 5.3061 4.23783 4.58658C4.56031 3.95367 5.07488 3.4391 5.70779 3.11661C6.42731 2.75 7.36922 2.75 9.25303 2.75H14.747C16.6308 2.75 17.5727 2.75 18.2922 3.11661C18.9251 3.4391 19.4397 3.95367 19.7622 4.58658C20.1288 5.3061 20.1288 6.24801 20.1288 8.13182V15.8682C20.1288 17.752 20.1288 18.6939 19.7622 19.4134C19.4397 20.0463 18.9251 20.5609 18.2922 20.8834C17.5727 21.25 16.6308 21.25 14.747 21.25H13.75M15.8997 2.75H8.10026C8.09169 2.75 8.0874 2.75 8.08412 2.7518C8.08124 2.75339 8.0789 2.75591 8.07743 2.75902C8.07576 2.76256 8.07576 2.76718 8.07576 2.77644V3.98333C8.07576 4.92524 8.07576 5.39619 8.25907 5.75595C8.42031 6.07241 8.6776 6.32969 8.99405 6.49094C9.35381 6.67424 9.82476 6.67424 10.7667 6.67424H13.2333C14.1752 6.67424 14.6462 6.67424 15.006 6.49094C15.3224 6.32969 15.5797 6.07241 15.7409 5.75595C15.9242 5.39619 15.9242 4.92524 15.9242 3.98333V2.77644C15.9242 2.76718 15.9242 2.76256 15.9226 2.75902C15.9211 2.75591 15.9188 2.75339 15.9159 2.7518C15.9126 2.75 15.9083 2.75 15.8997 2.75Z" stroke="currentColor" stroke-width="1.5" stroke-linecap="round" stroke-linejoin="round"/>
</svg>
