<svg width="24" height="24" viewBox="0 0 24 24" fill="none" xmlns="http://www.w3.org/2000/svg">
<path d="M14.25 21.25H17.25C19.183 21.25 20.75 19.683 20.75 17.75V6.25C20.75 4.317 19.183 2.75 17.25 2.75H7.75C5.817 2.75 4.25 4.317 4.25 6.25V10.25" stroke="currentColor" stroke-width="1.5" stroke-linecap="round"/>
<path d="M8.75 2.75H16.25V5.25C16.25 6.35457 15.3546 7.25 14.25 7.25H10.75C9.64543 7.25 8.75 6.35457 8.75 5.25V2.75Z" stroke="currentColor" stroke-width="1.5"/>
<path d="M9.17021 19.6702C10.7533 18.0871 10.7533 15.5204 9.17021 13.9373C7.58711 12.3542 5.02041 12.3542 3.43732 13.9373C1.85423 15.5204 1.85423 18.0871 3.43732 19.6702C5.02041 21.2533 7.58711 21.2533 9.17021 19.6702ZM9.17021 19.6702L11.75 22.25" stroke="currentColor" stroke-width="1.5" stroke-linecap="round" stroke-linejoin="round"/>
</svg>
