<svg width="24" height="24" viewBox="0 0 24 24" fill="none" xmlns="http://www.w3.org/2000/svg">
<path d="M9.75 21.25H6.75C4.817 21.25 3.25 19.683 3.25 17.75V6.25C3.25 4.317 4.817 2.75 6.75 2.75H16.25C18.183 2.75 19.75 4.317 19.75 6.25V8.25" stroke="currentColor" stroke-width="1.5" stroke-linecap="round"/>
<path d="M7.75 2.75H15.25V5.25C15.25 6.35457 14.3546 7.25 13.25 7.25H9.75C8.64543 7.25 7.75 6.35457 7.75 5.25V2.75Z" stroke="currentColor" stroke-width="1.5"/>
<path d="M12.25 13.25C12.25 11.8693 13.3693 10.75 14.75 10.75H18.25C19.6307 10.75 20.75 11.8693 20.75 13.25V18.75C20.75 20.1307 19.6307 21.25 18.25 21.25H14.75C13.3693 21.25 12.25 20.1307 12.25 18.75V13.25Z" stroke="currentColor" stroke-width="1.5" stroke-linecap="round" stroke-linejoin="round"/>
</svg>
