<svg xmlns="http://www.w3.org/2000/svg" width="24" height="24" fill="none" viewBox="0 0 24 24"><path stroke="currentColor" stroke-linecap="round" stroke-width="1.5" d="M9.75 21.25h-3a3.5 3.5 0 0 1-3.5-3.5V6.25a3.5 3.5 0 0 1 3.5-3.5h9.5a3.5 3.5 0 0 1 3.5 3.5v2"/><path stroke="currentColor" stroke-width="1.5" d="M7.75 2.75h7.5v2.5a2 2 0 0 1-2 2h-3.5a2 2 0 0 1-2-2z"/><path stroke="currentColor" stroke-linecap="round" stroke-linejoin="round" stroke-width="1.5" d="M12.25 13.25a2.5 2.5 0 0 1 2.5-2.5h3.5a2.5 2.5 0 0 1 2.5 2.5v5.5a2.5 2.5 0 0 1-2.5 2.5h-3.5a2.5 2.5 0 0 1-2.5-2.5z"/></svg>