<svg width="24" height="24" viewBox="0 0 24 24" fill="none" xmlns="http://www.w3.org/2000/svg">
<path d="M9.24879 21.25H8.13302C6.24921 21.25 5.3073 21.25 4.58778 20.8834C3.95487 20.5609 3.4403 20.0463 3.11782 19.4134C2.75121 18.6939 2.75121 17.752 2.75121 15.8682V8.13182C2.75121 6.24801 2.75121 5.3061 3.11782 4.58658C3.4403 3.95367 3.95487 3.4391 4.58778 3.11661C5.3073 2.75 6.24921 2.75 8.13302 2.75H13.627C15.5108 2.75 16.4527 2.75 17.1722 3.11661C17.8051 3.4391 18.3197 3.95367 18.6422 4.58658C18.8833 5.05989 18.9659 5.62942 18.9941 6.5C18.9992 6.65654 19.0025 6.57281 19.0047 6.75L19 7.75M14.7797 2.75H6.98025C6.97168 2.75 6.96739 2.75 6.96411 2.7518C6.96123 2.75339 6.95889 2.75591 6.95742 2.75902C6.95575 2.76256 6.95575 2.76718 6.95575 2.77644V3.98333C6.95575 4.92524 6.95575 5.39619 7.13906 5.75595C7.3003 6.07241 7.55759 6.32969 7.87404 6.49094C8.17916 6.6464 8.56425 6.67001 9.24879 6.6736C9.37139 6.67424 9.50359 6.67424 9.64666 6.67424H12.1133C13.0552 6.67424 13.5262 6.67424 13.8859 6.49094C14.2024 6.32969 14.4597 6.07241 14.6209 5.75595C14.8042 5.39619 14.8042 4.92524 14.8042 3.98333V2.77644C14.8042 2.76718 14.8042 2.76256 14.8026 2.75902C14.8011 2.75591 14.7988 2.75339 14.7959 2.7518C14.7926 2.75 14.7883 2.75 14.7797 2.75Z" stroke="#212325" stroke-width="1.5" stroke-linecap="round" stroke-linejoin="round"/>
<path d="M11.7488 12.75C11.7488 11.3693 12.8681 10.25 14.2488 10.25H18.7488C20.1295 10.25 21.2488 11.3693 21.2488 12.75V18.75C21.2488 20.1307 20.1295 21.25 18.7488 21.25H14.2488C12.8681 21.25 11.7488 20.1307 11.7488 18.75V12.75Z" stroke="#212325" stroke-width="1.5" stroke-linecap="round" stroke-linejoin="round"/>
</svg>
