<svg width="24" height="24" viewBox="0 0 24 24" fill="none" xmlns="http://www.w3.org/2000/svg">
<path d="M20.1288 15.8682V8.13182C20.1288 6.24801 20.1288 5.3061 19.7622 4.58658C19.4397 3.95367 18.9251 3.4391 18.2922 3.11661C17.5727 2.75 16.6308 2.75 14.747 2.75H9.25303C7.36922 2.75 6.42731 2.75 5.70779 3.11661C5.07488 3.4391 4.56031 3.95367 4.23783 4.58658C3.87122 5.3061 3.87122 6.24801 3.87122 8.13182V15.8682C3.87122 17.752 3.87122 18.6939 4.23783 19.4134C4.56031 20.0463 5.07488 20.5609 5.70779 20.8834C6.42731 21.25 7.36922 21.25 9.25303 21.25H14.747C16.6308 21.25 17.5727 21.25 18.2922 20.8834C18.9251 20.5609 19.4397 20.0463 19.7622 19.4134C20.1288 18.6939 20.1288 17.752 20.1288 15.8682Z" stroke="currentColor" stroke-width="1.5" stroke-linecap="round" stroke-linejoin="round"/>
<path d="M8.07576 2.77644C8.07576 2.76718 8.07576 2.76256 8.07743 2.75902C8.0789 2.75591 8.08124 2.75339 8.08412 2.7518C8.0874 2.75 8.09169 2.75 8.10026 2.75H15.8997C15.9083 2.75 15.9126 2.75 15.9159 2.7518C15.9188 2.75339 15.9211 2.75591 15.9226 2.75902C15.9242 2.76256 15.9242 2.76718 15.9242 2.77644V3.98333C15.9242 4.92524 15.9242 5.39619 15.7409 5.75595C15.5797 6.07241 15.3224 6.32969 15.006 6.49094C14.6462 6.67424 14.1752 6.67424 13.2333 6.67424H10.7667C9.82476 6.67424 9.35381 6.67424 8.99405 6.49094C8.6776 6.32969 8.42031 6.07241 8.25907 5.75595C8.07576 5.39619 8.07576 4.92524 8.07576 3.98333V2.77644Z" stroke="currentColor" stroke-width="1.5" stroke-linecap="round" stroke-linejoin="round"/>
</svg>
