<svg width="24" height="24" viewBox="0 0 24 24" fill="none" xmlns="http://www.w3.org/2000/svg">
<rect x="2.75" y="4.75" width="18.5" height="14.5" rx="4" stroke="currentColor" stroke-width="1.5" stroke-linecap="round" stroke-linejoin="round"/>
<path d="M10.5 14.3816C10.0819 14.6229 9.60773 14.75 9.125 14.75C8.64227 14.75 8.16805 14.6229 7.75 14.3816C7.33195 14.1402 6.98479 13.7931 6.74343 13.375C6.50207 12.9569 6.375 12.4827 6.375 12C6.375 11.5173 6.50207 11.0431 6.74343 10.625C6.98479 10.2069 7.33195 9.85979 7.75 9.61843C8.16805 9.37707 8.64227 9.25 9.125 9.25C9.60773 9.25 10.0819 9.37707 10.5 9.61843" stroke="currentColor" stroke-width="1.5" stroke-linecap="round" stroke-linejoin="round"/>
<path d="M17.625 14.3816C17.2069 14.6229 16.7327 14.75 16.25 14.75C15.7673 14.75 15.2931 14.6229 14.875 14.3816C14.4569 14.1402 14.1098 13.7931 13.8684 13.375C13.6271 12.9569 13.5 12.4827 13.5 12C13.5 11.5173 13.6271 11.0431 13.8684 10.625C14.1098 10.2069 14.4569 9.85979 14.875 9.61843C15.2931 9.37707 15.7673 9.25 16.25 9.25C16.7327 9.25 17.2069 9.37707 17.625 9.61843" stroke="currentColor" stroke-width="1.5" stroke-linecap="round" stroke-linejoin="round"/>
</svg>
