<svg xmlns="http://www.w3.org/2000/svg" width="24" height="24" fill="none" viewBox="0 0 24 24"><path stroke="currentColor" stroke-linecap="round" stroke-width="1.5" d="m2.75 21.25 18.5-18.5"/><path stroke="currentColor" stroke-linecap="round" stroke-linejoin="round" stroke-width="1.5" d="M16.772 7.229A5.48 5.48 0 0 1 18.268 11c0 .3.21.563.497.65a3.502 3.502 0 0 1-1.015 6.85H7.375q-.09 0-.178-.005a4.3 4.3 0 0 1-1.495-.197m-2.387-1.93A4.25 4.25 0 0 1 7 10a.445.445 0 0 0 .431-.333A5.5 5.5 0 0 1 14 5.638"/></svg>