<svg xmlns="http://www.w3.org/2000/svg" width="24" height="24" fill="none" viewBox="0 0 24 24"><path fill="currentColor" d="m7.197 18.496.037-.75h-.072zm.234-8.83.728.181zm11.334 1.983.217-.717zM22 15a4.25 4.25 0 0 0-3.018-4.068l-.434 1.435A2.75 2.75 0 0 1 20.5 15zm-4.25 4.25A4.25 4.25 0 0 0 22 15h-1.5a2.75 2.75 0 0 1-2.75 2.75zm-10.375 0H17.75v-1.5H7.375zm-.216-.005q.108.005.216.005v-1.5q-.07 0-.14-.003zm.003-1.499L7 17.75v1.5q.116 0 .23-.005zM7 17.75a3.5 3.5 0 0 1-3.5-3.5H2a5 5 0 0 0 5 5zm-3.5-3.5a3.5 3.5 0 0 1 3.5-3.5v-1.5a5 5 0 0 0-5 5zm9.268-9.5a6.25 6.25 0 0 0-6.065 4.735l1.456.362a4.75 4.75 0 0 1 4.61-3.597zm6.25 6.25a6.25 6.25 0 0 0-6.25-6.25v1.5a4.75 4.75 0 0 1 4.75 4.75zM7 10.75c.54 0 1.025-.365 1.159-.903l-1.456-.362A.305.305 0 0 1 7 9.25zm10.518.25a1.44 1.44 0 0 0 1.03 1.367l.434-1.435a.04.04 0 0 1 .02.013.1.1 0 0 1 .016.055z"/></svg>