<svg xmlns="http://www.w3.org/2000/svg" width="24" height="24" fill="none" viewBox="0 0 24 24"><path stroke="currentColor" stroke-linecap="round" stroke-linejoin="round" stroke-width="1.5" d="M10.33 18.5H7.375q-.09 0-.178-.005-.098.005-.197.005A4.25 4.25 0 0 1 7 10a.445.445 0 0 0 .431-.334 5.502 5.502 0 0 1 10.793.634"/><path fill="currentColor" fill-rule="evenodd" d="M17.5 23a5.5 5.5 0 1 0 0-11 5.5 5.5 0 0 0 0 11m.5-8.455a.5.5 0 0 0-1 0v4.703l-1.564-1.564a.5.5 0 0 0-.707.707l2.417 2.418a.5.5 0 0 0 .708 0l2.417-2.418a.5.5 0 0 0-.707-.707L18 19.248z" clip-rule="evenodd"/></svg>