<svg width="24" height="24" viewBox="0 0 24 24" fill="none" xmlns="http://www.w3.org/2000/svg">
<path d="M3.5 10.6824C3.5 9.80692 4.20969 9.09723 5.08514 9.09723H16.5201C17.3956 9.09723 18.1053 9.80692 18.1053 10.6824V13.9474C18.1053 17.9805 14.8358 21.25 10.8026 21.25V21.25C6.7695 21.25 3.5 17.9805 3.5 13.9474V10.6824Z" stroke="currentColor" stroke-width="1.5" stroke-linecap="round" stroke-linejoin="round"/>
<path d="M18.1052 10.5555H19.5694C20.9118 10.5555 22 11.6437 22 12.9861V12.9861C22 14.3285 20.9118 15.4167 19.5694 15.4167H18.1052" stroke="currentColor" stroke-width="1.5" stroke-linecap="round" stroke-linejoin="round"/>
<path d="M6.42102 3.75L6.42102 6.18056" stroke="currentColor" stroke-width="1.5" stroke-linecap="round" stroke-linejoin="round"/>
<path d="M10.8026 3.75L10.8026 6.18056" stroke="currentColor" stroke-width="1.5" stroke-linecap="round" stroke-linejoin="round"/>
<path d="M15.1842 3.75L15.1842 6.18056" stroke="currentColor" stroke-width="1.5" stroke-linecap="round" stroke-linejoin="round"/>
</svg>
