<svg xmlns="http://www.w3.org/2000/svg" width="24" height="24" fill="none" viewBox="0 0 24 24"><circle cx="1.25" cy="1.25" r="1.25" fill="currentColor" transform="matrix(-1 0 0 1 16.654 6.034)"/><circle cx="1.25" cy="1.25" r="1.25" fill="currentColor" transform="matrix(-1 0 0 1 12.156 5.221)"/><circle cx="1.25" cy="1.25" r="1.25" fill="currentColor" transform="matrix(-1 0 0 1 8.654 7.94)"/><circle cx="1.25" cy="1.25" r="1.25" fill="currentColor" transform="matrix(-1 0 0 1 7.685 12.156)"/><circle cx="1.25" cy="1.25" r="1.25" fill="currentColor" transform="matrix(-1 0 0 1 9.904 15.948)"/><path stroke="currentColor" stroke-linejoin="round" stroke-width="1.5" d="M21.25 12A9.25 9.25 0 1 0 12 21.25c1.318 0 2.224-1.28 2.329-2.594l.117-1.473a3 3 0 0 1 2.758-2.752l1.651-.129c1.28-.1 2.395-1.019 2.395-2.302Z"/></svg>