<svg xmlns="http://www.w3.org/2000/svg" width="24" height="24" fill="none" viewBox="0 0 24 24"><path fill="currentColor" d="M6.43 17.742h.75a.75.75 0 0 0-.75-.75zm.84 3.384-.509-.55zm3.67-3.385v-.75a.75.75 0 0 0-.508.2zM3.736 8.76a2.25 2.25 0 0 1 2.25-2.25v-1.5a3.75 3.75 0 0 0-3.75 3.75zm0 5.982V8.76h-1.5v5.982zm2.25 2.25a2.25 2.25 0 0 1-2.25-2.25h-1.5a3.75 3.75 0 0 0 3.75 3.75zm.427 0h-.427v1.5h.427zm.019 0h-.02v1.5h.02zm.75 3.767V17.74h-1.5v3.018zm-.42-.184a.25.25 0 0 1 .42.184h-1.5c0 1.09 1.296 1.657 2.097.919zm3.671-3.385-3.67 3.385 1.016 1.103 3.671-3.385zm4.553-.199H10.94v1.5h4.044zm2.25-2.25a2.25 2.25 0 0 1-2.25 2.25v1.5a3.75 3.75 0 0 0 3.75-3.75zm0-5.981v5.982h1.5V8.76zm-2.25-2.25a2.25 2.25 0 0 1 2.25 2.25h1.5a3.75 3.75 0 0 0-3.75-3.75zm-9 0h9v-1.5h-9z"/><path stroke="currentColor" stroke-linecap="round" stroke-linejoin="round" stroke-width="1.5" d="M6.985 2.76h8a6 6 0 0 1 6 6v4.982"/></svg>