<svg xmlns="http://www.w3.org/2000/svg" width="24" height="24" fill="none" viewBox="0 0 24 24"><path fill="currentColor" d="M6.435 17.735h.75a.75.75 0 0 0-.75-.75zm.839 3.384.508.552zm3.677-3.384v-.75a.75.75 0 0 0-.508.198zM3.735 8.76a2.25 2.25 0 0 1 2.25-2.25v-1.5a3.75 3.75 0 0 0-3.75 3.75zm0 5.975V8.76h-1.5v5.975zm2.25 2.25a2.25 2.25 0 0 1-2.25-2.25h-1.5a3.75 3.75 0 0 0 3.75 3.75zm.431 0h-.431v1.5h.431zm.02 0h-.02v1.5h.02zm.75 3.766v-3.016h-1.5v3.016zm-.42-.184a.25.25 0 0 1 .42.184h-1.5c0 1.089 1.294 1.657 2.096.92zm3.677-3.384-3.677 3.384 1.016 1.104 3.677-3.384zm4.561-.198h-4.053v1.5h4.053zm2.25-2.25a2.25 2.25 0 0 1-2.25 2.25v1.5a3.75 3.75 0 0 0 3.75-3.75zm0-5.975v5.975h1.5V8.76zm-2.25-2.25a2.25 2.25 0 0 1 2.25 2.25h1.5a3.75 3.75 0 0 0-3.75-3.75zm-9.02 0h9.02v-1.5h-9.02z"/><path fill="currentColor" d="M13.015 3.499c1.413 0 2.427 0 3.223.065.788.065 1.295.188 1.707.398a4.25 4.25 0 0 1 1.857 1.857c.21.412.333.92.398 1.707.065.796.065 1.81.065 3.223v3.974a1.5 1.5 0 0 0 1.5-1.5v-2.508c0-1.372 0-2.447-.07-3.311-.072-.88-.221-1.608-.556-2.266a5.75 5.75 0 0 0-2.513-2.513c-.658-.335-1.386-.484-2.266-.556C15.496 2 14.42 2 13.05 2H7.496a1.5 1.5 0 0 0-1.5 1.5z"/></svg>