<svg xmlns="http://www.w3.org/2000/svg" width="24" height="24" fill="none" viewBox="0 0 24 24"><path stroke="currentColor" stroke-linecap="round" stroke-linejoin="round" stroke-width="1.5" d="M20.91 12.958a4 4 0 0 1-4 4h-4.368l-4.52 4.16a.5.5 0 0 1-.839-.368v-3.792H7.09a4 4 0 0 1-4-4V6.749a4 4 0 0 1 4-4h4.161"/><path fill="currentColor" fill-rule="evenodd" d="M17.5 12a5.5 5.5 0 1 0 0-11 5.5 5.5 0 0 0 0 11m0-8.993a.5.5 0 0 1 .5.5V6h2.493a.5.5 0 1 1 0 1H18v2.493a.5.5 0 0 1-1 0V7h-2.493a.5.5 0 1 1 0-1H17V3.507a.5.5 0 0 1 .5-.5" clip-rule="evenodd"/></svg>