<svg xmlns="http://www.w3.org/2000/svg" width="24" height="24" fill="none" viewBox="0 0 24 24"><path stroke="currentColor" stroke-linecap="round" stroke-linejoin="round" stroke-width="1.5" d="M10.371 4.25H8.25a5 5 0 0 0-5 5v6.5a5 5 0 0 0 5 5h6.5a5 5 0 0 0 5-5v-2.121"/><path stroke="currentColor" stroke-linecap="round" stroke-linejoin="round" stroke-width="1.5" d="M12.299 14.75a1.86 1.86 0 0 0 1.316-.545l6.59-6.59a1.86 1.86 0 0 0 0-2.633l-1.187-1.187a1.86 1.86 0 0 0-2.633 0l-6.59 6.59a1.86 1.86 0 0 0-.545 1.316v3.049z"/></svg>