<svg width="24" height="24" viewBox="0 0 24 24" fill="none" xmlns="http://www.w3.org/2000/svg">
<path d="M10.371 4.25H8.25C5.48858 4.25 3.25 6.48858 3.25 9.25V15.75C3.25 18.5114 5.48858 20.75 8.25 20.75H14.75C17.5114 20.75 19.75 18.5114 19.75 15.75V13.629" stroke="currentColor" stroke-width="1.5" stroke-linecap="round" stroke-linejoin="round"/>
<path d="M12.2986 14.75C12.7925 14.75 13.2661 14.5538 13.6154 14.2046L20.2046 7.61536C20.9318 6.88812 20.9318 5.70903 20.2046 4.98179L19.0182 3.79543C18.291 3.06819 17.1119 3.06819 16.3846 3.79543L9.79543 10.3846C9.4462 10.7339 9.25 11.2075 9.25 11.7014V14.75H12.2986Z" stroke="currentColor" stroke-width="1.5" stroke-linecap="round" stroke-linejoin="round"/>
</svg>
