<svg xmlns="http://www.w3.org/2000/svg" width="24" height="24" fill="none" viewBox="0 0 24 24"><path stroke="currentColor" stroke-linecap="round" stroke-linejoin="round" stroke-width="1.5" d="M4.035 17.883c.716-.8 2.908-2.633 7.965-2.633s7.25 1.833 7.965 2.633m-15.93 0c-.043.43.084.852.424 1.15 1.01.89 3.239 2.217 7.541 2.217s6.531-1.328 7.541-2.216c.34-.3.467-.722.424-1.15m-15.93 0c.02-.201.077-.404.167-.595l6.44-13.678c.542-1.148 2.175-1.148 2.715 0l6.44 13.678c.09.191.148.394.168.594"/></svg>