<svg xmlns="http://www.w3.org/2000/svg" width="24" height="24" fill="none" viewBox="0 0 24 24"><path stroke="currentColor" stroke-linecap="round" stroke-linejoin="round" stroke-width="1.5" d="M9.93 13.22 3.168 9.626m6.762 3.596v7.357m0-7.357 5.443-3.079M3.168 9.625c-.27.455-.418.98-.418 1.528v4.227a3 3 0 0 0 1.592 2.649l4.135 2.198a3 3 0 0 0 1.453.351M3.168 9.625c.263-.444.64-.82 1.105-1.083l8.364-4.732a3 3 0 0 1 2.886-.037l4.135 2.199c.486.258.881.639 1.157 1.092m0 0c.28.461.435.997.435 1.556v4.227a3 3 0 0 1-1.523 2.612l-4.354 2.463m5.442-10.858-5.442 3.078M9.93 20.578a3 3 0 0 0 1.433-.388l4.01-2.268m0-7.78v7.78"/></svg>