<svg width="24" height="24" viewBox="0 0 24 24" fill="none" xmlns="http://www.w3.org/2000/svg">
<path d="M17.076 10.5352C18.1499 11.6092 19.8911 11.6092 20.9651 10.5352V10.5352C21.0929 10.4074 21.3277 10.4587 21.359 10.6367C21.865 13.5081 21.0089 16.5726 18.7907 18.7907C15.1784 22.4031 9.32161 22.4031 5.70926 18.7907C2.09691 15.1784 2.09691 9.32161 5.70926 5.70926C7.92742 3.4911 10.9919 2.635 13.8633 3.14096C14.0412 3.17232 14.0925 3.4071 13.9647 3.5349V3.5349C12.8908 4.60884 12.8908 6.35005 13.9647 7.42399C14.6008 8.06008 15.471 8.31942 16.298 8.20199C16.1806 9.02897 16.4399 9.89915 17.076 10.5352Z" stroke="currentColor" stroke-width="1.5" stroke-linecap="round" stroke-linejoin="round"/>
<circle cx="8.5" cy="15.5" r="1.25" fill="currentColor"/>
<circle cx="7.5" cy="9.5" r="1.25" fill="currentColor"/>
<circle cx="12.5" cy="12.5" r="1.25" fill="currentColor"/>
<circle cx="15.5" cy="16.5" r="1.25" fill="currentColor"/>
</svg>
