<svg xmlns="http://www.w3.org/2000/svg" width="24" height="24" fill="none" viewBox="0 0 24 24"><path stroke="currentColor" stroke-linecap="round" stroke-linejoin="round" stroke-width="1.5" d="M16.869 5.75a3 3 0 0 0-3-3H7.21a3 3 0 0 0-3 3v9.579a3 3 0 0 0 3 3h6.658a3 3 0 0 0 3-3z"/><path fill="currentColor" fill-rule="evenodd" d="M8.414 21.763a3.25 3.25 0 0 1-1.52-1.263h3.961c1.377 0 2.374 0 3.162-.053.781-.052 1.304-.153 1.74-.33a5.25 5.25 0 0 0 2.9-2.9c.177-.435.278-.959.33-1.74.053-.788.053-1.785.053-3.162V5.432c.486.311.882.746 1.146 1.264.199.39.28.809.317 1.272.037.448.037.998.037 1.672v2.702c0 1.345 0 2.39-.056 3.235-.058.856-.175 1.557-.436 2.203a6.75 6.75 0 0 1-3.728 3.728c-.646.261-1.347.379-2.203.436-.844.056-1.89.056-3.235.056h-.053c-.548 0-.996 0-1.362-.024-.379-.026-.723-.08-1.053-.213" clip-rule="evenodd"/></svg>