<svg xmlns="http://www.w3.org/2000/svg" width="24" height="24" fill="none" viewBox="0 0 24 24"><path stroke="currentColor" stroke-linecap="round" stroke-linejoin="round" stroke-width="1.5" d="M3.75 5.25a1.5 1.5 0 0 1 1.5-1.5h11.5a3.5 3.5 0 0 1 3.5 3.5v9.5a3.5 3.5 0 0 1-3.5 3.5h-9.5a3.5 3.5 0 0 1-3.5-3.5z"/><path stroke="currentColor" stroke-linecap="round" stroke-linejoin="round" stroke-width="1.5" d="M9.25 17.25h-1a1 1 0 0 1-1-1v-3a1 1 0 0 1 1-1h1m4 0h-1a1 1 0 0 0-1 1v.5a1 1 0 0 0 1 1v0a1 1 0 0 1 1 1v.5a1 1 0 0 1-1 1h-1m6-5h-1a1 1 0 0 0-1 1v.5a1 1 0 0 0 1 1v0a1 1 0 0 1 1 1v.5a1 1 0 0 1-1 1h-1"/></svg>