<svg width="24" height="24" viewBox="0 0 24 24" fill="none" xmlns="http://www.w3.org/2000/svg">
<path d="M20.7541 4.79208L17.9132 19.1025C17.8009 19.6684 17.3739 20.1197 16.8151 20.2633L12.3732 21.4042C12.1284 21.467 11.8716 21.467 11.6268 21.4042L7.18493 20.2633C6.62611 20.1197 6.19915 19.6684 6.0868 19.1025L3.2459 4.79208C3.06175 3.86448 3.77149 3 4.71719 3H12H19.2828C20.2285 3 20.9383 3.86448 20.7541 4.79208Z" stroke="#212325" stroke-width="1.5" stroke-linecap="round" stroke-linejoin="round"/>
<path d="M7.76959 6.88098H17.2999L8.66952 12.458H14.8946C15.5294 12.458 16.0036 13.0419 15.8733 13.6633L15.3105 16.3457C15.2383 16.6901 14.9903 16.9712 14.6575 17.0859L12.3751 17.8721C12.1609 17.9459 11.928 17.9448 11.7146 17.8689L8.99093 16.9011" stroke="#212325" stroke-width="1.5" stroke-linecap="round" stroke-linejoin="round"/>
</svg>
