<svg xmlns="http://www.w3.org/2000/svg" width="24" height="24" fill="none" viewBox="0 0 24 24"><path stroke="currentColor" stroke-linejoin="round" stroke-width="1.5" d="m12 12 8.073-4.625M12 12 3.926 7.375M12 12v9.25m8.073-13.875a3.17 3.17 0 0 0-1.165-1.156l-5.316-3.046a3.2 3.2 0 0 0-3.184 0L5.092 6.22c-.493.282-.89.684-1.166 1.156m16.147 0c.275.472.427 1.015.427 1.58v6.09a3.15 3.15 0 0 1-1.592 2.736l-5.316 3.046A3.2 3.2 0 0 1 12 21.25M3.926 7.375a3.14 3.14 0 0 0-.426 1.58v6.09c0 1.13.607 2.172 1.592 2.736l5.316 3.046A3.2 3.2 0 0 0 12 21.25"/></svg>