<svg width="24" height="24" viewBox="0 0 24 24" fill="none" xmlns="http://www.w3.org/2000/svg">
<path d="M8.65129 14.4293C6.95477 13.2414 4.61648 13.6537 3.42856 15.3502C2.24065 17.0467 2.65295 19.385 4.34947 20.5729C6.04599 21.7608 8.38429 21.3485 9.5722 19.652C10.7601 17.9555 10.3478 15.6172 8.65129 14.4293ZM8.65129 14.4293L12.0001 9.98366M17.4501 2.74858L13.6316 7.81772M15.3488 14.4293C17.0453 13.2414 19.3836 13.6537 20.5716 15.3502C21.7595 17.0467 21.3472 19.385 19.6507 20.5729C17.9541 21.7608 15.6158 21.3485 14.4279 19.652C13.24 17.9555 13.6523 15.6172 15.3488 14.4293ZM15.3488 14.4293L12.0001 9.98366M6.55006 2.74858L12.0001 9.98366" stroke="#212325" stroke-width="1.5" stroke-linecap="round" stroke-linejoin="round"/>
</svg>
