<svg width="24" height="24" viewBox="0 0 24 24" fill="none" xmlns="http://www.w3.org/2000/svg">
<path d="M19.25 6.25C19.25 8.183 16.0041 9.75 12 9.75C7.99594 9.75 4.75 8.183 4.75 6.25M19.25 6.25C19.25 4.317 16.0041 2.75 12 2.75C7.99594 2.75 4.75 4.317 4.75 6.25M19.25 6.25V12M4.75 6.25V12M4.75 12V17.75C4.75 19.683 7.99594 21.25 12 21.25C16.0041 21.25 19.25 19.683 19.25 17.75V12M4.75 12C4.75 13.933 7.99594 15.5 12 15.5C16.0041 15.5 19.25 13.933 19.25 12" stroke="currentColor" stroke-width="1.5" stroke-linecap="round" stroke-linejoin="round"/>
</svg>
