<svg xmlns="http://www.w3.org/2000/svg" width="24" height="24" fill="none" viewBox="0 0 24 24"><path stroke="currentColor" stroke-linecap="round" stroke-linejoin="round" stroke-width="1.5" d="M7.69 9.915h8.62m-8.62 0H2.75m4.94 0 3.65 10.051M7.69 9.915l2.4-3.933.55-1.012m5.67 4.945h4.94m-4.94 0-3.65 10.051m3.65-10.051-2.4-3.933-.566-1.012M2.75 9.915c0 .42.079.84.236 1.236.212.535.642 1.028 1.5 2.013l3.467 3.976c1.397 1.602 2.095 2.404 2.923 2.698q.229.081.464.128M2.75 9.915c0-.42.079-.84.236-1.237.212-.535.642-1.027 1.5-2.013.467-.534.7-.801.97-1.008a3.36 3.36 0 0 1 1.361-.619c.334-.068.688-.068 1.397-.068h2.427M21.25 9.915c0 .42-.079.84-.236 1.236-.212.535-.642 1.028-1.5 2.013l-3.467 3.976c-1.397 1.602-2.095 2.404-2.923 2.698a3.4 3.4 0 0 1-.464.128m8.59-10.051c0-.42-.079-.84-.236-1.237-.212-.535-.642-1.027-1.5-2.013-.467-.534-.7-.801-.97-1.008a3.36 3.36 0 0 0-1.361-.619c-.334-.068-.688-.068-1.397-.068h-2.442m-.684 14.996a3.4 3.4 0 0 1-1.32 0M13.344 4.97H10.64"/></svg>