<svg xmlns="http://www.w3.org/2000/svg" width="24" height="24" fill="none" viewBox="0 0 24 24"><path stroke="currentColor" stroke-linecap="round" stroke-linejoin="round" stroke-width="1.5" d="M3.507 14.007a2.84 2.84 0 0 1 0-4.014l6.486-6.486a2.84 2.84 0 0 1 4.014 0l6.486 6.486a2.84 2.84 0 0 1 0 4.014l-6.486 6.486a2.84 2.84 0 0 1-4.014 0z"/><path stroke="currentColor" stroke-linecap="round" stroke-linejoin="round" stroke-width="1.5" d="m14.46 9.02 1.394 1.395a1 1 0 0 1 .293.707m-1.688 2.102 1.395-1.395a1 1 0 0 0 .293-.707m-7.46 4.031v-2.53a1.5 1.5 0 0 1 1.5-1.5h5.96"/></svg>