<svg width="24" height="24" viewBox="0 0 24 24" fill="none" xmlns="http://www.w3.org/2000/svg">
<circle cx="12" cy="12" r="9.25" stroke="currentColor" stroke-width="1.5" stroke-linecap="round" stroke-linejoin="round"/>
<path d="M16.5 12.75C16.7761 12.75 17.0026 12.9744 16.975 13.2492C16.9263 13.7345 16.8068 14.2111 16.6194 14.6634C16.3681 15.27 15.9998 15.8212 15.5355 16.2855C15.0712 16.7498 14.52 17.1181 13.9134 17.3694C13.3068 17.6207 12.6566 17.75 12 17.75C11.3434 17.75 10.6932 17.6207 10.0866 17.3694C9.47995 17.1181 8.92876 16.7498 8.46447 16.2855C8.00017 15.8212 7.63188 15.27 7.3806 14.6634C7.19324 14.2111 7.07368 13.7345 7.02498 13.2492C6.99741 12.9744 7.22386 12.75 7.5 12.75L16.5 12.75Z" stroke="currentColor" stroke-width="1.5" stroke-linecap="round" stroke-linejoin="round"/>
<path d="M7.26435 9.08181C7.36673 8.69973 7.59232 8.36212 7.90613 8.12132C8.21995 7.88052 8.60445 7.75 9 7.75C9.39555 7.75 9.78005 7.88052 10.0939 8.12132C10.4077 8.36212 10.6333 8.69973 10.7356 9.08181" stroke="currentColor" stroke-width="1.5" stroke-linecap="round" stroke-linejoin="round"/>
<path d="M13.2644 9.08181C13.3667 8.69973 13.5923 8.36212 13.9061 8.12132C14.2199 7.88052 14.6044 7.75 15 7.75C15.3956 7.75 15.7801 7.88052 16.0939 8.12132C16.4077 8.36212 16.6333 8.69973 16.7356 9.08181" stroke="currentColor" stroke-width="1.5" stroke-linecap="round" stroke-linejoin="round"/>
</svg>
