<svg xmlns="http://www.w3.org/2000/svg" width="24" height="24" fill="none" viewBox="0 0 24 24"><path stroke="currentColor" stroke-linecap="round" stroke-linejoin="round" stroke-width="1.5" d="M9.788 20.5h9.02m-9.02 0a3.47 3.47 0 0 0 2.486-1.02l1.29-1.29M9.788 20.5a3.47 3.47 0 0 1-2.438-1.02l-3.33-3.33a3.47 3.47 0 0 1-1.003-2.802M6.6 11.226l6.662 6.663.301.301m0 0 5.417-5.417a3.48 3.48 0 0 0 0-4.923l-3.33-3.33a3.47 3.47 0 0 0-2.643-1.015"/><path fill="currentColor" d="M8.6 1.419a.64.64 0 0 0-1.2 0l-.167.449a4 4 0 0 1-2.366 2.365l-.449.166a.64.64 0 0 0 0 1.202l.45.166a4 4 0 0 1 2.365 2.366l.166.449a.64.64 0 0 0 1.202 0l.166-.449a4 4 0 0 1 2.366-2.366l.449-.166a.64.64 0 0 0 0-1.202l-.45-.166a4 4 0 0 1-2.365-2.365zM3.876 7.262a.4.4 0 0 0-.752 0l-.103.28a2.5 2.5 0 0 1-1.479 1.479l-.28.104a.4.4 0 0 0 0 .75l.28.105a2.5 2.5 0 0 1 1.479 1.478l.103.28a.4.4 0 0 0 .752 0l.103-.28A2.5 2.5 0 0 1 5.458 9.98l.28-.104a.4.4 0 0 0 0-.751l-.28-.104a2.5 2.5 0 0 1-1.479-1.479z"/></svg>