<svg xmlns="http://www.w3.org/2000/svg" width="24" height="24" fill="none" viewBox="0 0 24 24"><path stroke="currentColor" stroke-linecap="round" stroke-linejoin="round" stroke-width="1.5" d="M13 2.75A2.25 2.25 0 0 0 10.75 5c0 .14 0 .21-.012.267a.6.6 0 0 1-.471.471c-.058.012-.128.012-.267.012H8.75a2 2 0 0 0-2 2V9c0 .14 0 .21-.012.267a.6.6 0 0 1-.471.471c-.058.012-.128.012-.267.012a2.25 2.25 0 0 0 0 4.5c.14 0 .209 0 .267.011a.6.6 0 0 1 .471.472c.012.058.012.128.012.267v1.25a2 2 0 0 0 2 2H10c.14 0 .21 0 .267.012a.6.6 0 0 1 .471.47c.012.059.012.129.012.268a2.25 2.25 0 1 0 4.5 0c0-.14 0-.21.011-.267a.6.6 0 0 1 .472-.471c.058-.012.128-.012.267-.012h1.25a2 2 0 0 0 2-2V15c0-.14 0-.21-.012-.267a.6.6 0 0 0-.471-.472c-.058-.011-.128-.011-.267-.011a2.25 2.25 0 0 1 0-4.5c.14 0 .209 0 .267-.012a.6.6 0 0 0 .471-.471c.012-.058.012-.128.012-.267V7.75a2 2 0 0 0-2-2H16c-.14 0-.21 0-.267-.012a.6.6 0 0 1-.472-.471C15.25 5.21 15.25 5.14 15.25 5A2.25 2.25 0 0 0 13 2.75"/></svg>