<svg xmlns="http://www.w3.org/2000/svg" width="24" height="24" fill="none" viewBox="0 0 24 24"><path fill="currentColor" d="M6 9a.75.75 0 0 0 0 1.5zm4 10a.75.75 0 0 0 1.5 0zm8.5-10a.75.75 0 0 0 0 1.5zM16 5a.75.75 0 0 0-1.5 0zm-.267.738-.146.736zm-.472-.471-.735.146zm3.977 9.466-.735.146zm-.738-.483V15zm.267.011.146-.735zM6.738 9.268l.736.146zm-.471.471-.146-.735zm8.994 8.995.736.146zm.472-.471-.146-.736zm-9.466-4-.146.735zm.471.471-.735.146zm12.029-4.995.146.736zm.471-.471-.735-.146zm-8.971 8.995-.146.735zm.471.47.736-.145zm0-13.465.736.146zm-.471.471.146.736zM11.5 5A1.5 1.5 0 0 1 13 3.5V2a3 3 0 0 0-3 3zM9.75 6.5H10V5h-.25zM7.5 8.75A2.25 2.25 0 0 1 9.75 6.5V5A3.75 3.75 0 0 0 6 8.75zm0 .25v-.25H6V9zm-3 3A1.5 1.5 0 0 1 6 10.5V9a3 3 0 0 0-3 3zM6 13.5A1.5 1.5 0 0 1 4.5 12H3a3 3 0 0 0 3 3zm1.5 1.75V15H6v.25zm2.25 2.25a2.25 2.25 0 0 1-2.25-2.25H6A3.75 3.75 0 0 0 9.75 19zm.25 0h-.25V19H10zm3 3a1.5 1.5 0 0 1-1.5-1.5H10a3 3 0 0 0 3 3zm1.5-1.5a1.5 1.5 0 0 1-1.5 1.5V22a3 3 0 0 0 3-3zm1.75-1.5H16V19h.25zm2.25-2.25a2.25 2.25 0 0 1-2.25 2.25V19A3.75 3.75 0 0 0 20 15.25zm0-.25v.25H20V15zm0-1.5A1.5 1.5 0 0 1 17 12h-1.5a3 3 0 0 0 3 3zM17 12a1.5 1.5 0 0 1 1.5-1.5V9a3 3 0 0 0-3 3zm1.5-3.25V9H20v-.25zM16.25 6.5a2.25 2.25 0 0 1 2.25 2.25H20A3.75 3.75 0 0 0 16.25 5zm-.25 0h.25V5H16zm-3-3A1.5 1.5 0 0 1 14.5 5H16a3 3 0 0 0-3-3zM16 5h-.087l-.051-.001c-.024 0-.01-.002.017.004l-.292 1.471c.148.03.31.026.413.026zm-1.5 0c0 .103-.004.265.026.413l1.471-.292c.006.027.005.04.004.017v-.05L16 5zm1.38.003a.15.15 0 0 1 .117.118l-1.471.292a1.35 1.35 0 0 0 1.06 1.061zM20 15c0-.104.003-.265-.026-.413l-1.471.292c-.006-.027-.005-.04-.004-.017V15zm-1.5 0 .138.001c.024 0 .01.002-.017-.004l.292-1.471c-.148-.03-.31-.026-.413-.026zm1.474-.413a1.35 1.35 0 0 0-1.06-1.061l-.293 1.471a.15.15 0 0 1-.118-.118zM6 9l-.001.138c0 .024-.002.01.004-.017l1.471.292c.03-.148.026-.31.026-.413zm0 1.5c.103 0 .265.004.413-.026l-.292-1.471c.027-.006.04-.005.017-.004A2 2 0 0 1 6 9zm.003-1.38a.15.15 0 0 1 .118-.117l.292 1.471a1.35 1.35 0 0 0 1.061-1.06zM16 19v-.087l.001-.051c0-.024.002-.01-.004.017l-1.471-.292c-.03.148-.026.31-.026.413zm0-1.5c-.104 0-.265-.004-.413.026l.292 1.471c-.027.006-.04.005-.017.004h.05L16 19zm-.003 1.38a.15.15 0 0 1-.118.117l-.292-1.471a1.35 1.35 0 0 0-1.061 1.06zM6 15l.138.001c.024 0 .01.002-.017-.004l.292-1.471c-.148-.03-.31-.026-.413-.026zm1.5 0c0-.104.004-.265-.026-.413l-1.471.292c-.006-.027-.005-.04-.004-.017V15zm-1.38-.003a.15.15 0 0 1-.117-.118l1.471-.292a1.35 1.35 0 0 0-1.06-1.061zM18.5 10.5c.103 0 .265.004.413-.026l-.292-1.471c.027-.006.04-.005.017-.004A2 2 0 0 1 18.5 9zm0-1.5v.087l-.001.051c0 .024-.002.01.004-.017l1.471.292c.03-.148.026-.31.026-.413zm.413 1.474a1.35 1.35 0 0 0 1.061-1.06l-1.471-.293a.15.15 0 0 1 .118-.118zM10 19l.138.001c.024 0 .01.002-.017-.004l.292-1.471c-.148-.03-.31-.026-.413-.026zm1.5 0c0-.103.004-.265-.026-.413l-1.471.292c-.006-.027-.005-.04-.004-.017A2 2 0 0 1 10 19zm-1.38-.003a.15.15 0 0 1-.117-.118l1.471-.292a1.35 1.35 0 0 0-1.06-1.061zM10 5l-.001.138c0 .024-.002.01.004-.017l1.471.292c.03-.148.026-.31.026-.413zm0 1.5c.103 0 .265.004.413-.026l-.292-1.471c.027-.006.04-.005.017-.004h-.05L10 5zm.003-1.38a.15.15 0 0 1 .118-.117l.292 1.471a1.35 1.35 0 0 0 1.061-1.06z"/></svg>