<svg xmlns="http://www.w3.org/2000/svg" width="24" height="24" fill="none" viewBox="0 0 24 24"><path stroke="currentColor" stroke-linecap="round" stroke-width="1.5" d="m2.75 21.25 18.5-18.5"/><path fill="currentColor" stroke="currentColor" stroke-linecap="round" stroke-width="1.5" d="M14.625 12a2.625 2.625 0 0 1-4.481 1.856l3.712-3.712c.475.475.769 1.131.769 1.856Z"/><path stroke="currentColor" stroke-linecap="round" stroke-width="1.5" d="M6.924 17.076c1.364.993 3.057 1.734 5.076 1.734 4.813 0 7.771-4.199 8.82-6.002a1.6 1.6 0 0 0-.001-1.615c-.609-1.046-1.86-2.898-3.742-4.27m-2.81-1.409A8 8 0 0 0 12 5.19c-4.808 0-7.768 4.197-8.818 6.001a1.6 1.6 0 0 0 0 1.617c.326.56.836 1.35 1.528 2.173"/></svg>