<svg xmlns="http://www.w3.org/2000/svg" width="24" height="24" fill="none" viewBox="0 0 24 24"><path stroke="currentColor" stroke-linecap="round" stroke-linejoin="round" stroke-width="1.5" d="m3.282 21.782 4.278-4.278M21.782 3.282 17.673 7.39m-3.363 3.363a2.64 2.64 0 0 0-1.063-1.063 2.625 2.625 0 1 0-2.494 4.62m3.557-3.557-3.557 3.557m3.557-3.557 3.363-3.363m-6.92 6.92L7.56 17.504M17.673 7.39c-.38-.319-.791-.621-1.232-.894C15.2 5.726 13.717 5.19 12 5.19c-4.956 0-7.948 4.459-8.91 6.16-.11.196-.165.293-.197.446a1.2 1.2 0 0 0 0 .408c.032.152.088.25.198.445.51.903 1.593 2.582 3.237 3.96.38.319.791.621 1.232.895m12.18-7.925c.528.694.919 1.328 1.17 1.773.11.194.165.292.197.444.023.112.023.296 0 .408-.032.152-.087.25-.197.444-.96 1.702-3.95 6.162-8.91 6.162q-.714-.002-1.374-.117"/></svg>