<svg width="24" height="24" viewBox="0 0 24 24" fill="none" xmlns="http://www.w3.org/2000/svg">
<path d="M3.18227 12.8083C4.23338 14.6125 7.1952 18.81 12 18.81C16.8134 18.81 19.7709 14.6111 20.8193 12.8075C21.1119 12.3041 21.1117 11.696 20.8189 11.1927C19.7695 9.38923 16.8097 5.19 12 5.19C7.19148 5.19 4.23194 9.38717 3.18186 11.1914C2.88857 11.6953 2.88875 12.3045 3.18227 12.8083Z" stroke="currentColor" stroke-width="1.5" stroke-linejoin="round"/>
<path d="M12 14.625C13.4497 14.625 14.625 13.4497 14.625 12C14.625 10.5503 13.4497 9.375 12 9.375C10.5503 9.375 9.375 10.5503 9.375 12C9.375 13.4497 10.5503 14.625 12 14.625Z" stroke="currentColor" stroke-width="1.5" stroke-linejoin="round"/>
</svg>
