<svg xmlns="http://www.w3.org/2000/svg" width="24" height="24" fill="none" viewBox="0 0 24 24"><path stroke="currentColor" stroke-linecap="round" stroke-linejoin="round" stroke-width="1.5" d="M19.047 7.819 20.92 9.69m-1.872-1.87-2.864-2.864m2.864 2.864 1.496-1.496a1 1 0 0 0 0-1.414l-1.45-1.45a1 1 0 0 0-1.414 0l-1.496 1.496m-1.872-1.872 1.872 1.872m-3.796 2.751a1.5 1.5 0 0 1 2.121 0l1.787 1.786a1.5 1.5 0 0 1 0 2.12l-8.562 8.563a1.5 1.5 0 0 1-.829.421l-2.12.332a1.5 1.5 0 0 1-1.714-1.715l.334-2.118a1.5 1.5 0 0 1 .42-.827z"/></svg>