<svg xmlns="http://www.w3.org/2000/svg" width="24" height="24" fill="none" viewBox="0 0 24 24"><path stroke="currentColor" stroke-linecap="round" stroke-linejoin="round" stroke-width="1.5" d="M19.047 7.819 20.92 9.69m-1.872-1.87-2.864-2.864m2.864 2.864 1.496-1.496a1 1 0 0 0 0-1.414l-1.45-1.45a1 1 0 0 0-1.414 0l-1.496 1.496m-1.872-1.872 1.872 1.872M6.235 13.86l-2.202 2.202c-.205.205-.308.307-.387.425q-.107.157-.171.335c-.048.134-.07.277-.116.563l-.096.608c-.173 1.1-.26 1.65-.087 2.05.151.35.43.629.78.78.399.174.949.087 2.05-.085l.61-.096c.286-.044.43-.067.563-.115q.18-.065.337-.17c.117-.08.22-.183.425-.389l7.718-7.718c.594-.594.891-.89 1.002-1.233a1.5 1.5 0 0 0 0-.927c-.11-.343-.408-.64-1.002-1.234l-.513-.513c-.594-.594-.891-.891-1.234-1.002a1.5 1.5 0 0 0-.927 0c-.342.11-.64.408-1.233 1.002zm0 0h7.815"/></svg>