<svg xmlns="http://www.w3.org/2000/svg" width="24" height="24" fill="none" viewBox="0 0 24 24"><path stroke="currentColor" stroke-linecap="round" stroke-linejoin="round" stroke-width="1.5" d="M4.292 10.25v-4a3.5 3.5 0 0 1 3.5-3.5h2.448a3.5 3.5 0 0 1 1.447.313M13.75 21.25h2.458a3.5 3.5 0 0 0 3.5-3.5v-5.53c0-.505-.109-.999-.314-1.45m-7.706-7.707a3.5 3.5 0 0 1 1.027.712l5.968 5.97c.3.3.54.647.711 1.026m-7.706-7.708V8.77a2 2 0 0 0 2 2h5.706"/><path fill="currentColor" fill-rule="evenodd" d="M6.5 23a5.5 5.5 0 1 0 0-11 5.5 5.5 0 0 0 0 11m1.548-8.64a3.5 3.5 0 0 0-4.929 2.234.5.5 0 0 0 .966.259A2.5 2.5 0 0 1 8.3 15.765h-.565a.5.5 0 0 0 0 1H9.5a.5.5 0 0 0 .5-.5V14.5a.5.5 0 0 0-1 0v.55a3.5 3.5 0 0 0-.952-.69m1.833 4.046a.5.5 0 0 0-.966-.259A2.5 2.5 0 0 1 4.7 19.235h.565a.5.5 0 0 0 0-1H3.5a.5.5 0 0 0-.5.5V20.5a.5.5 0 0 0 1 0v-.55a3.5 3.5 0 0 0 5.88-1.544" clip-rule="evenodd"/></svg>