<svg xmlns="http://www.w3.org/2000/svg" width="24" height="24" fill="none" viewBox="0 0 24 24"><path stroke="currentColor" stroke-linecap="round" stroke-linejoin="round" stroke-width="1.5" d="M11.688 3.063a3.5 3.5 0 0 1 1.027.712l5.968 5.97c.3.3.54.647.711 1.026m-7.706-7.708a3.5 3.5 0 0 0-1.448-.313H7.792a3.5 3.5 0 0 0-3.5 3.5v11.5a3.5 3.5 0 0 0 3.5 3.5h8.416a3.5 3.5 0 0 0 3.5-3.5v-5.53c0-.505-.109-.999-.314-1.45m-7.706-7.707V8.77a2 2 0 0 0 2 2h5.706"/><path stroke="currentColor" stroke-linecap="round" stroke-width="1.5" d="M7.29 13.77h9.42m-9.42 3.48h6.42"/></svg>