<svg xmlns="http://www.w3.org/2000/svg" width="24" height="24" fill="none" viewBox="0 0 24 24"><path stroke="currentColor" stroke-linecap="round" stroke-linejoin="round" stroke-width="1.5" d="M9.145 17.704v-3.976c0-.381 0-.572-.044-.75a1.5 1.5 0 0 0-.192-.446c-.1-.155-.238-.286-.515-.548L3.578 7.43a2.648 2.648 0 0 1 1.82-4.572h13.189a2.664 2.664 0 0 1 1.852 4.579l-4.765 4.607c-.27.261-.405.392-.501.545a1.5 1.5 0 0 0-.187.441c-.044.176-.044.364-.044.74v3.935c0 .542 0 .813-.062 1.057a2 2 0 0 1-.641 1.027c-.192.163-.436.282-.923.52-1.14.557-1.709.835-2.172.835a2 2 0 0 1-1.795-1.121c-.204-.416-.204-1.05-.204-2.318"/></svg>