<svg xmlns="http://www.w3.org/2000/svg" width="24" height="24" fill="none" viewBox="0 0 24 24"><path stroke="currentColor" stroke-linejoin="round" stroke-width="1.5" d="m3.882 18.043 4.041-5.623a4 4 0 0 1 3.249-1.665h8.752M3.882 18.043a3.65 3.65 0 0 0 2.777 1.277h8.343a4 4 0 0 0 3.405-1.9l2.918-4.734a1.287 1.287 0 0 0-1.115-1.931h-.286M3.882 18.043A3.65 3.65 0 0 1 3 15.661V7.424A2.744 2.744 0 0 1 5.744 4.68h2.653c.607 0 1.189.24 1.618.67l.911.91a1.83 1.83 0 0 0 1.294.537l4.044-.001a3.66 3.66 0 0 1 3.66 3.66v.299"/></svg>