<svg xmlns="http://www.w3.org/2000/svg" width="24" height="24" fill="none" viewBox="0 0 24 24"><path fill="currentColor" fill-rule="evenodd" d="M17.5 23a5.5 5.5 0 1 0 0-11 5.5 5.5 0 0 0 0 11m0-8.993a.5.5 0 0 1 .5.5V17h2.493a.5.5 0 1 1 0 1H18v2.494a.5.5 0 0 1-1 0V18h-2.493a.5.5 0 1 1 0-1H17v-2.493a.5.5 0 0 1 .5-.5" clip-rule="evenodd"/><path stroke="currentColor" stroke-linecap="round" stroke-linejoin="round" stroke-width="1.5" d="M2.75 8.623v7.379a4 4 0 0 0 4 4h3.35M2.75 8.623V6.998a3 3 0 0 1 3-3h2.9a2.5 2.5 0 0 1 1.768.732L12 6.313m-9.25 2.31h5.904a2.5 2.5 0 0 0 1.768-.732L12 6.313m0 0 5.25-.002a4 4 0 0 1 4 4v.669"/></svg>