<svg width="24" height="24" viewBox="0 0 24 24" fill="none" xmlns="http://www.w3.org/2000/svg">
<path d="M3.88163 18.0433L7.9235 12.4203C8.67502 11.3748 9.88388 10.755 11.1715 10.755H19.9242M3.88163 18.0433C4.55274 18.8251 5.54819 19.3203 6.65929 19.3203H15.0017C16.3895 19.3203 17.6782 18.6009 18.4066 17.4196L21.3251 12.6861V12.6861C21.8206 11.8278 21.2012 10.755 20.2101 10.755H19.9242M3.88163 18.0433C3.33207 17.4032 3 16.5709 3 15.661V7.42416C3 5.90843 4.22874 4.67969 5.74447 4.67969H8.39749C9.00406 4.67969 9.58578 4.92064 10.0147 5.34955L10.9261 6.26093C11.2693 6.60415 11.7348 6.79692 12.2202 6.79682L16.2642 6.79598C18.2854 6.79556 19.9242 8.434 19.9242 10.4553V10.755" stroke="currentColor" stroke-width="1.5" stroke-linejoin="round"/>
</svg>
