<svg xmlns="http://www.w3.org/2000/svg" width="24" height="24" fill="none" viewBox="0 0 24 24"><path fill="currentColor" fill-rule="evenodd" d="M17.5 23a5.5 5.5 0 1 0 0-11 5.5 5.5 0 0 0 0 11m0-8.993a.5.5 0 0 1 .5.5V17h2.493a.5.5 0 1 1 0 1H18v2.494a.5.5 0 0 1-1 0V18h-2.493a.5.5 0 1 1 0-1H17v-2.493a.5.5 0 0 1 .5-.5" clip-rule="evenodd"/><path stroke="currentColor" stroke-linecap="round" stroke-linejoin="round" stroke-width="1.5" d="M2.75 8.623v6.579c0 1.68 0 2.52.327 3.162a3 3 0 0 0 1.311 1.31c.642.328 1.482.328 3.162.328h2.7M2.75 8.623V7.598c0-1.26 0-1.89.245-2.371a2.25 2.25 0 0 1 .984-.984c.48-.245 1.11-.245 2.371-.245h1.679c.611 0 .917 0 1.205.07a2.5 2.5 0 0 1 .722.299c.253.154.469.37.901.803L12 6.313m-9.25 2.31h5.283c.611 0 .917 0 1.205-.069a2.5 2.5 0 0 0 .722-.3c.252-.154.469-.37.901-.802L12 6.312m0 0h4.449c1.68 0 2.52 0 3.163.326a3 3 0 0 1 1.31 1.311c.267.521.316 1.174.326 2.301"/></svg>