<svg width="24" height="24" viewBox="0 0 24 24" fill="none" xmlns="http://www.w3.org/2000/svg">
<path d="M21.25 12C21.25 9.54675 20.2754 7.19397 18.5407 5.45926C16.806 3.72455 14.4533 2.75 12 2.75M21.25 12L2.75 12M21.25 12C21.25 14.4533 20.2754 16.806 18.5407 18.5407C16.806 20.2754 14.4533 21.25 12 21.25M12 2.75C9.54675 2.75 7.19397 3.72455 5.45926 5.45926C3.72455 7.19397 2.75 9.54675 2.75 12M12 2.75C11.5 2.75 8 6.89137 8 12C8 17.1086 11.5 21.25 12 21.25M12 2.75C12.5 2.75 16 6.89137 16 12C16 17.1086 12.5 21.25 12 21.25M2.75 12C2.75 14.4533 3.72455 16.806 5.45926 18.5407C7.19397 20.2755 9.54675 21.25 12 21.25" stroke="currentColor" stroke-width="1.5" stroke-linecap="round" stroke-linejoin="round"/>
</svg>
