<svg xmlns="http://www.w3.org/2000/svg" width="24" height="24" fill="none" viewBox="0 0 24 24"><path stroke="currentColor" stroke-linecap="round" stroke-linejoin="round" stroke-width="1.5" d="M7.201 9.947a5.365 5.365 0 0 1 8.145-2.262c.355.262.858.268 1.17-.044l1.617-1.616c.312-.312.314-.822-.024-1.106A9.25 9.25 0 0 0 3.612 8.46M7.2 9.947a5.365 5.365 0 0 0 1.69 6.31M7.2 9.947 3.611 8.46m5.28 7.796a5.365 5.365 0 0 0 6.533 0m-6.532 0-2.365 3.082m8.897-3.082a5.4 5.4 0 0 0 1.537-1.866h-3.91a.8.8 0 0 1-.8-.8V11.3a.8.8 0 0 1 .8-.8h7.493c.316 0 .61.186.681.495.313 1.362-.125 3.246-.158 3.384l-.004.016c-.528 1.963-1.661 3.706-3.274 4.944m-2.365-3.083 2.365 3.082m0 0a9.25 9.25 0 0 1-11.262 0m0 0A9.25 9.25 0 0 1 3.612 8.46"/></svg>