<svg xmlns="http://www.w3.org/2000/svg" width="24" height="24" fill="none" viewBox="0 0 24 24"><path stroke="currentColor" stroke-linecap="round" stroke-linejoin="round" stroke-width="1.5" d="M12 8.25a3.75 3.75 0 0 0-3.747 3.904M12 8.25a3.75 3.75 0 0 1 3.608 4.775M12 8.25h8.458m-4.85 4.775a3.752 3.752 0 0 1-7.355-.871m7.355.871-3.08 8.21m7.93-12.985A9.252 9.252 0 0 0 4.6 6.45m15.858 1.8q.085.19.161.386a9.25 9.25 0 0 1-8.09 12.599m0 0A9.25 9.25 0 0 1 2.75 12c0-2.083.688-4.004 1.85-5.55m3.653 5.704L4.6 6.45"/></svg>