<svg xmlns="http://www.w3.org/2000/svg" width="24" height="24" fill="none" viewBox="0 0 24 24"><path stroke="currentColor" stroke-linecap="round" stroke-linejoin="round" stroke-width="1.5" d="M13.365 2.83a9.25 9.25 0 0 1 4.744 2.089c.338.284.336.794.024 1.106l-1.616 1.616c-.312.312-.816.306-1.171.044a5.365 5.365 0 1 0 1.615 6.705h-3.91a.8.8 0 0 1-.8-.8V11.3a.8.8 0 0 1 .8-.8h7.493c.316 0 .61.186.681.495.313 1.362-.125 3.246-.158 3.384l-.004.016c-.528 1.963-1.661 3.706-3.274 4.944a9.25 9.25 0 1 1-4.424-16.51"/></svg>