<svg xmlns="http://www.w3.org/2000/svg" width="24" height="24" fill="none" viewBox="0 0 24 24"><path stroke="currentColor" stroke-linecap="round" stroke-linejoin="round" stroke-width="1.5" d="M4 10.059v3.424c0 1.853 0 2.78.221 3.536.527 1.8 1.935 3.216 3.735 3.846.6.176 1.196.363 2.344.532a5.8 5.8 0 0 0 2.014-.066c.303-.062.55-.115.758-.16.49-.106.98-.233 1.43-.454.508-.248.903-.506 1.475-.933.342-.255.655-.566 1.28-1.188l3.247-3.23a1.68 1.68 0 0 0 0-2.384 1.7 1.7 0 0 0-2.396 0l-2.25 2.239v-5.162"/><path stroke="currentColor" stroke-linecap="round" stroke-linejoin="round" stroke-width="1.5" d="M12.893 7.852V5.95c0-.815.664-1.475 1.483-1.475.818 0 1.482.66 1.482 1.475v4.424m-5.929-.319V3.95c0-.815.664-1.475 1.482-1.475.819 0 1.482.66 1.482 1.475v6.109M6.964 7.32v2.739-5.104a1.483 1.483 0 0 1 2.965 0v5.104M6.964 8.854V7.95c0-.815-.663-1.475-1.482-1.475C4.664 6.475 4 7.135 4 7.95v2.738"/></svg>