<svg xmlns="http://www.w3.org/2000/svg" width="24" height="24" fill="none" viewBox="0 0 24 24"><path stroke="currentColor" stroke-linecap="round" stroke-linejoin="round" stroke-width="1.5" d="M2.652 14.714V9.78m3.18 2.07 4.049 2.667a4 4 0 0 0 4.402 0l4.049-2.668m-12.5 0L3.099 10.05a.99.99 0 0 1-.45-.815m3.183 2.616v5.061c0 .495.119.987.44 1.364.747.877 2.514 2.39 5.81 2.39s5.063-1.513 5.81-2.39c.32-.377.44-.869.44-1.364V11.85m0 0 2.48-1.634a1.2 1.2 0 0 0 0-2.004l-6.53-4.302a4 4 0 0 0-4.401 0L3.099 8.379a.99.99 0 0 0-.45.855m0 0v.547"/></svg>