<svg xmlns="http://www.w3.org/2000/svg" width="24" height="24" fill="none" viewBox="0 0 24 24"><path fill="currentColor" d="M17.75 21.25h1.5c.276 0 .54-.056.78-.158l-4.28-4.279v2.437a2 2 0 0 0 2 2"/><path stroke="currentColor" stroke-linecap="round" stroke-linejoin="round" stroke-width="1.5" d="M21.25 13.321V12A9.25 9.25 0 0 0 7.217 4.08m14.033 9.241h-4a1.5 1.5 0 0 0-1.5 1.5v1.992m5.5-3.492v4.765m-18.5-.718V12c0-2.284.828-4.374 2.2-5.988m10.8 10.801v2.437a2 2 0 0 0 2 2h1.5c.276 0 .54-.056.78-.158m-4.28-4.279 4.28 4.28m-4.28-4.28-10.8-10.8m0 0L2.217 3.28m18.5 18.5-.689-.689M2.75 13.322h4a1.5 1.5 0 0 1 1.5 1.5v4.428a2 2 0 0 1-2 2h-1.5a2 2 0 0 1-2-2z"/></svg>