<svg xmlns="http://www.w3.org/2000/svg" width="24" height="24" fill="none" viewBox="0 0 24 24"><path stroke="currentColor" stroke-linecap="round" stroke-linejoin="round" stroke-width="1.5" d="m4.095 3.298 15.81-.048m-15.81 17.5 15.81-.048"/><path stroke="currentColor" stroke-linejoin="round" stroke-width="1.5" d="M18.426 3.31H5.574l.079 1.449a7.38 7.38 0 0 0 2.251 4.913l1.242 1.195a1.58 1.58 0 0 1 0 2.279L7.904 14.34a7.38 7.38 0 0 0-2.251 4.913l-.08 1.448h12.853l-.079-1.445a7.38 7.38 0 0 0-2.256-4.917l-1.242-1.194a1.58 1.58 0 0 1 0-2.28l1.242-1.193a7.38 7.38 0 0 0 2.256-4.918z"/></svg>