<svg xmlns="http://www.w3.org/2000/svg" width="24" height="24" fill="none" viewBox="0 0 24 24"><path stroke="currentColor" stroke-linecap="round" stroke-linejoin="round" stroke-width="1.5" d="m20.754 4.792-2.84 14.31a1.5 1.5 0 0 1-1.099 1.161l-4.442 1.141a1.5 1.5 0 0 1-.746 0l-4.442-1.14a1.5 1.5 0 0 1-1.098-1.162L3.246 4.792A1.5 1.5 0 0 1 4.717 3h14.566a1.5 1.5 0 0 1 1.471 1.792"/><path stroke="currentColor" stroke-linecap="round" stroke-linejoin="round" stroke-width="1.5" d="M17.3 6.881H8.944a1 1 0 0 0-.987 1.16l.577 3.576a1 1 0 0 0 .987.841h5.374a1 1 0 0 1 .978 1.205l-.562 2.683a1 1 0 0 1-.653.74l-2.283.786a1 1 0 0 1-.66-.003L8.99 16.9"/></svg>