<svg xmlns="http://www.w3.org/2000/svg" width="24" height="24" fill="none" viewBox="0 0 24 24"><path stroke="currentColor" stroke-linejoin="round" stroke-width="1.387" d="M14.775 2.75a6.475 6.475 0 1 1-3.38 11.998c-.137-.085-.32.011-.32.173v1.129a1.5 1.5 0 0 1-1.5 1.5h-1.2a1 1 0 0 0-1 1v1.2a1.5 1.5 0 0 1-1.5 1.5H4.25a1.5 1.5 0 0 1-1.5-1.5v-2.297a2 2 0 0 1 .586-1.414l4.566-4.566c.376-.376.511-.923.446-1.452a6.475 6.475 0 0 1 6.427-7.271Z"/><circle cx="15.5" cy="8.5" r="1.75" fill="currentColor"/></svg>