<svg xmlns="http://www.w3.org/2000/svg" width="24" height="24" fill="none" viewBox="0 0 24 24"><path stroke="currentColor" stroke-linecap="round" stroke-linejoin="round" stroke-width="1.5" d="m3.503 11.913 6.601-8.252a2.428 2.428 0 0 1 3.792 0l6.6 8.251c.83 1.037.092 2.573-1.235 2.573h-4.095v3.725c0 1.064 0 1.596-.207 2.003a1.9 1.9 0 0 1-.83.83c-.406.207-.938.207-2.002.207h-.254c-1.064 0-1.596 0-2.002-.207a1.9 1.9 0 0 1-.83-.83c-.207-.407-.207-.939-.207-2.003v-3.725H4.739c-1.327 0-2.065-1.536-1.236-2.572"/></svg>