<svg xmlns="http://www.w3.org/2000/svg" width="24" height="24" fill="none" viewBox="0 0 24 24"><path stroke="currentColor" stroke-linecap="round" stroke-linejoin="round" stroke-width="1.5" d="m7.35 8.1 1.93 1.93m5.277 3.663L8 20.25m4.872-13.162a6.5 6.5 0 0 1 2.082-.338h3.055c1.222 0 1.833 0 2.3.238.41.209.744.543.953.953.238.467.238 1.078.238 2.3v3.055a6.546 6.546 0 0 1-13.062.625m4.434-6.833a5.09 5.09 0 0 0-4.78-3.338H5.714c-.95 0-1.425 0-1.788.185a1.7 1.7 0 0 0-.742.742C3 5.04 3 5.515 3 6.465v2.376a5.09 5.09 0 0 0 5.438 5.08m4.434-6.833A6.57 6.57 0 0 0 9.28 10.03m-.842 3.89a6.5 6.5 0 0 1 .842-3.89"/></svg>