<svg xmlns="http://www.w3.org/2000/svg" width="24" height="24" fill="none" viewBox="0 0 24 24"><path stroke="currentColor" stroke-linecap="round" stroke-linejoin="round" stroke-width="1.5" d="M8.526 7.499a4.75 4.75 0 0 1 4.75-4.75h2.217c.887 0 1.33 0 1.669.172.298.152.54.394.692.692.172.339.172.782.172 1.669v2.217c0 .433-.058.853-.167 1.252m-10.716 2.84 2.3 2.301m5.624 1.288-6.071 6.071M12.012 9.81a6.03 6.03 0 0 1 3.423-1.059h2.424M12.012 9.81a4.85 4.85 0 0 0-4.163-2.361H5.586c-.905 0-1.358 0-1.704.176a1.6 1.6 0 0 0-.706.706C3 8.677 3 9.13 3 10.035v2.262a4.85 4.85 0 0 0 6.7 4.483m2.312-6.97a6.1 6.1 0 0 0-1.54 1.523 6 6 0 0 0-1.029 2.56M17.86 8.75h.404c1.132 0 1.698 0 2.13.22.38.194.689.503.883.884.22.432.22.997.22 2.129v2.828A6.06 6.06 0 0 1 9.7 16.78m-.258-2.888A6.1 6.1 0 0 0 9.7 16.78"/></svg>