<svg xmlns="http://www.w3.org/2000/svg" width="24" height="24" fill="none" viewBox="0 0 24 24"><rect width="1.48" height="1.48" x="12.671" y="5.713" fill="currentColor" rx=".74"/><rect width="1.48" height="1.48" x="10.38" y="5.713" fill="currentColor" rx=".74"/><path fill="currentColor" d="m17.06 11.837-.603.445zm-9.59 0 .604.445zm2.223 9.204.65.375zm-2.354.828.271-.699zm1.894-3.28.47-.586zm-3.339-1.66.65.375zm1.03-.193.47-.585zm-2.691 3.071-.65-.375zm.347.99-.272.698zm10.823.946-.375.65zm-.828-2.354-.699-.272zm3.281 1.894-.585-.47zm1.659-3.339-.375.65zm.193 1.03.585.47zm-3.071-2.692-.375.65zm-.989.348.7.272zm-5.835 4.166-.696-.28zm-3.377-4.21.062.748zm8.016 3.671.747-.068zM9.95 20.1l.75.006zm-.738-1.528-.469.585zm.597-1.214c0-.955.32-2.128.842-3.05.551-.975 1.16-1.397 1.615-1.397v-1.5c-1.316 0-2.311 1.082-2.92 2.158-.639 1.128-1.037 2.553-1.037 3.789zm0-11.152c0-1.356 1.1-2.456 2.457-2.456v-1.5a3.956 3.956 0 0 0-3.957 3.956zm0 1.954V6.206h-1.5V8.16zm-2.748 7.208c0-1.157.376-2.223 1.013-3.086l-1.207-.89a6.68 6.68 0 0 0-1.306 3.976zm9.396-3.086a5.18 5.18 0 0 1 1.013 3.086h1.5a6.68 6.68 0 0 0-1.305-3.977zm-1.735-6.076V8.16h1.5V6.206zM12.266 3.75c1.356 0 2.456 1.1 2.456 2.456h1.5a3.956 3.956 0 0 0-3.956-3.956zm5.399 7.641c-.815-1.104-1.443-2.139-1.443-3.23h-1.5c0 1.635.93 3.03 1.735 4.12zm-9.356-3.23c0 1.091-.628 2.127-1.442 3.23l1.207.89c.805-1.09 1.735-2.485 1.735-4.12zm-3.427 12.02 1.662-2.878-1.3-.75-1.661 2.878zm2.728.988-2.758-1.073-.544 1.398 2.759 1.073zm1.434-.504a1.166 1.166 0 0 1-1.434.504l-.543 1.398a2.67 2.67 0 0 0 3.276-1.152zm-5.461-1.234a1.44 1.44 0 0 0 .725 2.063l.544-1.398a.06.06 0 0 1 .03.085zm15.54-.927-1.852 2.308 1.17.94 1.852-2.31zm-1.852 2.308c-.36.45-.994.569-1.493.28l-.75 1.3c1.14.658 2.59.386 3.413-.64zm1.869-2.22a.06.06 0 0 1-.017-.088l1.17.939a1.44 1.44 0 0 0-.403-2.15zm-2.128-2.96a1.44 1.44 0 0 0-2.063.725l1.398.544a.06.06 0 0 1-.085.03zm-1.234 5.46a1.16 1.16 0 0 1-.487-.545l-1.376.597c.22.509.602.952 1.113 1.248zm-1.47-.936a5.2 5.2 0 0 1-2.042.415v1.5c.932 0 1.823-.19 2.632-.536zm-5.191.36a1 1 0 0 1-.073.15l1.299.75q.096-.168.166-.342zm3.149.055a5.2 5.2 0 0 1-2.144-.46l-.618 1.367a6.7 6.7 0 0 0 2.762.593zM7.17 16.434a5.2 5.2 0 0 1-.11-1.066h-1.5c0 .469.05.928.141 1.371zm-.626.87a.1.1 0 0 1-.021.021l-.025.009-.124-1.495a1.44 1.44 0 0 0-1.13.715zm-.046.03a.06.06 0 0 1-.043-.013l.939-1.17a1.44 1.44 0 0 0-1.02-.312zm10.972-1.966c0 .514-.074 1.009-.212 1.476l1.439.425a6.7 6.7 0 0 0 .273-1.901zm-1.208 1.564 1.34.774.75-1.3-1.34-.773zm1.34.774 1.538.887.75-1.299-1.538-.887zm-2.328 1.954.89-2.289-1.397-.544-.89 2.29zm.89-2.289.183-.469-1.398-.544-.182.47zm-3.898-4.46c.435 0 1.014.385 1.554 1.293.513.861.85 1.977.896 2.932l1.499-.073c-.06-1.206-.471-2.56-1.106-3.626-.608-1.021-1.576-2.026-2.843-2.026zm3.025 7.637a1.2 1.2 0 0 1-.092-.36l-1.493.138c.026.283.097.56.209.819zm-.092-.36a1.2 1.2 0 0 1 .075-.528l-1.398-.543a2.66 2.66 0 0 0-.17 1.209zm-6.436-1.015c.287.23.44.572.437.92l1.5.013a2.67 2.67 0 0 0-.998-2.103zm.437.92a1.2 1.2 0 0 1-.083.423l1.392.559c.126-.314.188-.642.191-.969zm.738-1.71a4 4 0 0 1-.129-1.025h-1.5c0 .486.062.958.177 1.403zm-3.483-1.062 2.288 1.836.939-1.17-2.288-1.836zm2.288 1.836.02.016.94-1.17-.021-.016zM11.08 8.272a.6.6 0 0 0-.46.984l1.185 1.423a.6.6 0 0 0 .922 0l1.185-1.423a.6.6 0 0 0-.46-.984z"/></svg>