<svg xmlns="http://www.w3.org/2000/svg" width="24" height="24" fill="none" viewBox="0 0 24 24"><rect width="1.48" height="1.48" x="12.671" y="5.713" fill="currentColor" rx=".74"/><rect width="1.48" height="1.48" x="10.381" y="5.713" fill="currentColor" rx=".74"/><path stroke="currentColor" stroke-linecap="round" stroke-linejoin="round" stroke-width="1.5" d="M14.603 20.846a1.916 1.916 0 0 0 3.253.436l1.852-2.308a.69.69 0 0 0-.193-1.03l-1.538-.888m-3.374 3.79a5.9 5.9 0 0 1-2.337.476 5.9 5.9 0 0 1-2.453-.526m4.79.05a1.92 1.92 0 0 1-.028-1.457l.89-2.29m-5.652 3.697a1.916 1.916 0 0 1-2.474 1.074L4.58 20.795a.69.69 0 0 1-.347-.989l1.661-2.878a.69.69 0 0 1 .542-.343m3.377 4.21a1.92 1.92 0 0 0-.58-2.207l-.02-.017m-2.777-1.986a6 6 0 0 1-.125-1.218 5.92 5.92 0 0 1 1.16-3.531c.809-1.098 1.588-2.313 1.588-3.677V6.206a3.206 3.206 0 1 1 6.413 0V8.16c0 1.364.78 2.58 1.589 3.676a5.93 5.93 0 0 1 1.16 3.532c0 .586-.085 1.153-.244 1.688m-11.541-.47a.7.7 0 0 1 .488.15l2.288 1.836m8.766-1.516-1.341-.774a.69.69 0 0 0-.989.348l-.182.47m0 0c-.106-2.161-1.498-4.939-3.2-4.939-1.771 0-3.207 3.007-3.207 5.197 0 .423.054.831.153 1.214"/><path fill="currentColor" d="M11.08 8.272a.6.6 0 0 0-.46.984l1.185 1.423a.6.6 0 0 0 .922 0l1.185-1.423a.6.6 0 0 0-.461-.984z"/></svg>