<svg xmlns="http://www.w3.org/2000/svg" width="24" height="24" fill="none" viewBox="0 0 24 24"><path stroke="currentColor" stroke-width="1.5" d="m8.784 19.283-1.251.75c-.632.378-.948.568-1.272.637-.44.094-.897.037-1.3-.16-.298-.147-.558-.408-1.08-.93-.52-.52-.781-.781-.927-1.079a2 2 0 0 1-.16-1.3c.068-.325.258-.642.636-1.274l4.356-7.282c.718-1.2 1.077-1.8 1.57-2.061.433-.23.935-.291 1.41-.175.544.133 1.038.628 2.026 1.617l2.636 2.638c.988.989 1.482 1.483 1.616 2.026.116.476.054.979-.175 1.412-.261.494-.86.853-2.06 1.572l-1.27.761m-4.755 2.848a2.778 2.778 0 0 0 4.463.744 2.784 2.784 0 0 0 .291-3.592m-4.754 2.848 4.754-2.848"/><path stroke="currentColor" stroke-linecap="round" stroke-linejoin="round" stroke-width="1.5" d="M20.007 4.404 17.542 6.87m3.709 3.007h-2.49m-4.224-6.719V5.65"/></svg>