<svg width="24" height="24" viewBox="0 0 24 24" fill="none" xmlns="http://www.w3.org/2000/svg">
<path d="M7.14164 15.9008L4.64119 15.2729C3.52948 14.9938 2.75 13.9944 2.75 12.8482V10.7805C2.75 9.63424 3.52948 8.63486 4.64119 8.35572L18.1412 4.96611C19.7197 4.56978 21.25 5.76337 21.25 7.39085V16.2378C21.25 17.8653 19.7197 19.0589 18.1412 18.6626L12.9506 17.3593M7.14164 15.9008C7.04965 16.1888 7 16.4958 7 16.8143C7 18.4712 8.34315 19.8143 10 19.8143C11.4708 19.8143 12.6943 18.756 12.9506 17.3593M7.14164 15.9008L12.9506 17.3593" stroke="currentColor" stroke-width="1.5"/>
</svg>
