<svg width="24" height="24" viewBox="0 0 24 24" fill="none" xmlns="http://www.w3.org/2000/svg">
<path d="M16.625 20.0107C14.8616 21.0289 12.8115 21.4367 10.7926 21.1709C8.77381 20.9051 6.8991 19.9806 5.45926 18.5407C4.01942 17.1009 3.09492 15.2262 2.82913 13.2074C2.56335 11.1885 2.97114 9.13844 3.98926 7.375C5.00738 5.61157 6.57893 4.23335 8.46018 3.45412C10.3414 2.67488 12.4272 2.53817 14.3941 3.06519C16.3609 3.59221 18.0989 4.7535 19.3385 6.36896C20.5781 7.98442 21.25 9.96376 21.25 12V13.5C21.25 14.8807 20.1307 16 18.75 16V16C17.3693 16 16.25 14.8807 16.25 13.5V12M16.25 12C16.25 14.3472 14.3472 16.25 12 16.25C9.65279 16.25 7.75 14.3472 7.75 12C7.75 9.65279 9.65279 7.75 12 7.75C14.3472 7.75 16.25 9.65279 16.25 12ZM16.25 12V7.75" stroke="#212325" stroke-width="1.5" stroke-linecap="round" stroke-linejoin="round"/>
</svg>
