<svg xmlns="http://www.w3.org/2000/svg" width="24" height="24" fill="none" viewBox="0 0 24 24"><path stroke="currentColor" stroke-linecap="round" stroke-linejoin="round" stroke-width="1.5" d="M2.76 12a9.25 9.25 0 0 0 11.527 8.968M2.761 12a9.25 9.25 0 0 1 9.25-9.25c3.795 0 7.996 1.777 9.017 6.798.223 1.1.09 2.258-.463 3.235-.582 1.025-1.559 2.182-3.01 2.182-.55.088-4.164.176-3.979-1.312A2.27 2.27 0 0 0 14.287 12M2.761 12s.444-4.849 5.78-4.833C14.117 7.184 14.288 12 14.288 12m0 0a2.277 2.277 0 0 0-2.277-2.277c-.642 0-1.636.694-1.636.694m3.913 10.55a9.26 9.26 0 0 0 5.406-3.814c.185-.275.058-.694-.26-.6a.5.5 0 0 0-.174.092c-1.364.617-4.22 1.12-6.685-.257-1.5-.838-2.374-2.135-2.639-3.202-.099-.255-.201-.896-.201-1.186 0-.615.243-1.173.64-1.583m3.913 10.55s-6.012.49-6.546-5.053c-.297-3.09 1.307-4.702 2.633-5.497"/></svg>