<svg xmlns="http://www.w3.org/2000/svg" width="24" height="24" fill="none" viewBox="0 0 24 24"><path stroke="currentColor" stroke-linecap="round" stroke-width="1.5" d="m2.75 21.25 18.5-18.5"/><path fill="currentColor" d="M15.199 11.398a3.199 3.199 0 0 1-5.14 2.543l5.14-5.14z"/><path fill="currentColor" d="M8.051 11.125a.75.75 0 0 0 1.5 0zm-2.08.277a.75.75 0 0 0-1.5 0zm13.558 0a.75.75 0 0 0-1.5 0zM11.25 20.75a.75.75 0 0 0 1.5 0zm3.949-11.949h.75v-1.81l-1.28 1.28zm-7.188 7.122a.75.75 0 0 0-.993 1.124zm2.048-1.982-.53-.53-.606.606.68.52zm4.129-8.594a.75.75 0 0 0 1.339-.676zm-9.132 8.97a.75.75 0 1 0 1.383-.582zm4.495-3.192V6.449h-1.5v4.676zm4.898.273A2.45 2.45 0 0 1 12 13.848v1.5a3.95 3.95 0 0 0 3.949-3.95zM12 2.5a3.95 3.95 0 0 0-3.949 3.949h1.5A2.45 2.45 0 0 1 12 4zm6.029 8.902c0 3.33-2.7 6.03-6.029 6.03v1.5a7.53 7.53 0 0 0 7.529-7.53zm-6.779 6.78v2.568h1.5v-2.569zM14.449 8.8v2.597h1.5V8.801zM12 17.431a6 6 0 0 1-3.989-1.508l-.993 1.124A7.5 7.5 0 0 0 12 18.932zm0-3.584c-.56 0-1.073-.187-1.486-.502l-.91 1.192c.664.508 1.496.81 2.396.81zM12 4c.955 0 1.784.546 2.188 1.347l1.339-.676A3.95 3.95 0 0 0 12 2.5zm-5.561 9.735a6 6 0 0 1-.468-2.333h-1.5c0 1.032.208 2.017.585 2.914zm8.23-5.464-5.14 5.14 1.06 1.06 5.14-5.14z"/></svg>