<svg xmlns="http://www.w3.org/2000/svg" width="24" height="24" fill="none" viewBox="0 0 24 24"><path fill="currentColor" d="M12 14.597a3.2 3.2 0 0 0 3.199-3.199V9.864l-4.47 4.47c.39.17.82.263 1.271.263"/><path stroke="currentColor" stroke-linecap="round" stroke-linejoin="round" stroke-width="1.5" d="M12 18.181a6.78 6.78 0 0 0 6.779-6.779M12 18.182v2.568m0-2.569a6.75 6.75 0 0 1-3.89-1.227m-2.89-5.552c0 1.1.262 2.14.727 3.058m-2.666 7.322 4.827-4.828M21.782 3.282l-6.583 6.582m0 0v1.534a3.2 3.2 0 0 1-4.47 2.937m4.47-4.47-4.47 4.47m0 0-2.62 2.62m.734-5.035a3 3 0 0 1-.042-.522v-4.95a3.199 3.199 0 0 1 6.391-.208"/></svg>