<svg width="24" height="24" viewBox="0 0 24 24" fill="none" xmlns="http://www.w3.org/2000/svg">
<path d="M11.5777 3.51233C9.31103 5.98692 9.37583 9.83175 11.7721 12.228C14.1683 14.6243 18.0132 14.6891 20.4878 12.4224C20.6139 12.3069 20.7937 12.2668 20.9537 12.3272C21.1302 12.3938 21.2447 12.5667 21.2293 12.7548C21.0566 14.8641 20.1633 16.9254 18.5497 18.5391C14.9353 22.1535 9.07529 22.1535 5.46095 18.5391C1.8466 14.9248 1.8466 9.06475 5.46095 5.4504C7.07464 3.83671 9.13598 2.94348 11.2452 2.77072C11.4333 2.75531 11.6063 2.86984 11.6729 3.04641C11.7333 3.20641 11.6932 3.38622 11.5777 3.51233Z" stroke="currentColor" stroke-width="1.5" stroke-linejoin="round"/>
</svg>
