<svg width="24" height="24" viewBox="0 0 24 24" fill="none" xmlns="http://www.w3.org/2000/svg">
<path d="M8.96224 17.9681V6.69594C8.96224 6.01952 9.41497 5.42678 10.0676 5.2488L18.2182 3.02588C19.1725 2.76565 20.1129 3.48397 20.1129 4.47303V15.9407M8.96224 9.92182L20.1129 6.88073" stroke="#212325" stroke-width="1.5" stroke-linecap="round" stroke-linejoin="round"/>
<path d="M8.96219 17.9681C8.96219 19.6476 7.60065 21.0092 5.9211 21.0092C4.24154 21.0092 2.88 19.6476 2.88 17.9681C2.88 16.2885 4.24154 14.927 5.9211 14.927C7.60065 14.927 8.96219 16.2885 8.96219 17.9681Z" stroke="#212325" stroke-width="1.5" stroke-linecap="round" stroke-linejoin="round"/>
<path d="M20.1129 15.9406C20.1129 17.6202 18.7513 18.9817 17.0718 18.9817C15.3922 18.9817 14.0307 17.6202 14.0307 15.9406C14.0307 14.2611 15.3922 12.8995 17.0718 12.8995C18.7513 12.8995 20.1129 14.2611 20.1129 15.9406Z" stroke="#212325" stroke-width="1.5" stroke-linecap="round" stroke-linejoin="round"/>
</svg>
