<svg xmlns="http://www.w3.org/2000/svg" width="24" height="24" fill="none" viewBox="0 0 24 24"><path fill="currentColor" d="M7.183 16.958h.75a.75.75 0 0 0-.75-.75zm.839 4.16.508.552zm4.52-4.16v-.75a.75.75 0 0 0-.508.199zM3.839 6.75A3.25 3.25 0 0 1 7.09 3.5V2a4.75 4.75 0 0 0-4.75 4.75zm0 6.208V6.75h-1.5v6.208zm3.25 3.25a3.25 3.25 0 0 1-3.25-3.25h-1.5a4.75 4.75 0 0 0 4.75 4.75zm.072 0H7.09v1.5h.072zm.022 0h-.022v1.5h.022zm.75 4.542v-3.792h-1.5v3.792zm-.419-.184a.25.25 0 0 1 .42.184h-1.5c0 1.09 1.295 1.657 2.096.92zm4.52-4.16-4.52 4.16L8.53 21.67l4.52-4.16zm4.877-.198h-4.37v1.5h4.37zm3.25-3.25a3.25 3.25 0 0 1-3.25 3.25v1.5a4.75 4.75 0 0 0 4.75-4.75zm0-6.208v6.208h1.5V6.75zM16.91 3.5a3.25 3.25 0 0 1 3.25 3.25h1.5A4.75 4.75 0 0 0 16.91 2zm-9.822 0h9.822V2H7.089z"/><path stroke="currentColor" stroke-linecap="round" stroke-linejoin="round" stroke-width="1.5" d="M12 14V6m3.25 5.788V8.212m-6.5 3.576V8.212"/></svg>