<svg xmlns="http://www.w3.org/2000/svg" width="24" height="24" fill="none" viewBox="0 0 24 24"><path stroke="currentColor" stroke-linecap="round" stroke-linejoin="round" stroke-width="1.5" d="M9.75 8.5v7.964c0 .866-.456 1.626-1.142 2.052-.745.463-1.672.13-2.432-.308l-1.43-.826a2.07 2.07 0 0 1-1.034-1.792V8.41c0-.74.394-1.423 1.035-1.792l6.218-3.59a2.07 2.07 0 0 1 2.07 0l6.218 3.59a2.07 2.07 0 0 1 1.035 1.792v7.18a2.07 2.07 0 0 1-1.035 1.792l-6.218 3.59a2.07 2.07 0 0 1-2.07 0l-.989-.57"/><path stroke="currentColor" stroke-linecap="round" stroke-linejoin="round" stroke-width="1.5" d="M17.29 8.5h-2.75a1.75 1.75 0 0 0-1.75 1.75v0c0 .966.784 1.75 1.75 1.75h1c.966 0 1.75.784 1.75 1.75v0a1.75 1.75 0 0 1-1.75 1.75h-2.75"/></svg>