<svg xmlns="http://www.w3.org/2000/svg" width="24" height="24" fill="none" viewBox="0 0 24 24"><path fill="currentColor" fill-rule="evenodd" d="M6.5 12a5.5 5.5 0 1 0 0-11 5.5 5.5 0 0 0 0 11m0-8.993a.5.5 0 0 1 .5.5V6h2.493a.5.5 0 0 1 0 1H7v2.493a.5.5 0 1 1-1 0V7H3.507a.5.5 0 0 1 0-1H6V3.507a.5.5 0 0 1 .5-.5" clip-rule="evenodd"/><path stroke="currentColor" stroke-linecap="round" stroke-linejoin="round" stroke-width="1.5" d="M20.5 14h-1.7c-1.68 0-2.52 0-3.162.327a3 3 0 0 0-1.311 1.311C14 16.28 14 17.12 14 18.8v1.7M15.5 8H14m-2.5 4H13m.75-8h.35c2.24 0 3.36 0 4.216.436a4 4 0 0 1 1.748 1.748c.436.856.436 1.976.436 4.216v3.449c0 .978 0 1.468-.11 1.928-.099.408-.26.798-.48 1.156-.247.404-.593.75-1.285 1.442l-.25.25c-.692.692-1.038 1.038-1.442 1.286a4 4 0 0 1-1.156.479c-.46.11-.95.11-1.928.11H10.4c-2.24 0-3.36 0-4.216-.436a4 4 0 0 1-1.748-1.748C4 17.46 4 16.34 4 14.1v-.35"/></svg>