<svg xmlns="http://www.w3.org/2000/svg" width="24" height="24" fill="none" viewBox="0 0 24 24"><path fill="currentColor" d="m14.805 10.432.375-.65zm-8.162-5.32-.65-.374zm6.18-1.656.375-.65zm2.463.46v-.75zm4.525 4.525h.75zm.832 2.363.65-.375zm-1.656 6.182.375.65zm-1.63 1.901.65.375zm-6.18 1.657-.375.65zm-2.463-.46v.75zM4.19 15.559h-.75zm-.832-2.363-.65.375zm1.656-6.18-.375-.65zm10.117-.01.374-.65-.374-.216-.376.216zm2.76 5.207h.75v-.433l-.375-.216zM9.195 6.817l-.375-.65a.75.75 0 0 0-.375.65zm5.61 10.364.375.65a.75.75 0 0 0 .375-.65zm-5.845-.134-.375.649a.75.75 0 0 0 .75 0zM6.11 11.89h-.75a.75.75 0 0 0 .374.65zM12 8.812l-.375.65 2.805 1.62.375-.65.375-.65-2.805-1.62zm2.805 1.62h-.75v3.24h1.5v-3.24zm0 3.24-.375-.65-2.805 1.62.375.65.375.649 2.805-1.62zM12 15.292l.375-.65-2.805-1.62-.375.65-.375.65 2.805 1.619zm-2.805-1.62h.75v-3.24h-1.5v3.24zm0-3.24.375.65 2.805-1.62-.375-.65-.375-.65-2.805 1.62zm-2.552-5.32.65.376a3.775 3.775 0 0 1 5.155-1.382l.375-.65.375-.65a5.275 5.275 0 0 0-7.205 1.932zm6.18-1.656-.375.65q.441.256.786.603l.53-.53.53-.53a5.3 5.3 0 0 0-1.096-.842zm.941.723.252.706a3.8 3.8 0 0 1 1.27-.219v-1.5c-.621 0-1.219.108-1.774.307zm1.522-.263v.75a3.775 3.775 0 0 1 3.775 3.775h1.5a5.275 5.275 0 0 0-5.275-5.275zm4.525 4.525h-.75q-.002.511-.13.983l.724.194.724.195a5.3 5.3 0 0 0 .182-1.372zm-.156 1.177-.486.572c.321.272.602.603.825.99l.65-.376.649-.375a5.3 5.3 0 0 0-1.152-1.382zm.988 1.186-.65.375a3.775 3.775 0 0 1-1.381 5.157l.375.65.375.65a5.275 5.275 0 0 0 1.93-7.207zm-1.656 6.182-.375-.65c-.293.17-.6.293-.916.377l.194.725.194.725c.435-.117.866-.29 1.277-.528zm-1.097.452-.738-.135a3.8 3.8 0 0 1-.444 1.21l.65.374.649.375c.31-.538.515-1.11.62-1.69zm-.533 1.45-.65-.376a3.775 3.775 0 0 1-5.155 1.382l-.375.65-.375.65a5.275 5.275 0 0 0 7.205-1.932zm-6.18 1.656.375-.65a3.8 3.8 0 0 1-.787-.604l-.53.53-.532.53c.32.32.688.606 1.099.843zm-.943-.724-.252-.706a3.8 3.8 0 0 1-1.268.22v1.5a5.3 5.3 0 0 0 1.772-.308zm-1.52.264v-.75a3.775 3.775 0 0 1-3.775-3.775h-1.5a5.275 5.275 0 0 0 5.275 5.275zM4.19 15.559h.75q.001-.512.13-.983l-.725-.194-.724-.195a5.3 5.3 0 0 0-.18 1.372zm.155-1.177.486-.572c-.32-.272-.6-.603-.823-.99l-.65.376-.65.375c.31.537.703 1 1.151 1.382zm-.987-1.186.65-.375a3.774 3.774 0 0 1 1.38-5.156l-.374-.65-.375-.65a5.274 5.274 0 0 0-1.93 7.206zm1.656-6.18.375.649a3.8 3.8 0 0 1 .915-.38l-.194-.724-.194-.725a5.3 5.3 0 0 0-1.277.53zm1.096-.455.738.135c.075-.413.222-.821.445-1.208l-.649-.375-.65-.375a5.3 5.3 0 0 0-.622 1.688zM12 8.812l.375.65 1.565-.903 1.565-.904-.376-.65-.374-.649-1.565.903-1.565.904zm2.805 1.62-.375.65 3.085 1.78.375-.649.375-.65-3.085-1.78zm3.085 7.006h.75v-5.225h-1.5v5.225zm-8.695-7.006h.75V6.817h-1.5v3.615zm5.61 3.24h-.75v3.509h1.5v-3.51zM12 15.292l-.375-.65-3.04 1.755.375.65.375.649 3.04-1.755zM6.11 6.56h-.75v5.33h1.5V6.56zm3.085 7.11.375-.649-3.086-1.781-.375.65-.375.649L8.82 14.32zm5.935-6.665-.376.65 4.526 2.612.375-.65.375-.65-4.526-2.612zm-5.935-.189.375.65 4.57-2.639-.376-.65-.375-.649-4.57 2.639zm1.04 13.003.374.65 4.571-2.64-.375-.65-.375-.649-4.57 2.64zm-5.89-5.438-.376.65 4.616 2.664.375-.65.375-.649-4.616-2.665z"/></svg>