<svg xmlns="http://www.w3.org/2000/svg" width="24" height="24" fill="none" viewBox="0 0 24 24"><path fill="currentColor" d="M8.6 1.418a.64.64 0 0 0-1.2 0l-.167.45a4 4 0 0 1-2.366 2.365l-.449.166a.64.64 0 0 0 0 1.202l.45.166a4 4 0 0 1 2.365 2.366l.166.449a.64.64 0 0 0 1.202 0l.166-.45a4 4 0 0 1 2.366-2.365l.449-.166a.64.64 0 0 0 0-1.202l-.45-.166a4 4 0 0 1-2.365-2.366zM3.876 7.261a.4.4 0 0 0-.752 0l-.103.281a2.5 2.5 0 0 1-1.479 1.479l-.28.103a.4.4 0 0 0 0 .752l.28.103a2.5 2.5 0 0 1 1.479 1.479l.103.28a.4.4 0 0 0 .752 0l.103-.28a2.5 2.5 0 0 1 1.479-1.479l.28-.103a.4.4 0 0 0 0-.752l-.28-.103a2.5 2.5 0 0 1-1.479-1.479z"/><path stroke="currentColor" stroke-linejoin="round" stroke-width="1.5" d="M10.781 11.832A4.795 4.795 0 0 0 4.75 16.46v3.79a1 1 0 0 0 1 1h3.79a4.79 4.79 0 0 0 4.628-6.03m-3.387-3.388a4.8 4.8 0 0 1 3.387 3.387m-3.387-3.387 3.19-3.19m.197 6.577 3.19-3.19m-3.387-3.387 3.19-3.19a2.395 2.395 0 0 1 3.387 3.387l-3.19 3.19m-3.387-3.387 3.387 3.387"/></svg>