<svg xmlns="http://www.w3.org/2000/svg" width="24" height="24" fill="none" viewBox="0 0 24 24"><path stroke="currentColor" stroke-linecap="round" stroke-linejoin="round" stroke-width="1.5" d="M5.32 5.75a3 3 0 0 1 3-3h7.36a3 3 0 0 1 3 3V12H5.32z"/><path fill="currentColor" d="M5.32 12v-.75a.75.75 0 0 0-.75.75zm13.36 0h.75a.75.75 0 0 0-.75-.75zm-8.479 4.111h.75a.75.75 0 0 0-.75-.75zm3.598 0v-.75a.75.75 0 0 0-.75.75zm-8.48-3.361h13.362v-1.5H5.319zm.75 1.861V12h-1.5v2.611zm.75.75a.75.75 0 0 1-.75-.75h-1.5a2.25 2.25 0 0 0 2.25 2.25zm3.382 0H6.82v1.5h3.382zm.75 4.09v-3.34h-1.5v3.34zM12 20.5c-.58 0-1.049-.47-1.049-1.049h-1.5A2.55 2.55 0 0 0 12 22zm1.049-1.049c0 .58-.47 1.049-1.049 1.049V22a2.55 2.55 0 0 0 2.549-2.549zm0-3.34v3.34h1.5v-3.34zm4.132-.75h-3.382v1.5h3.382zm.75-.75a.75.75 0 0 1-.75.75v1.5a2.25 2.25 0 0 0 2.25-2.25zm0-2.611v2.611h1.5V12z"/><path stroke="currentColor" stroke-linecap="round" stroke-linejoin="round" stroke-width="1.5" d="M15.5 2.75V6.5m-3-3.75v2.5"/></svg>