<svg xmlns="http://www.w3.org/2000/svg" width="24" height="24" fill="none" viewBox="0 0 24 24"><path stroke="currentColor" stroke-linejoin="round" stroke-width="1.5" d="m18.677 13.35-1.923 3.17c-.985 2.093 1.314 4.206 3.317 3.05a2.36 2.36 0 0 0 .864-3.225z"/><path stroke="currentColor" stroke-linecap="round" stroke-linejoin="round" stroke-width="1.5" d="m8.778 3.558 6.972 6.972M8.778 3.558 4.38 7.956c-.901.9-1.352 1.351-1.52 1.87a2.3 2.3 0 0 0-.112.704m6.03-6.972-1.06-1.059m8.032 8.031-4.398 4.398c-.9.9-1.351 1.351-1.871 1.52-.457.149-.95.149-1.406 0-.52-.169-.97-.62-1.871-1.52L4.38 13.104c-.901-.9-1.352-1.351-1.52-1.87a2.3 2.3 0 0 1-.112-.704m13.002 0H2.748m10.188 9.971H3.748"/></svg>