<svg width="24" height="24" viewBox="0 0 24 24" fill="none" xmlns="http://www.w3.org/2000/svg">
<path d="M7.79169 21.25H16.2084C18.1414 21.25 19.7084 19.683 19.7084 17.75V12.2195C19.7084 11.2914 19.3397 10.4013 18.6835 9.74492L12.7152 3.77538C12.0588 3.11885 11.1684 2.75 10.2401 2.75H7.79169C5.85869 2.75 4.29169 4.317 4.29169 6.25V17.75C4.29169 19.683 5.85869 21.25 7.79169 21.25Z" stroke="currentColor" stroke-width="1.5" stroke-linecap="round" stroke-linejoin="round"/>
<path d="M11.6875 3.10999V8.77056C11.6875 9.87513 12.5829 10.7706 13.6875 10.7706H19.35" stroke="currentColor" stroke-width="1.5" stroke-linecap="round" stroke-linejoin="round"/>
<path d="M7.25 16.5V15.5M7.25 15.5V13.5H8.25C8.80228 13.5 9.25 13.9477 9.25 14.5V14.5C9.25 15.0523 8.80228 15.5 8.25 15.5H7.25Z" stroke="currentColor" stroke-linecap="round" stroke-linejoin="round"/>
<path d="M11.25 16.5V13.5H11.75C12.5784 13.5 13.25 14.1716 13.25 15C13.25 15.8284 12.5784 16.5 11.75 16.5H11.25Z" stroke="currentColor" stroke-linecap="round" stroke-linejoin="round"/>
<path d="M15.25 16.5V15.25M16.75 13.5H15.25V15.25M15.25 15.25H16.75" stroke="currentColor" stroke-linecap="round" stroke-linejoin="round"/>
</svg>
