<svg xmlns="http://www.w3.org/2000/svg" width="24" height="24" fill="none" viewBox="0 0 24 24"><path stroke="currentColor" stroke-linecap="round" stroke-linejoin="round" stroke-width="1.5" d="M7.792 21.25h8.416a3.5 3.5 0 0 0 3.5-3.5v-5.53a3.5 3.5 0 0 0-1.024-2.475l-5.969-5.97A3.5 3.5 0 0 0 10.24 2.75H7.792a3.5 3.5 0 0 0-3.5 3.5v11.5a3.5 3.5 0 0 0 3.5 3.5"/><path fill="currentColor" fill-rule="evenodd" d="M10.437 7.141c-.239.078-.392.236-.436.411-.09.352 0 .73.253 1.203.126.234.28.471.45.725l.092.137.145.215.019-.068.086-.306q.148-.503.23-1.02c.089-.642-.011-1.018-.309-1.26-.08-.065-.278-.119-.53-.037m.055 4.152-.27-.362-.032-.048c-.115-.19-.243-.38-.382-.585l-.1-.149a10 10 0 0 1-.512-.828c-.31-.578-.558-1.286-.358-2.067.17-.664.698-1.081 1.227-1.254.517-.168 1.174-.147 1.66.247.792.644.848 1.573.739 2.357a9 9 0 0 1-.261 1.174l-.096.34q-.112.382-.208.769l-.067.194 1.392 1.864c.65-.078 1.364-.125 2.03-.077.769.054 1.595.242 2.158.776a1.56 1.56 0 0 1 .395 1.441c-.117.48-.454.88-.919 1.123-.985.515-1.902.105-2.583-.416-.533-.407-1.045-.975-1.476-1.453l-.104-.114c-.37.057-.72.121-1.004.175-.305.057-.684.128-1.096.22l-.151.443q-.125.288-.238.58l-.122.303a8 8 0 0 1-.427.91c-.33.578-.857 1.192-1.741 1.241-1.184.066-1.986-.985-1.756-2.108l.006-.027c.2-.791.894-1.31 1.565-1.653.597-.306 1.294-.532 1.941-.701zm.87 1.165-.287.843.421-.08.004-.001.38-.07zm2.84 1.604c.274.29.547.56.831.777.55.42.94.493 1.299.305.2-.105.284-.241.309-.342a.35.35 0 0 0-.08-.309c-.257-.228-.722-.38-1.392-.428a8 8 0 0 0-.967-.003m-5.005.947c-.318.109-.62.23-.89.368-.587.3-.87.604-.944.867-.078.415.192.673.516.655.27-.015.506-.184.766-.639q.204-.372.358-.767l.107-.266z" clip-rule="evenodd"/></svg>