<svg xmlns="http://www.w3.org/2000/svg" width="24" height="24" fill="none" viewBox="0 0 24 24"><path stroke="currentColor" d="m11.79 10.673-.058.265a9.8 9.8 0 0 1-1.368 3.286m1.425-3.551.467-2.136c.162-.738-.556-1.316-1.11-.894-.297.226-.407.665-.26 1.037l.246.617q.286.719.657 1.376Zm0 0a10.4 10.4 0 0 0 2.064 2.596m0 0 2.255-.286c.632-.08 1.09.671.806 1.32-.207.474-.721.649-1.121.382l-.851-.568a9.4 9.4 0 0 1-1.089-.848Zm0 0-.095.013a12.3 12.3 0 0 0-3.394.942m0 0q-.626.274-1.228.618l-1.706.975c-.475.271-.577.994-.202 1.423.332.379.88.338 1.165-.087l1.91-2.837z"/><path stroke="currentColor" stroke-linecap="round" stroke-linejoin="round" stroke-width="1.5" d="M7.792 21.25h8.416a3.5 3.5 0 0 0 3.5-3.5v-5.53a3.5 3.5 0 0 0-1.024-2.475l-5.969-5.97A3.5 3.5 0 0 0 10.24 2.75H7.792a3.5 3.5 0 0 0-3.5 3.5v11.5a3.5 3.5 0 0 0 3.5 3.5"/></svg>