<svg xmlns="http://www.w3.org/2000/svg" width="24" height="24" fill="none" viewBox="0 0 24 24"><path stroke="currentColor" stroke-linecap="round" stroke-linejoin="round" stroke-width="1.5" d="m14.44 5.78 2.229-2.23a1.6 1.6 0 0 1 2.263 0l1.518 1.518a1.6 1.6 0 0 1 0 2.263l-2.23 2.23M14.44 5.78l3.78 3.78m-3.78-3.78-1.815 1.814m5.596 1.967L7.98 19.8a2 2 0 0 1-1.124.565l-3.775.553.553-3.774A2 2 0 0 1 4.2 16.02l3.312-3.312"/><path fill="currentColor" d="M4.4 1.418a.64.64 0 0 1 1.2 0l.167.45a4 4 0 0 0 2.366 2.365l.449.166a.64.64 0 0 1 0 1.202l-.45.166a4 4 0 0 0-2.365 2.366l-.166.449a.64.64 0 0 1-1.202 0l-.166-.45a4 4 0 0 0-2.366-2.365l-.449-.166a.64.64 0 0 1 0-1.202l.45-.166a4 4 0 0 0 2.365-2.366zm4.724 5.843a.4.4 0 0 1 .752 0l.103.281a2.5 2.5 0 0 0 1.479 1.479l.28.103a.4.4 0 0 1 0 .752l-.28.103a2.5 2.5 0 0 0-1.479 1.479l-.103.28a.4.4 0 0 1-.752 0l-.103-.28a2.5 2.5 0 0 0-1.479-1.479l-.28-.103a.4.4 0 0 1 0-.752l.28-.103a2.5 2.5 0 0 0 1.479-1.479z"/></svg>