<svg xmlns="http://www.w3.org/2000/svg" width="24" height="24" fill="none" viewBox="0 0 24 24"><path stroke="currentColor" stroke-linecap="round" stroke-linejoin="round" stroke-width="1.5" d="M13.322 7.209c0 .749-.237 1.442-.64 2.009a3.42 3.42 0 0 1-2.796 1.45c-1.898 0-3.436-1.55-3.436-3.46S7.988 3.75 9.886 3.75a3.445 3.445 0 0 1 3.436 3.459M2.75 18.107c0-2.677 3.545-4.774 7.136-4.774 1.432 0 2.857.333 4.053.904 1.803.86 3.084 2.26 3.082 3.87v1.143a1 1 0 0 1-1 1H3.75a1 1 0 0 1-1-1zM15.172 3.75a3.445 3.445 0 0 1 3.435 3.459c0 .749-.236 1.442-.639 2.009a3.42 3.42 0 0 1-2.796 1.45m3.452 2.569c1.536.86 2.628 2.763 2.626 4.373v2.64"/></svg>