<svg xmlns="http://www.w3.org/2000/svg" width="24" height="24" fill="none" viewBox="0 0 24 24"><path stroke="currentColor" stroke-linecap="round" stroke-linejoin="round" stroke-width="1.5" d="M12.933 7.28a3.3 3.3 0 0 1-3.305 3.305 3.305 3.305 0 1 1 3.305-3.305m2.714 12.745c.475 0 .86-.41.86-.917v-1.143c.002-1.547-1.234-2.893-2.972-3.72a9.2 9.2 0 0 0-3.906-.87c-3.462 0-6.879 2.016-6.879 4.59v1.143c0 .506.385.917.86.917zm3.353 0h1.333c.506 0 .917-.41.917-.917V18.2c.002-1.562-1.514-2.892-3.521-3.575M15.434 5.89a2.929 2.929 0 1 1-1.807 5.551"/></svg>