<svg xmlns="http://www.w3.org/2000/svg" width="24" height="24" fill="none" viewBox="0 0 24 24"><path stroke="currentColor" stroke-linecap="round" stroke-linejoin="round" stroke-width="1.5" d="m17.603 18.25.107-.002-.085-.096-3.052-3.644m3.03 3.742h.647a3 3 0 0 0 2.952-2.465m-3.599 2.465H8.75a3 3 0 0 1-3-3v-.583m8.824-.159-2.943-3.513a1.823 1.823 0 0 0-2.796 0l-3.084 3.672m8.822-.159.195-.237 1.196-1.429a1.823 1.823 0 0 1 2.803.008l2.435 2.935M5.751 14.667V5.75a3 3 0 0 1 3-3h9.499a3 3 0 0 1 3 3v9.5q0 .274-.048.535"/><circle cx="16.318" cy="7.682" r="1.368" fill="currentColor"/><path stroke="currentColor" stroke-linecap="round" stroke-width="1.5" d="M2.75 6.75v8.5a6 6 0 0 0 6 6h8.5"/></svg>