<svg xmlns="http://www.w3.org/2000/svg" width="24" height="24" fill="none" viewBox="0 0 24 24"><path stroke="currentColor" stroke-linecap="round" stroke-linejoin="round" stroke-width="1.5" d="M20.33 17.657c.11-.366.17-.755.17-1.157v-9a4 4 0 0 0-4-4h-9a4 4 0 0 0-4 4v9.07m16.83 1.087-.088-.104-2.466-2.976a2 2 0 0 0-3.073-.008l-1.312 1.566-.214.261m7.153 1.26a4 4 0 0 1-3.713 2.842m0 0-.117.002h-9a4 4 0 0 1-4-3.93m13.117 3.928-.093-.106-3.347-3.996m-9.676.175.177-.201 3.206-3.827a2 2 0 0 1 3.066 0l3.227 3.853"/><circle cx="15.091" cy="8.909" r="1.5" fill="currentColor"/></svg>