<svg xmlns="http://www.w3.org/2000/svg" width="24" height="24" fill="none" viewBox="0 0 24 24"><path stroke="currentColor" stroke-linecap="round" stroke-linejoin="round" stroke-width="1.5" d="M13.177 3.5H16.5a4 4 0 0 1 4 4v9c0 .402-.06.79-.17 1.157M3.5 13.875v2.695m16.83 1.087-.088-.104-2.466-2.976a2 2 0 0 0-3.073-.008l-1.312 1.566-.214.261m7.153 1.26a4 4 0 0 1-3.713 2.842m0 0-.117.002h-9a4 4 0 0 1-4-3.93m13.117 3.928-.093-.106-3.347-3.996m-9.676.175.177-.201 3.206-3.827a2 2 0 0 1 3.066 0l3.227 3.853"/><circle cx="15.091" cy="8.909" r="1.5" fill="currentColor"/><path fill="currentColor" d="M8.6 1.418a.64.64 0 0 0-1.2 0l-.167.45a4 4 0 0 1-2.366 2.365l-.449.166a.64.64 0 0 0 0 1.202l.45.166a4 4 0 0 1 2.365 2.366l.166.449a.64.64 0 0 0 1.202 0l.166-.45a4 4 0 0 1 2.366-2.365l.449-.166a.64.64 0 0 0 0-1.202l-.45-.166a4 4 0 0 1-2.365-2.366zM3.876 7.261a.4.4 0 0 0-.752 0l-.103.281a2.5 2.5 0 0 1-1.479 1.479l-.28.103a.4.4 0 0 0 0 .752l.28.103a2.5 2.5 0 0 1 1.479 1.479l.103.28a.4.4 0 0 0 .752 0l.103-.28a2.5 2.5 0 0 1 1.479-1.479l.28-.103a.4.4 0 0 0 0-.752l-.28-.103a2.5 2.5 0 0 1-1.479-1.479z"/></svg>