<svg xmlns="http://www.w3.org/2000/svg" width="24" height="24" fill="none" viewBox="0 0 24 24"><path stroke="currentColor" stroke-linecap="round" stroke-linejoin="round" stroke-width="1.5" d="M9.25 18.25h-3.5a3 3 0 0 1-3-3v-8.5a3 3 0 0 1 3-3h12.5a3 3 0 0 1 3 3v3.5"/><rect width="12" height="10" x="11" y="12" fill="currentColor" rx="2"/><path stroke="currentColor" stroke-linecap="round" stroke-linejoin="round" stroke-width="1.5" d="M10 7.667V10.4a.6.6 0 0 1-.176.424M6.667 11H9.4a.6.6 0 0 0 .424-.176M6 7l3 3 .824.824"/></svg>