<svg xmlns="http://www.w3.org/2000/svg" width="24" height="24" fill="none" viewBox="0 0 24 24"><path stroke="currentColor" stroke-linecap="round" stroke-linejoin="round" stroke-width="1.5" d="m7.77 16.233-4.02 4.02m11.123-5.38c-.32.41-.562.885-.704 1.4l-.689 2.5a1.5 1.5 0 0 1-2.507.663L4.568 13.03a1.5 1.5 0 0 1 .662-2.507l2.5-.688c.515-.142.99-.384 1.4-.705m1.62-2.63.944-2.464a2 2 0 0 1 3.282-.7l5.69 5.691a2 2 0 0 1-.698 3.282l-2.603.996"/><path stroke="currentColor" stroke-linecap="round" stroke-width="1.5" d="M21.25 21.25 2.75 2.75"/></svg>