<svg xmlns="http://www.w3.org/2000/svg" width="24" height="24" fill="none" viewBox="0 0 24 24"><path stroke="currentColor" stroke-linecap="round" stroke-linejoin="round" stroke-width="1.5" d="m7.77 16.233-4.02 4.02m16.968 1.529-6.258-6.26M2.217 3.283 8.48 9.545m5.979 5.979q-.183.357-.292.75l-.688 2.5a1.5 1.5 0 0 1-2.507.663L4.568 13.03a1.5 1.5 0 0 1 .662-2.507l2.5-.688a4 4 0 0 0 .75-.291m5.98 5.979-5.98-5.98m1.765-1.775q.087-.175.158-.36l1.291-3.372a2 2 0 0 1 3.282-.7l5.69 5.691a2 2 0 0 1-.698 3.282L16.595 13.6q-.184.07-.36.159"/></svg>