<svg xmlns="http://www.w3.org/2000/svg" width="24" height="24" fill="none" viewBox="0 0 24 24"><path stroke="currentColor" stroke-linecap="round" stroke-linejoin="round" stroke-width="1.5" d="M18.388 15.002c-.562-1.996-1.658-5.06-4.896-6.93-3.237-1.869-6.44-1.286-8.449-.775m13.345 7.705 1.562-.906c.952-.552 1.54-1.579 1.252-2.64-.5-1.838-1.876-4.76-5.655-6.942s-6.998-1.912-8.84-1.426c-1.063.28-1.658 1.304-1.66 2.404l-.004 1.805m13.345 7.705L8.1 20.97c-1.37.794-3.083-.195-3.08-1.779l.024-11.894"/><path fill="currentColor" d="M10.023 17.25a1.5 1.5 0 1 1-2.597-1.5 1.5 1.5 0 0 1 2.597 1.5m4.557-3.053a1.798 1.798 0 1 1-3.114-1.798 1.798 1.798 0 0 1 3.114 1.798M8.325 11.3a1.8 1.8 0 0 1-3.295 1.003v-2.007A1.8 1.8 0 0 1 8.325 11.3"/></svg>