<svg xmlns="http://www.w3.org/2000/svg" width="24" height="24" fill="none" viewBox="0 0 24 24"><circle cx="12" cy="12" r="9.25" stroke="currentColor" stroke-linecap="round" stroke-linejoin="round" stroke-width="1.5"/><path stroke="currentColor" stroke-width="1.5" d="M8.93 13.29c0 1.098 0 1.646.23 1.964.202.277.51.456.85.492.391.041.867-.232 1.818-.779l2.244-1.29c.957-.55 1.435-.825 1.595-1.185.14-.313.14-.671 0-.984-.16-.36-.639-.635-1.595-1.184l-2.244-1.291c-.951-.547-1.427-.82-1.817-.779-.34.036-.65.215-.85.492-.23.318-.23.866-.23 1.963z"/></svg>