<svg xmlns="http://www.w3.org/2000/svg" width="24" height="24" fill="none" viewBox="0 0 24 24"><path stroke="currentColor" stroke-linecap="round" stroke-linejoin="round" stroke-width="1.5" d="M6.75 17v1.05c0 1.12 0 1.68.218 2.108a2 2 0 0 0 .874.874c.428.218.988.218 2.108.218h4.1c1.12 0 1.68 0 2.108-.218a2 2 0 0 0 .874-.874c.218-.428.218-.988.218-2.108V17m-10.5 0v-1.05c0-1.12 0-1.68.218-2.108a2 2 0 0 1 .874-.874c.428-.218.988-.218 2.108-.218h4.1c1.12 0 1.68 0 2.108.218a2 2 0 0 1 .874.874c.218.428.218.988.218 2.108V17m-10.5 0h-.8c-1.12 0-1.68 0-2.108-.218a2 2 0 0 1-.874-.874c-.218-.428-.218-.988-.218-2.108v-3c0-1.68 0-2.52.327-3.162a3 3 0 0 1 1.311-1.311C5.03 6 5.87 6 7.55 6h8.9c1.68 0 2.52 0 3.162.327a3 3 0 0 1 1.311 1.311c.327.642.327 1.482.327 3.162v3c0 1.12 0 1.68-.218 2.108a2 2 0 0 1-.874.874C19.73 17 19.17 17 18.05 17h-.8M6.75 4.25a1.5 1.5 0 0 1 1.5-1.5h7.5a1.5 1.5 0 0 1 1.5 1.5V6H6.75z"/></svg>