<svg width="24" height="24" viewBox="0 0 24 24" fill="none" xmlns="http://www.w3.org/2000/svg">
<path d="M7.8168 8.80819C7.8168 8.12026 7.98646 7.44295 8.31075 6.83625C8.63504 6.22955 9.10394 5.71219 9.67594 5.33C10.2479 4.9478 10.9053 4.71257 11.59 4.64514C12.2746 4.57772 12.9653 4.68017 13.6008 4.94343C14.2364 5.20669 14.7972 5.62263 15.2336 6.1544C15.6701 6.68618 15.9686 7.31738 16.1028 7.99209C16.237 8.6668 16.2027 9.3642 16.0031 10.0225C15.8591 10.4971 15.6323 10.9409 15.3347 11.3339C15.3313 11.3383 15.3296 11.3405 15.202 11.4792C15.1374 11.5494 14.9123 11.7647 14.8393 11.8261C14.6951 11.9474 14.6253 11.9956 14.4856 12.0919L12.9694 13.1375C12.2083 13.6623 11.7539 14.5276 11.7539 15.4521" stroke="currentColor" stroke-width="1.5" stroke-linecap="round" stroke-linejoin="round"/>
<circle cx="11.7539" cy="19.1408" r="0.98428" fill="currentColor"/>
</svg>
