<svg xmlns="http://www.w3.org/2000/svg" width="24" height="24" fill="none" viewBox="0 0 24 24"><path stroke="currentColor" stroke-linecap="round" stroke-linejoin="round" stroke-width="1.5" d="M18.41 9.16a6.4 6.4 0 0 1-2.426 5.02A6.38 6.38 0 0 1 12 15.57c-1.506 0-2.89-.52-3.984-1.388A6.41 6.41 0 1 1 18.41 9.16"/><path stroke="currentColor" stroke-linecap="round" stroke-linejoin="round" stroke-width="1.5" d="M15.984 14.18v7.07L12 18.267 8.016 21.25v-7.07"/><path fill="currentColor" d="M11.455 6.74c.179-.307.268-.461.385-.513a.4.4 0 0 1 .32 0c.117.052.206.206.385.513l.488.838a1 1 0 0 0 .112.168q.045.047.106.076a1 1 0 0 0 .194.055l.947.205c.348.075.522.113.607.208.075.083.11.193.1.304-.014.127-.133.26-.37.525l-.646.723a1 1 0 0 0-.125.159.4.4 0 0 0-.04.123 1 1 0 0 0 .008.202l.098.964c.036.355.054.532-.01.642a.4.4 0 0 1-.26.188c-.124.027-.287-.045-.612-.188l-.887-.391a1 1 0 0 0-.19-.07.4.4 0 0 0-.13 0 1 1 0 0 0-.19.07l-.886.39c-.326.144-.49.216-.614.19a.4.4 0 0 1-.259-.189c-.064-.11-.046-.287-.01-.642l.098-.964c.01-.102.015-.153.008-.202a.4.4 0 0 0-.04-.123 1 1 0 0 0-.125-.159L9.27 9.12c-.238-.265-.356-.398-.37-.525a.4.4 0 0 1 .1-.304c.085-.095.259-.133.607-.208l.947-.205c.1-.022.15-.033.194-.055a.4.4 0 0 0 .106-.076 1 1 0 0 0 .112-.168z"/></svg>