<svg xmlns="http://www.w3.org/2000/svg" width="24" height="24" fill="none" viewBox="0 0 24 24"><path stroke="currentColor" stroke-linecap="round" stroke-linejoin="round" stroke-width="1.5" d="M13.604 4.683a4.04 4.04 0 0 1 5.713 5.713l-7.32 7.32-5.712-5.713z"/><path stroke="currentColor" stroke-linecap="round" stroke-linejoin="round" stroke-width="1.5" d="M15.568 14.145a4.04 4.04 0 0 1 0 5.713L13.426 22l-1.429-1.428a2.02 2.02 0 0 1 0-2.857zM9.855 8.432a4.04 4.04 0 0 0-5.713 0L2 10.575l1.428 1.428a2.02 2.02 0 0 0 2.857 0z"/><path fill="currentColor" d="M9.32 17.894a4 4 0 0 1-.943.698c-.34.179-.695.297-1.043.346-.348.05-.683.03-.986-.057a1.8 1.8 0 0 1-.778-.451 1.8 1.8 0 0 1-.451-.778 2.4 2.4 0 0 1-.057-.986c.05-.348.167-.703.346-1.043.18-.341.417-.661.698-.942z"/><circle cx="15.918" cy="8.082" r="1.5" fill="currentColor" transform="rotate(45 15.918 8.082)"/></svg>