<svg xmlns="http://www.w3.org/2000/svg" width="24" height="24" fill="none" viewBox="0 0 24 24"><path stroke="currentColor" stroke-linecap="round" stroke-linejoin="round" stroke-width="1.5" d="M12 15.75v-2.386c0-2.807-1.342-5.266-3.354-6.63M12 15.75c-3.948 0-7.149-3.55-7.149-7.93V5.599H5c1.336 0 2.584.415 3.646 1.135M12 15.75v-3.151a7 7 0 0 1 3.326-5.96M12 15.75c3.948 0 7.149-3.2 7.149-7.149V5.599H19c-1.348 0-2.606.38-3.674 1.04m0 0a3.5 3.5 0 0 0-.863-1.426L12 2.75 9.537 5.213a3.47 3.47 0 0 0-.891 1.521M12 14.75v6.5m6.712-3.875a7.75 7.75 0 0 1-13.424 0"/></svg>