<svg xmlns="http://www.w3.org/2000/svg" width="24" height="24" fill="none" viewBox="0 0 24 24"><path stroke="currentColor" stroke-linecap="round" stroke-linejoin="round" stroke-width="1.5" d="M7.558 3.75H7.25a3.5 3.5 0 0 0-3.5 3.5v9.827a3.173 3.173 0 0 0 3.173 3.173m.635-16.5v2.442a2 2 0 0 0 2 2h2.346a2 2 0 0 0 2-2V3.75m-6.346 0h6.346m0 0h.026a3 3 0 0 1 2.122.879l3.173 3.173a3.5 3.5 0 0 1 .903 1.558M6.923 20.25V15a3 3 0 0 1 3-3h4.154q.353 0 .683.078M6.923 20.25H9.33"/><path fill="currentColor" d="M14.586 21.436a2.5 2.5 0 0 0 1.219-.674l5.454-5.45a2.526 2.526 0 1 0-3.57-3.572l-5.453 5.452a2.5 2.5 0 0 0-.674 1.222l-.536 2.354a1.007 1.007 0 0 0 1.206 1.206z"/></svg>