<svg xmlns="http://www.w3.org/2000/svg" width="24" height="24" fill="none" viewBox="0 0 24 24"><path stroke="currentColor" stroke-linecap="round" stroke-linejoin="round" stroke-width="1.5" d="M7.558 3.75v1.27c0 1.094 0 1.641.208 2.061a2 2 0 0 0 .903.903c.42.208.967.208 2.062.208s1.642 0 2.062-.208a2 2 0 0 0 .902-.903c.209-.42.209-.967.209-2.062V3.75m-6.346 0h6.346m-6.346 0c-.751 0-1.126 0-1.438.067A3 3 0 0 0 3.817 6.12c-.067.312-.067.687-.067 1.438v9.519c0 .16 0 .241.003.309a3 3 0 0 0 2.861 2.86c.068.004.148.004.31.004m6.98-16.5h.052a3 3 0 0 1 2.078.86l.037.037 2.773 2.774c.519.519.778.778.964 1.081a3 3 0 0 1 .36.867c.028.12.047.242.059.381M6.923 20.25V16c0-1.4 0-2.1.273-2.635a2.5 2.5 0 0 1 1.092-1.092C8.823 12 9.523 12 10.923 12h2.154c1.168 0 1.849 0 2.353.158M6.923 20.25H9.75"/><path fill="currentColor" d="M21.796 12.204a2.4 2.4 0 0 0-1.546-.7 2.4 2.4 0 0 0-1.854.7l-1.47 1.47-4.305 4.306a2.3 2.3 0 0 0-.635 1.172l-.21 1.098-.261 1.371a.74.74 0 0 0 .195.67.74.74 0 0 0 .669.194l2.469-.47a2.3 2.3 0 0 0 1.172-.636l5.776-5.776a2.404 2.404 0 0 0 0-3.399"/></svg>