<svg xmlns="http://www.w3.org/2000/svg" width="24" height="24" fill="none" viewBox="0 0 24 24"><path fill="currentColor" d="M12.748 2.75h-7a3 3 0 0 0-3 3v7a3 3 0 0 0 3 3h2.504v-4.5a3 3 0 0 1 3-3h4.496v-2.5a3 3 0 0 0-3-3"/><path stroke="currentColor" stroke-linecap="round" stroke-linejoin="round" stroke-width="1.5" d="M8.252 15.75v2.5a3 3 0 0 0 3 3h7a3 3 0 0 0 3-3v-7a3 3 0 0 0-3-3h-2.504m-7.496 7.5v-4.5a3 3 0 0 1 3-3h4.496m-7.496 7.5H5.748a3 3 0 0 1-3-3v-7a3 3 0 0 1 3-3h7a3 3 0 0 1 3 3v2.5"/></svg>