<svg xmlns="http://www.w3.org/2000/svg" width="24" height="24" fill="none" viewBox="0 0 24 24"><path stroke="currentColor" stroke-linecap="round" stroke-linejoin="round" stroke-width="1.5" d="M20.25 10.907V7.272c0-.829-.633-1.521-1.453-1.644-.951-.142-2.18-.376-3.078-.722-.907-.349-1.997-1.007-2.762-1.505a1.76 1.76 0 0 0-1.914 0c-.764.498-1.855 1.156-2.762 1.505-.899.346-2.127.58-3.078.722-.82.123-1.453.815-1.453 1.644v3.635a10.13 10.13 0 0 0 5.363 8.939l.23.123 1.962.946a1.6 1.6 0 0 0 1.39 0l1.961-.946.23-.123a10.13 10.13 0 0 0 5.364-8.939M9.5 9.5l5 5m0-5-5 5"/></svg>