<svg xmlns="http://www.w3.org/2000/svg" width="24" height="24" fill="none" viewBox="0 0 24 24"><path stroke="currentColor" stroke-linecap="round" stroke-linejoin="round" stroke-width="1.5" d="M17.99 17.284c2.225-1.528 3.26-3.442 3.26-6.164 0-4.62-4.141-8.37-9.25-8.37S2.75 6.5 2.75 11.12c0 2.722 1.437 4.636 3.663 6.164-.175.61-.132 2.251.187 2.78.414.687 1.219 1.186 1.87 1.186.743 0 1.396-.474 1.765-1.186.37.712 1.022 1.186 1.765 1.186s1.396-.473 1.765-1.186c.37.713 1.022 1.186 1.765 1.186.651 0 1.454-.499 1.94-1.186.374-.529.52-2.17.52-2.78"/><path fill="currentColor" d="M5.75 10.25a2.5 2.5 0 0 1 5 0v1a1.5 1.5 0 0 1-1.5 1.5h-1a2.5 2.5 0 0 1-2.5-2.5m7.5 0a2.5 2.5 0 1 1 2.5 2.5h-1a1.5 1.5 0 0 1-1.5-1.5zm-1.773 2.93-1.224 2.176a.6.6 0 0 0 .523.894h2.448a.6.6 0 0 0 .523-.894l-1.224-2.176a.6.6 0 0 0-1.046 0"/></svg>