<svg xmlns="http://www.w3.org/2000/svg" width="24" height="24" fill="none" viewBox="0 0 24 24"><path fill="currentColor" d="m15 11.327-3-2.18-3 2.18 1.146 3.526h3.708zm6.25.673c0-2.41-.921-4.604-2.43-6.25v3.397l2.341 4.14q.089-.632.089-1.287M15.5 3.435A9.2 9.2 0 0 0 12 2.75c-1.239 0-2.42.243-3.5.685l3.5 1.69zM5.18 5.75A9.22 9.22 0 0 0 2.75 12q0 .656.089 1.286l2.342-4.14zM7.5 18.031 3.962 16.58a9.27 9.27 0 0 0 5.875 4.416zm6.663 2.965a9.27 9.27 0 0 0 5.875-4.416L16.5 18.031z"/><path stroke="currentColor" stroke-linecap="round" stroke-linejoin="round" stroke-width="1.5" d="M12 9.147V5.125m0 4.022 3 2.18m-3-2.18-3 2.18m4.854 3.526 2.646 3.178m-2.646-3.178h-3.708m3.708 0L15 11.326m-4.854 3.527L7.5 18.031m2.646-3.178L9 11.326m0 0-3.82-2.18M12 5.126l-3.5-1.69m3.5 1.69 3.5-1.69m0 0A9.2 9.2 0 0 0 12 2.75c-1.239 0-2.42.243-3.5.685m7 0a9.3 9.3 0 0 1 3.32 2.315m0 0A9.22 9.22 0 0 1 21.25 12q0 .656-.089 1.286M18.82 5.75v3.397M8.5 3.435A9.3 9.3 0 0 0 5.18 5.75m0 0A9.22 9.22 0 0 0 2.75 12q0 .656.089 1.286M5.18 5.75v3.397m8.982 11.849A9.3 9.3 0 0 1 12 21.25a9.3 9.3 0 0 1-2.163-.254m4.326 0a9.27 9.27 0 0 0 5.875-4.416m-5.875 4.416L16.5 18.03m-6.663 2.965a9.27 9.27 0 0 1-5.875-4.416m5.875 4.416L7.5 18.03m12.538-1.451a9.2 9.2 0 0 0 1.123-3.294m-1.123 3.294L16.5 18.031m4.661-4.745-2.342-4.14M3.962 16.58 7.5 18.031M3.962 16.58a9.2 9.2 0 0 1-1.123-3.294m0 0 2.342-4.14m13.638 0L15 11.327"/></svg>