<svg xmlns="http://www.w3.org/2000/svg" width="24" height="24" fill="none" viewBox="0 0 24 24"><path fill="currentColor" stroke="currentColor" stroke-linejoin="round" stroke-width="1.5" d="m17.503 14.751.306.777c.3.763.904 1.366 1.666 1.667l.777.306-.777.307c-.762.3-1.365.904-1.666 1.666l-.306.777-.307-.777a2.96 2.96 0 0 0-1.666-1.666l-.777-.307.777-.306a2.96 2.96 0 0 0 1.666-1.667z"/><path stroke="currentColor" stroke-linejoin="round" stroke-width="1.5" d="M9.61 3.976c.08-.296.5-.296.58 0l.154.572a6.96 6.96 0 0 0 4.908 4.908l.572.154c.296.08.296.5 0 .58l-.572.154a6.96 6.96 0 0 0-4.908 4.908l-.154.572c-.08.296-.5.296-.58 0l-.154-.572a6.96 6.96 0 0 0-4.908-4.908l-.572-.154c-.296-.08-.296-.5 0-.58l.572-.154a6.96 6.96 0 0 0 4.908-4.908z"/></svg>