<svg xmlns="http://www.w3.org/2000/svg" width="24" height="24" fill="none" viewBox="0 0 24 24"><path stroke="currentColor" stroke-linecap="round" stroke-linejoin="round" stroke-width="1.5" d="m19.14 10.015-6.209-6.21a2 2 0 0 0-1.414-.585H6.115a2 2 0 0 0-2 2v5.402a2 2 0 0 0 .586 1.414l6.209 6.209a3 3 0 0 0 4.243 0l3.987-3.988a3 3 0 0 0 0-4.242"/><circle cx="8.562" cy="7.667" r="1.138" fill="currentColor" transform="rotate(-45 8.562 7.667)"/><path stroke="currentColor" stroke-linecap="round" stroke-linejoin="round" stroke-width="1.5" d="m3.701 14.456 5.795 5.794a5 5 0 0 0 7.07 0l3.696-3.694"/></svg>