<svg xmlns="http://www.w3.org/2000/svg" width="24" height="24" fill="none" viewBox="0 0 24 24"><path stroke="currentColor" stroke-linecap="round" stroke-linejoin="round" stroke-width="1.5" d="m19.14 10.015-6.209-6.21a2 2 0 0 0-1.414-.585H6.115a2 2 0 0 0-2 2v5.402a2 2 0 0 0 .586 1.414l6.21 6.209a3 3 0 0 0 4.242 0l3.987-3.988a3 3 0 0 0 0-4.242"/><circle cx="8.562" cy="7.667" r="1.138" fill="currentColor" transform="rotate(-45 8.562 7.667)"/><path fill="currentColor" d="m5.232 14.926 4.794 4.794a4.25 4.25 0 0 0 6.01 0l2.574-2.573 2.121-2.122a3.74 3.74 0 0 1-1.06 3.183l-2.574 2.573a5.75 5.75 0 0 1-8.131 0L4.17 15.986a2.75 2.75 0 0 1-.806-1.944v-.983z"/></svg>