<svg xmlns="http://www.w3.org/2000/svg" width="24" height="24" fill="none" viewBox="0 0 24 24"><path stroke="currentColor" stroke-linecap="round" stroke-linejoin="round" stroke-width="1.5" d="m2.75 18.345 1.992 2.037c.235.24.547.361.858.361m2.85-2.398-1.992 2.037c-.235.24-.547.361-.858.361M2.75 5.61l2.002-2.002c.234-.234.54-.351.848-.351M8.45 5.61l-2-2.002a1.2 1.2 0 0 0-.849-.351m0 17.486V3.257"/><path stroke="currentColor" stroke-linecap="round" stroke-width="1.5" d="M11.55 4.25h9.7m-9.7 15.5h9.7"/><path stroke="currentColor" stroke-linecap="round" stroke-linejoin="round" stroke-width="1.5" d="m13.12 15.594 1.171-2.752m0 0h4.219m-4.219 0 1.796-4.218a.335.335 0 0 1 .627 0l1.796 4.217m0 0 1.172 2.753"/></svg>