<svg width="24" height="24" viewBox="0 0 24 24" fill="none" xmlns="http://www.w3.org/2000/svg">
<path d="M7.125 4.5H21.625" stroke="currentColor" stroke-width="1.5" stroke-linecap="round" stroke-linejoin="round"/>
<path d="M7.125 19.5H21.625" stroke="currentColor" stroke-width="1.5" stroke-linecap="round" stroke-linejoin="round"/>
<path d="M14.125 9.5H21.625" stroke="currentColor" stroke-width="1.5" stroke-linecap="round" stroke-linejoin="round"/>
<path d="M14.125 14.5H21.625" stroke="currentColor" stroke-width="1.5" stroke-linecap="round" stroke-linejoin="round"/>
<path fill-rule="evenodd" clip-rule="evenodd" d="M6.875 16.5C9.36028 16.5 11.375 14.4853 11.375 12C11.375 9.51472 9.36028 7.5 6.875 7.5C4.38972 7.5 2.375 9.51472 2.375 12C2.375 14.4853 4.38972 16.5 6.875 16.5ZM4.87436 11.5C4.59821 11.5 4.37436 11.7238 4.37436 12C4.37436 12.2761 4.59821 12.5 4.87436 12.5H8.87563C9.15178 12.5 9.37563 12.2761 9.37563 12C9.37563 11.7238 9.15178 11.5 8.87563 11.5H4.87436Z" fill="currentColor"/>
</svg>
