<svg xmlns="http://www.w3.org/2000/svg" width="24" height="24" fill="none" viewBox="0 0 24 24"><path stroke="currentColor" stroke-linecap="round" stroke-linejoin="round" stroke-width="1.5" d="m2.25 18.25 1.875-4.404m0 0h6.75m-6.75 0L6.998 7.1a.536.536 0 0 1 1.004 0l2.873 6.747m0 0 1.875 4.404m9-4.948-.07-.014c-2.88-.557-6.308-.472-6.308 2.462 0 .824.464 1.598 1.14 2.02.67.417 1.515.429 2.305.429 1.086 0 2.277-.626 2.754-1.602q.137-.279.179-.633V14.84m0-1.537v-.587c0-.734-.085-1.704-.517-2.297-.47-.646-1.303-1.375-2.672-1.375-2.261 0-2.991 1.595-2.991 1.595m6.18 2.664v1.537m0 3.26v-3.26"/></svg>