<svg xmlns="http://www.w3.org/2000/svg" width="24" height="24" fill="none" viewBox="0 0 24 24"><path stroke="currentColor" stroke-linecap="round" stroke-linejoin="round" stroke-width="1.5" d="M10.25 5h10m-10 7h10m-10 7h10M3.75 3.75l2-1v4.5m-2 3.625a1.52 1.52 0 0 1 .626-.87 1.53 1.53 0 0 1 1.995.262c.565.64.019 1.58-.612 2.155L3.75 14.25h3m-3 2.5h2.986l-1.73 2.017a1.77 1.77 0 0 1 .907.112c.281.115.512.301.66.532.148.23.205.493.164.752-.04.26-.178.5-.392.692a1.6 1.6 0 0 1-.802.37 2.2 2.2 0 0 1-1.013-.087c-.285-.107-.622-.287-.78-.513"/></svg>