<svg xmlns="http://www.w3.org/2000/svg" width="24" height="24" fill="none" viewBox="0 0 24 24"><path fill="currentColor" fill-rule="evenodd" d="M7.75 3.75a4 4 0 0 0-4 4v8.5a4 4 0 0 0 4 4h8.5a4 4 0 0 0 4-4v-8.5a4 4 0 0 0-4-4zm2.986 8.437L12 9.295l1.264 2.892zm-.002 2.5h2.532l.88 2.014a1.75 1.75 0 0 0 3.207-1.402l-3.391-7.757c-.753-1.723-3.171-1.723-3.924 0l-3.391 7.757a1.75 1.75 0 0 0 3.206 1.402zm2.312-6.745 3.391 7.758a.75.75 0 1 1-1.374.6l-1.143-2.613h-3.84L8.937 16.3a.75.75 0 1 1-1.374-.6l3.391-7.758a1.136 1.136 0 0 1 2.092 0" clip-rule="evenodd"/></svg>