<svg width="24" height="24" viewBox="0 0 24 24" fill="none" xmlns="http://www.w3.org/2000/svg">
<path d="M4 4.75L16 19.25M4 19.25L14.6262 6.41" stroke="currentColor" stroke-width="1.5" stroke-linecap="round" stroke-linejoin="round"/>
<path d="M16.6765 4.66176C16.6765 4.34737 16.754 4.03783 16.9022 3.76057C17.0504 3.4833 17.2647 3.24686 17.5261 3.07219C17.7875 2.89752 18.088 2.79002 18.4008 2.75921C18.7137 2.72839 19.0294 2.77521 19.3198 2.89552C19.6103 3.01584 19.8666 3.20593 20.066 3.44895C20.2655 3.69198 20.4019 3.98045 20.4633 4.2888C20.5246 4.59715 20.5089 4.91587 20.4177 5.21672C20.3264 5.51757 20.1624 5.79128 19.9401 6.01359L17.0588 8.86765V9.25H20.4177" stroke="currentColor" stroke-width="1.5" stroke-linecap="round" stroke-linejoin="round"/>
</svg>
