<svg xmlns="http://www.w3.org/2000/svg" width="24" height="24" fill="none" viewBox="0 0 24 24"><circle cx="7.877" cy="8.25" r="1" fill="currentColor"/><path stroke="currentColor" stroke-linecap="round" stroke-width="1.5" d="M11.062 8.25h5.31"/><circle cx="7.877" cy="12" r="1" fill="currentColor"/><path stroke="currentColor" stroke-linecap="round" stroke-width="1.5" d="M11.062 12h1.31"/><circle cx="7.877" cy="15.75" r="1" fill="currentColor"/><path stroke="currentColor" stroke-linecap="round" stroke-width="1.5" d="M20.25 10.25v-2.5a4 4 0 0 0-4-4h-8.5a4 4 0 0 0-4 4v8.5a4 4 0 0 0 4 4h2.5"/><path fill="currentColor" fill-rule="evenodd" d="M17.5 23a5.5 5.5 0 1 0 0-11 5.5 5.5 0 0 0 0 11m0-8.993a.5.5 0 0 1 .5.5V17h2.493a.5.5 0 1 1 0 1H18v2.493a.5.5 0 1 1-1 0V18h-2.493a.5.5 0 1 1 0-1H17v-2.493a.5.5 0 0 1 .5-.5" clip-rule="evenodd"/></svg>