<svg xmlns="http://www.w3.org/2000/svg" width="24" height="24" fill="none" viewBox="0 0 24 24"><path stroke="currentColor" stroke-linecap="round" stroke-linejoin="round" stroke-width="1.5" d="M14.77 22.252h6.476m-9.69-7.733 5.925 5.925m-6.195-.808 1.078 1.078c.849.848 1.273 1.272 1.762 1.431.43.14.894.14 1.324 0 .49-.159.913-.583 1.762-1.431l3.502-3.502c.848-.849 1.272-1.273 1.431-1.762.14-.43.14-.894 0-1.324-.159-.49-.583-.913-1.431-1.762l-1.078-1.078c-.849-.848-1.273-1.272-1.762-1.431a2.14 2.14 0 0 0-1.324 0c-.49.159-.913.583-1.762 1.431l-3.502 3.502c-.848.849-1.272 1.273-1.431 1.762-.14.43-.14.894 0 1.324.159.49.583.913 1.431 1.762M2.75 12.427 4.328 8.72m0 0h5.68m-5.68 0 2.417-5.678a.45.45 0 0 1 .845 0l2.418 5.678m0 0 1.137 2.673M14.09 2.75v5.739l.112-.096a3.195 3.195 0 0 1 6.202.158"/></svg>