<svg xmlns="http://www.w3.org/2000/svg" width="24" height="24" fill="none" viewBox="0 0 24 24"><path stroke="currentColor" stroke-linecap="round" stroke-linejoin="round" stroke-width="1.5" d="M9.75 5.247h10M9.75 12h10m-10 6.753h10M3.694 4.123 5.494 3v4.493m-2.223 3.582A1.32 1.32 0 0 1 4.465 9.76a1.325 1.325 0 0 1 1.428 1.057 1.32 1.32 0 0 1-.363 1.192l-1.994 1.973v.265H5.86m-2.265 2.26h2.344l-2.103 1.927h1.037c.589 0 1.066.477 1.066 1.065s-.172 1.242-1.241 1.483c-.587.132-1.448-.482-1.448-.964"/></svg>