<svg xmlns="http://www.w3.org/2000/svg" width="24" height="24" fill="none" viewBox="0 0 24 24"><path fill="currentColor" fill-rule="evenodd" d="M14.453 12.928H9.547L12 7.63zM12 2.75a2.5 2.5 0 0 1 2.269 1.45l6.25 13.5a2.5 2.5 0 0 1-4.538 2.1l-1.56-3.372H9.58L8.019 19.8a2.5 2.5 0 0 1-4.538-2.1m5.14-2.772h6.758l1.964 4.242a1 1 0 1 0 1.814-.84l-6.25-13.5a1 1 0 0 0-1.815 0l-6.25 13.5a1 1 0 0 0 1.815.84zM12 2.75A2.5 2.5 0 0 0 9.731 4.2zM9.731 4.2l-6.25 13.5z" clip-rule="evenodd"/><path fill="currentColor" fill-rule="evenodd" d="M14.269 4.2a2.5 2.5 0 0 0-4.538 0l-6.25 13.5a2.5 2.5 0 0 0 4.538 2.1l1.56-3.372h4.841l1.561 3.372a2.5 2.5 0 0 0 4.538-2.1zM8.62 14.927h6.758l1.964 4.242a1 1 0 1 0 1.814-.84l-6.25-13.5a1 1 0 0 0-1.815 0l-6.25 13.5a1 1 0 0 0 1.815.84z" clip-rule="evenodd"/></svg>