<svg xmlns="http://www.w3.org/2000/svg" width="24" height="24" fill="none" viewBox="0 0 24 24"><path fill="currentColor" fill-rule="evenodd" stroke="currentColor" stroke-linecap="round" stroke-linejoin="round" stroke-width="1.5" d="M6.75 6.5c0-.966.784-1.75 1.75-1.75h3.551c2.135 0 3.849 1.75 3.849 3.888a3.9 3.9 0 0 1-1.114 2.735 4.11 4.11 0 0 1 2.464 3.765 4.12 4.12 0 0 1-4.125 4.112H8.5a1.75 1.75 0 0 1-1.75-1.75zm1.5 6.026V17.5c0 .138.112.25.25.25h4.625a2.62 2.62 0 0 0 2.625-2.612 2.62 2.62 0 0 0-2.625-2.612zm0-1.5h3.801c1.289 0 2.349-1.06 2.349-2.388S13.34 6.25 12.051 6.25H8.5a.25.25 0 0 0-.25.25z" clip-rule="evenodd"/></svg>