<svg xmlns="http://www.w3.org/2000/svg" width="24" height="24" fill="none" viewBox="0 0 24 24"><rect width="4.2" height="13.296" x="21.25" y="16.799" stroke="currentColor" stroke-linecap="round" stroke-linejoin="round" stroke-width="1.5" rx="1.5" transform="rotate(180 21.25 16.8)"/><path fill="currentColor" d="M17.05 11.447h.75a.75.75 0 0 0-.75-.75zm0 3.028.627.412a.75.75 0 0 0 .123-.412zm0-3.028h-.75c0 .415.336.75.75.75zm-12.285-6.1.723.196zm-1.958 7.187.723.197zm6.507 3.157h.75a.75.75 0 0 0-.75-.75zM13.02 20.6l-.626-.412zm3.28-9.152v3.028h1.5v-3.028zm.75.75v-1.5zm-.75-5.694v4.944h1.5V6.503zm-2.25-2.25a2.25 2.25 0 0 1 2.25 2.25h1.5a3.75 3.75 0 0 0-3.75-3.75zm-6.873 0h6.873v-1.5H7.177zm-1.689 1.29a1.75 1.75 0 0 1 1.689-1.29v-1.5A3.25 3.25 0 0 0 4.04 5.15zM3.53 12.731l1.958-7.188-1.447-.394-1.958 7.188zm1.689 2.21a1.75 1.75 0 0 1-1.689-2.21l-1.447-.394a3.25 3.25 0 0 0 3.136 4.104zm4.095 0H5.219v1.5h4.095zm.75 1.972V15.69h-1.5v1.222zm0 0h-1.5zm0 2.587v-2.587h-1.5V19.5zm1.25 1.25c-.69 0-1.25-.56-1.25-1.25h-1.5a2.75 2.75 0 0 0 2.75 2.75zm.036 0h-.036v1.5h.036zm1.044-.563a1.25 1.25 0 0 1-1.044.563v1.5a2.75 2.75 0 0 0 2.297-1.238zm4.03-6.125-4.03 6.125 1.253.825 4.03-6.125z"/></svg>