<svg xmlns="http://www.w3.org/2000/svg" width="24" height="24" fill="none" viewBox="0 0 24 24"><rect width="4.2" height="13.296" x="3.25" y="7.201" stroke="currentColor" stroke-linecap="round" stroke-linejoin="round" stroke-width="1.5" rx="1.5"/><path fill="currentColor" d="M7.45 12.553H6.7c0 .414.336.75.75.75zm0-3.027-.627-.413a.75.75 0 0 0-.123.413zm0 3.027h.75a.75.75 0 0 0-.75-.75zm12.285 6.1-.723-.196zm1.958-7.187-.723-.197zm-6.507-3.157h-.75c0 .414.336.75.75.75zM11.48 3.4l.626.412zM8.2 12.553V9.526H6.7v3.027zm-.75-.75v1.5zm.75 5.694v-4.944H6.7v4.944zm2.25 2.25a2.25 2.25 0 0 1-2.25-2.25H6.7a3.75 3.75 0 0 0 3.75 3.75zm6.873 0H10.45v1.5h6.873zm1.689-1.29a1.75 1.75 0 0 1-1.689 1.29v1.5a3.25 3.25 0 0 0 3.136-2.396zm1.958-7.188-1.958 7.188 1.447.394 1.958-7.188zm-1.689-2.21a1.75 1.75 0 0 1 1.689 2.21l1.447.394a3.25 3.25 0 0 0-3.136-4.104zm-4.095 0h4.095v-1.5h-4.095zm-.75-1.972V8.31h1.5V7.087zm0 0h1.5zm0-2.587v2.587h1.5V4.5zm-1.25-1.25c.69 0 1.25.56 1.25 1.25h1.5a2.75 2.75 0 0 0-2.75-2.75zm-.036 0h.036v-1.5h-.036zm-1.044.563a1.25 1.25 0 0 1 1.044-.563v-1.5a2.75 2.75 0 0 0-2.297 1.238zm-4.03 6.125 4.03-6.125-1.253-.825-4.03 6.125z"/></svg>