<svg xmlns="http://www.w3.org/2000/svg" width="24" height="24" fill="none" viewBox="0 0 24 24"><path fill="currentColor" d="m17.139 9.891-.287.693zM15.8 15.5h-.75zm-1.011 3.333-.624-.416zm-2.693 2.21-.287-.693zm-3.467.342.147-.736zm-3.072-1.642.53-.53zM3.915 16.67l.736-.147zm.342-3.467.693.287zm2.21-2.693-.417-.623zm2 2.994-.417-.624zm-.884 1.077.693.287zm-.137 1.386-.735.146zm.657 1.23-.53.53zm2.615.52.287.692zm1.078-.885.623.417zM12.2 15.5h-.75zm3.935-11.316.693-.287zm2.381 2.381-.287.693zm1.285.317.068-.747zm0 3.608.037-.75zM9.4 13.133l-.124-.74zm6.399-3.21h-.75zM12.2 2.9h.75zm3.618 0-.747.068zM9.4 9.512l-.05-.748zm7.452 1.07a8.8 8.8 0 0 0 2.91.656l.076-1.498a7.3 7.3 0 0 1-2.413-.543zm-.767-.36q.374.199.767.36l.573-1.385a7 7 0 0 1-.634-.3zm-1.035-.3V15.5h1.5V9.924zm.362 9.327a6.75 6.75 0 0 0 1.138-3.75h-1.5a5.25 5.25 0 0 1-.885 2.917zm-3.029 2.486a6.75 6.75 0 0 0 3.03-2.486l-1.248-.833a5.25 5.25 0 0 1-2.356 1.933zm-3.9.384a6.75 6.75 0 0 0 3.9-.384l-.574-1.386a5.25 5.25 0 0 1-3.033.3zm-3.456-1.847a6.75 6.75 0 0 0 3.456 1.847l.293-1.47a5.25 5.25 0 0 1-2.688-1.438zM3.18 16.817a6.75 6.75 0 0 0 1.847 3.456l1.06-1.06a5.25 5.25 0 0 1-1.436-2.689zm.384-3.9a6.75 6.75 0 0 0-.384 3.9l1.47-.293a5.25 5.25 0 0 1 .3-3.033zm2.486-3.03a6.75 6.75 0 0 0-2.486 3.03l1.386.574a5.25 5.25 0 0 1 1.933-2.356zm3.3-1.122a6.75 6.75 0 0 0-3.3 1.123l.833 1.247a5.25 5.25 0 0 1 2.567-.873zm1.2 3.935V9.9h-1.5v2.8zm-1.667 1.428a1.65 1.65 0 0 1 .643-.255l-.249-1.48a3.15 3.15 0 0 0-1.227.488zm-.607.74a1.65 1.65 0 0 1 .607-.74l-.833-1.247a3.15 3.15 0 0 0-1.16 1.413zm-.094.954a1.65 1.65 0 0 1 .094-.953l-1.386-.575a3.15 3.15 0 0 0-.18 1.82zm.451.845a1.65 1.65 0 0 1-.451-.845l-1.471.293a3.15 3.15 0 0 0 .862 1.612zm.845.451a1.65 1.65 0 0 1-.845-.451l-1.06 1.06c.44.44 1.001.74 1.612.863zm.953-.094a1.65 1.65 0 0 1-.953.094l-.293 1.472a3.15 3.15 0 0 0 1.82-.18zm.74-.607a1.65 1.65 0 0 1-.74.607l.574 1.386a3.15 3.15 0 0 0 1.414-1.16zm.279-.917c0 .326-.097.645-.278.917l1.247.833a3.15 3.15 0 0 0 .531-1.75zm1.5 0V2.9h-1.5v12.6zM12.6 3.25h2.8v-1.5h-2.8zm4.228.647a3.7 3.7 0 0 1-.263-1.066l-1.494.137c.047.516.172 1.022.371 1.503zm.791 1.184a3.7 3.7 0 0 1-.791-1.184l-1.386.574a5.2 5.2 0 0 0 1.116 1.67zm1.184.791a3.7 3.7 0 0 1-1.184-.791l-1.06 1.06a5.2 5.2 0 0 0 1.67 1.117zm1.066.263a3.7 3.7 0 0 1-1.066-.263l-.574 1.386c.48.199.987.324 1.503.37zM20.95 10.1V7.3h-1.5v2.8zm-1.218-2.471a.32.32 0 0 1-.282-.329h1.5c0-.65-.518-1.114-1.081-1.165zm.03 3.61A1.135 1.135 0 0 0 20.95 10.1h-1.5c0-.183.155-.37.388-.36zM9.05 12.7c0-.102.044-.183.089-.23a.25.25 0 0 1 .138-.076l.25 1.479c.501-.085 1.023-.513 1.023-1.173zm7.74-3.802c-.729-.388-1.74.084-1.74 1.026h1.5c0 .143-.086.25-.17.297a.31.31 0 0 1-.295.001zM12.95 2.9a.35.35 0 0 1-.35.35v-1.5a1.15 1.15 0 0 0-1.15 1.15zm2.45.35a.32.32 0 0 1-.329-.282l1.494-.137c-.051-.563-.514-1.081-1.165-1.081zm-5.95 7.012a.37.37 0 0 1-.4-.362h1.5c0-.62-.513-1.18-1.2-1.135z"/></svg>