<svg xmlns="http://www.w3.org/2000/svg" width="24" height="24" fill="none" viewBox="0 0 24 24"><path fill="currentColor" d="m19.25 11.605-.398-.636a.75.75 0 0 0-.352.636zM7.75 20.25V21zm-3-8.645h.75a.75.75 0 0 0-.352-.636zM17 3.75v.75A3.5 3.5 0 0 1 20.5 8H22a5 5 0 0 0-5-5zM21.25 8h-.75c0 1.25-.657 2.349-1.648 2.969l.398.636.398.635A5 5 0 0 0 22 8zm-2 3.605h-.75v5.645H20v-5.645zm0 5.645h-.75a2.25 2.25 0 0 1-2.25 2.25V21A3.75 3.75 0 0 0 20 17.25zm-3 3v-.75h-8.5V21h8.5zm-8.5 0v-.75a2.25 2.25 0 0 1-2.25-2.25H4A3.75 3.75 0 0 0 7.75 21zm-3-3h.75v-5.645H4v5.645zm0-5.645.398-.636A3.5 3.5 0 0 1 3.5 8H2c0 1.79.942 3.358 2.352 4.24zM2.75 8h.75A3.5 3.5 0 0 1 7 4.5V3a5 5 0 0 0-5 5zM7 3.75v.75h10V3H7z"/><rect width="6" height="6" x="9" y="9" stroke="currentColor" stroke-linecap="round" stroke-linejoin="round" stroke-width="1.5" rx="2"/></svg>