<svg width="24" height="24" viewBox="0 0 24 24" fill="none" xmlns="http://www.w3.org/2000/svg">
<path d="M2.75 12H13.25M13.25 12C13.25 13.3807 14.3693 14.5 15.75 14.5C17.1307 14.5 18.25 13.3807 18.25 12M13.25 12C13.25 10.6193 14.3693 9.5 15.75 9.5C17.1307 9.5 18.25 10.6193 18.25 12M18.25 12H21.25M7.75 5.25H21.25M7.75 5.25C7.75 6.63071 6.63071 7.75 5.25 7.75C3.86929 7.75 2.75 6.63071 2.75 5.25C2.75 3.86929 3.86929 2.75 5.25 2.75C6.63071 2.75 7.75 3.86929 7.75 5.25ZM2.75 18.75H5.75M5.75 18.75C5.75 20.1307 6.86929 21.25 8.25 21.25C9.63071 21.25 10.75 20.1307 10.75 18.75M5.75 18.75C5.75 17.3693 6.86929 16.25 8.25 16.25C9.63071 16.25 10.75 17.3693 10.75 18.75M10.75 18.75H21.25" stroke="currentColor" stroke-width="1.5" stroke-linecap="round" stroke-linejoin="round"/>
</svg>
