<svg xmlns="http://www.w3.org/2000/svg" width="24" height="24" fill="none" viewBox="0 0 24 24"><path stroke="currentColor" stroke-linejoin="round" stroke-width="1.5" d="M12.253 19.4 7.99 15.782a1 1 0 0 0-.647-.238H4.75a2 2 0 0 1-2-2v-3.086a2 2 0 0 1 2-2h2.594a1 1 0 0 0 .647-.238l4.262-3.62a1 1 0 0 1 1.647.762V18.64a1 1 0 0 1-1.647.762Z"/><path stroke="currentColor" stroke-linecap="round" stroke-linejoin="round" stroke-width="1.5" d="M16.664 8.542c.48.35.88.854 1.158 1.462.277.607.423 1.295.423 1.996 0 .7-.146 1.39-.423 1.996-.278.607-.677 1.112-1.158 1.462"/></svg>