<svg xmlns="http://www.w3.org/2000/svg" width="24" height="24" fill="none" viewBox="0 0 24 24"><path stroke="currentColor" stroke-linecap="round" stroke-linejoin="round" stroke-width="1.5" d="M18.314 12a6.3 6.3 0 0 0-2.623-5.123v-2.92c0-.805-.652-1.457-1.457-1.457H9.766c-.805 0-1.457.652-1.457 1.457v2.92A6.3 6.3 0 0 0 5.686 12m12.628 0a6.3 6.3 0 0 1-2.623 5.123v2.92c0 .805-.652 1.457-1.457 1.457H9.766a1.457 1.457 0 0 1-1.457-1.457v-2.92A6.3 6.3 0 0 1 5.686 12m12.628 0a6.314 6.314 0 1 1-12.628 0m12.628 0a6.314 6.314 0 1 0-12.628 0"/></svg>