<svg xmlns="http://www.w3.org/2000/svg" width="24" height="24" fill="none" viewBox="0 0 24 24"><path stroke="currentColor" stroke-linecap="round" stroke-linejoin="round" stroke-width="1.5" d="M3.465 13.796a3.43 3.43 0 0 1-.715-2.101 3.457 3.457 0 0 1 3.114-3.437.31.31 0 0 0 .276-.305A3.46 3.46 0 0 1 9.603 4.5c.88 0 1.682.327 2.293.866m4.665 6.083a3.46 3.46 0 0 0-3.493-3.453 3.46 3.46 0 0 0-3.432 3.453c0 .157-.12.29-.276.305a3.46 3.46 0 0 0-3.114 3.437 3.46 3.46 0 0 0 3.462 3.453h8.08a3.46 3.46 0 0 0 3.462-3.453 3.46 3.46 0 0 0-3.462-3.454h-.95a.283.283 0 0 1-.277-.288"/></svg>