<svg width="24" height="24" viewBox="0 0 24 24" fill="none" xmlns="http://www.w3.org/2000/svg">
<path d="M2.75 8.98758C3.88364 7.63656 5.29962 6.55043 6.89827 5.80565C8.49692 5.06087 10.2394 4.67553 12.003 4.67676C13.7666 4.67799 15.5086 5.06576 17.1062 5.81278C18.7038 6.55979 20.1182 7.6479 21.25 9.0005" stroke="currentColor" stroke-width="1.5" stroke-linecap="round" stroke-linejoin="round"/>
<path d="M5.64062 11.9642C6.42 11.0354 7.39349 10.2886 8.49256 9.7766C9.59163 9.26456 10.7896 8.99964 12.0021 9.00049C13.2146 9.00134 14.4121 9.26793 15.5105 9.7815C16.6089 10.2951 17.5813 11.0431 18.3594 11.9731" stroke="currentColor" stroke-width="1.5" stroke-linecap="round" stroke-linejoin="round"/>
<path d="M8.55548 15.0033C8.97763 14.5002 9.50492 14.0958 10.1002 13.8184C10.6955 13.5411 11.3444 13.3976 12.0012 13.398C12.6579 13.3985 13.3066 13.5429 13.9015 13.8211C14.4964 14.0993 15.0231 14.5044 15.4446 15.0081" stroke="currentColor" stroke-width="1.5" stroke-linecap="round" stroke-linejoin="round"/>
<circle cx="12" cy="17.8779" r="1.44531" fill="currentColor"/>
</svg>
