<svg xmlns="http://www.w3.org/2000/svg" width="24" height="24" fill="none" viewBox="0 0 24 24"><path stroke="currentColor" stroke-linecap="round" stroke-linejoin="round" stroke-width="1.5" d="M2.75 6.75a4 4 0 0 1 4-4h7.5a4 4 0 0 1 4 4v7.5a4 4 0 0 1-4 4h-7.5a4 4 0 0 1-4-4z"/><path fill="currentColor" d="M21.952 9.486c-.05-.655-.152-1.21-.388-1.725A4.8 4.8 0 0 0 20.5 6.286v5.664c0 1.55 0 2.671-.067 3.556-.066.876-.193 1.46-.415 1.942a5.25 5.25 0 0 1-2.57 2.57c-.483.222-1.066.35-1.942.415-.885.067-2.006.067-3.556.067H6.286a4.8 4.8 0 0 0 1.475 1.064c.514.236 1.07.339 1.725.388.64.048 1.433.048 2.434.048h.061c1.513 0 2.69 0 3.637-.071.96-.072 1.745-.22 2.458-.549a6.75 6.75 0 0 0 3.304-3.304c.329-.713.477-1.497.549-2.458C22 14.67 22 13.494 22 11.98v-.061c0-1 0-1.793-.048-2.434"/><path stroke="currentColor" stroke-linecap="round" stroke-linejoin="round" stroke-width="1.5" d="M2.75 6.977h15.5"/></svg>