<svg xmlns="http://www.w3.org/2000/svg" width="24" height="24" fill="none" viewBox="0 0 24 24"><path stroke="currentColor" stroke-linejoin="round" stroke-width="1.5" d="M10.691 4.562a6.19 6.19 0 0 1 6.545-1.42c.378.141.45.62.165.906l-2.787 2.787a1.037 1.037 0 0 0 0 1.467l1.084 1.084a1.037 1.037 0 0 0 1.467 0L19.953 6.6c.285-.285.764-.212.905.165a6.187 6.187 0 0 1-7.696 8.058c-.396-.128-.84-.054-1.134.24L6.481 20.61a2.186 2.186 0 1 1-3.09-3.09l5.547-5.548c.294-.294.368-.738.24-1.134a6.19 6.19 0 0 1 1.513-6.276Z"/></svg>