<svg xmlns="http://www.w3.org/2000/svg" width="24" height="24" fill="none" viewBox="0 0 24 24"><path stroke="currentColor" stroke-linecap="round" stroke-linejoin="round" stroke-width="1.5" d="M2.45 11.419c0-3.017.3-4.526 1.237-5.463s2.446-.937 5.463-.937h5.7c3.017 0 4.525 0 5.463.937s1.237 2.446 1.237 5.463v1.162c0 3.017-.3 4.526-1.237 5.463s-2.446.937-5.463.937h-5.7c-3.017 0-4.526 0-5.463-.937S2.45 15.598 2.45 12.581z"/><path stroke="currentColor" stroke-linejoin="round" stroke-width="1.5" d="m14.686 11.491-4.268-2.667a.6.6 0 0 0-.918.509v5.335a.6.6 0 0 0 .918.508l4.268-2.667a.6.6 0 0 0 0-1.018Z"/></svg>